<svg xmlns="http://www.w3.org/2000/svg" viewBox="0 0 1181 717"><defs><style>.a{font-size:12px;font-family:MyriadPro-Regular, Myriad Pro;}.b{letter-spacing:-0.01em;}.c{letter-spacing:-0.01em;}.d{letter-spacing:0em;}.e{letter-spacing:-0.01em;}.f{letter-spacing:0.01em;}.g{letter-spacing:-0.01em;}.h{letter-spacing:0em;}.i{letter-spacing:-0.01em;}.j{letter-spacing:0em;}.k{letter-spacing:-0.01em;}.l{letter-spacing:-0.01em;}.m{letter-spacing:0em;}.n{letter-spacing:0em;}.o{letter-spacing:-0.02em;}.p{letter-spacing:-0.01em;}.q{letter-spacing:0em;}.r{letter-spacing:0.02em;}.s{letter-spacing:0em;}.t{letter-spacing:0em;}.u{letter-spacing:0em;}.v{letter-spacing:0em;}.w{letter-spacing:-0.01em;}.x{letter-spacing:0em;}.y{letter-spacing:0em;}</style></defs><title>Artboard 1</title><text class="a" transform="translate(103 102.52)"><tspan class="b">L</tspan><tspan x="5.5" y="0">o</tspan><tspan class="c" x="12.08" y="0">r</tspan><tspan x="15.89" y="0">em ipsum dolor sit ame</tspan><tspan class="d" x="133.13" y="0">t</tspan><tspan x="137.06" y="0">, </tspan><tspan class="e" x="142.09" y="0">c</tspan><tspan x="147.39" y="0">onse</tspan><tspan class="f" x="171.41" y="0">c</tspan><tspan class="g" x="176.94" y="0">t</tspan><tspan x="180.84" y="0">etuer adipiscing eli</tspan><tspan class="d" x="275.41" y="0">t</tspan><tspan class="h" x="279.34" y="0">, sed diam nonum</tspan><tspan class="i" x="368.89" y="0">m</tspan><tspan x="378.74" y="0">y nibh euismod tincidu</tspan><tspan class="j" x="493.53" y="0">n</tspan><tspan x="500.14" y="0">t ut lao</tspan><tspan class="c" x="534.99" y="0">r</tspan><tspan x="538.79" y="0">eet dolo</tspan><tspan class="c" x="580.11" y="0">r</tspan><tspan x="583.91" y="0">e ma</tspan><tspan class="k" x="608.26" y="0">g</tspan><tspan x="614.9" y="0">na aliquam e</tspan><tspan class="l" x="679.02" y="0">r</tspan><tspan class="j" x="682.89" y="0">a</tspan><tspan x="688.62" y="0">t </tspan><tspan class="c" x="695.14" y="0">v</tspan><tspan x="700.79" y="0">olutp</tspan><tspan class="j" x="727.62" y="0">a</tspan><tspan class="m" x="733.36" y="0">t</tspan><tspan x="737.3" y="0">. </tspan><tspan class="n" x="742.32" y="0">U</tspan><tspan x="750.13" y="0">t wisi enim ad minim </tspan><tspan class="c" x="0" y="14.4">v</tspan><tspan x="5.65" y="14.4">eniam, quis nostrud </tspan><tspan class="d" x="107.24" y="14.4">e</tspan><tspan class="o" x="113.22" y="14.4">x</tspan><tspan x="118.59" y="14.4">e</tspan><tspan class="p" x="124.6" y="14.4">r</tspan><tspan x="128.41" y="14.4">ci t</tspan><tspan class="q" x="143.11" y="14.4">a</tspan><tspan x="148.84" y="14.4">tion ullam</tspan><tspan class="e" x="199.48" y="14.4">c</tspan><tspan x="204.79" y="14.4">o</tspan><tspan class="n" x="211.38" y="14.4">r</tspan><tspan x="215.35" y="14.4">per suscipit lobo</tspan><tspan class="r" x="297.94" y="14.4">r</tspan><tspan class="h" x="302.15" y="14.4">tis nisl ut aliquip </tspan><tspan class="d" x="385.92" y="14.4">e</tspan><tspan x="391.9" y="14.4">x ea </tspan><tspan class="e" x="414.34" y="14.4">c</tspan><tspan x="419.64" y="14.4">ommodo </tspan><tspan class="g" x="468.73" y="14.4">c</tspan><tspan x="474.04" y="14.4">onsequ</tspan><tspan class="j" x="511.42" y="14.4">a</tspan><tspan class="s" x="517.16" y="14.4">t</tspan><tspan x="521.09" y="14.4">. </tspan><tspan class="t" x="526.12" y="14.4">D</tspan><tspan x="534.15" y="14.4">uis au</tspan><tspan class="g" x="563.26" y="14.4">t</tspan><tspan x="567.16" y="14.4">em </tspan><tspan class="c" x="585.72" y="14.4">v</tspan><tspan x="591.37" y="14.4">el eum i</tspan><tspan class="u" x="630.74" y="14.4">r</tspan><tspan class="v" x="634.72" y="14.4">iu</tspan><tspan class="c" x="644.14" y="14.4">r</tspan><tspan x="647.94" y="14.4">e dolor in hend</tspan><tspan class="c" x="723.85" y="14.4">r</tspan><tspan x="727.65" y="14.4">e</tspan><tspan class="n" x="733.67" y="14.4">r</tspan><tspan x="737.64" y="14.4">it in vulput</tspan><tspan class="j" x="791.6" y="14.4">a</tspan><tspan class="g" x="797.34" y="14.4">t</tspan><tspan x="801.24" y="14.4">e </tspan><tspan class="c" x="809.79" y="14.4">v</tspan><tspan x="815.44" y="14.4">elit </tspan><tspan x="0" y="28.8">esse molestie </tspan><tspan class="e" x="69.6" y="28.8">c</tspan><tspan x="74.9" y="28.8">onsequ</tspan><tspan class="q" x="112.28" y="28.8">a</tspan><tspan class="d" x="118.02" y="28.8">t</tspan><tspan x="121.95" y="28.8">, </tspan><tspan class="c" x="126.98" y="28.8">v</tspan><tspan x="132.63" y="28.8">el illum dolo</tspan><tspan class="p" x="194.43" y="28.8">r</tspan><tspan x="198.24" y="28.8">e eu </tspan><tspan class="w" x="221.96" y="28.8">f</tspan><tspan x="225.31" y="28.8">eu</tspan><tspan class="g" x="237.93" y="28.8">g</tspan><tspan x="244.57" y="28.8">i</tspan><tspan class="j" x="247.37" y="28.8">a</tspan><tspan x="253.11" y="28.8">t nulla facilisis </tspan><tspan class="q" x="324.86" y="28.8">a</tspan><tspan x="330.59" y="28.8">t </tspan><tspan class="p" x="337.11" y="28.8">v</tspan><tspan x="342.76" y="28.8">e</tspan><tspan class="c" x="348.77" y="28.8">r</tspan><tspan x="352.58" y="28.8">o e</tspan><tspan class="p" x="367.72" y="28.8">r</tspan><tspan x="371.52" y="28.8">os et a</tspan><tspan class="g" x="403.72" y="28.8">c</tspan><tspan x="409.02" y="28.8">cumsan et ius</tspan><tspan class="e" x="477.46" y="28.8">t</tspan><tspan class="x" x="481.36" y="28.8">o odio di</tspan><tspan class="k" x="525.36" y="28.8">g</tspan><tspan x="532" y="28.8">nissim qui blandit p</tspan><tspan class="l" x="630.07" y="28.8">r</tspan><tspan x="633.94" y="28.8">aese</tspan><tspan class="j" x="656.5" y="28.8">n</tspan><tspan x="663.11" y="28.8">t lupt</tspan><tspan class="j" x="689.87" y="28.8">a</tspan><tspan x="695.6" y="28.8">tum zz</tspan><tspan class="n" x="729.01" y="28.8">r</tspan><tspan x="732.98" y="28.8">il delenit augue duis </tspan><tspan x="0" y="43.2">dolo</tspan><tspan class="c" x="22.78" y="43.2">r</tspan><tspan x="26.58" y="43.2">e </tspan><tspan class="e" x="35.14" y="43.2">t</tspan><tspan x="39.04" y="43.2">e </tspan><tspan class="i" x="47.59" y="43.2">f</tspan><tspan x="50.94" y="43.2">eugait nulla facilisi.</tspan><tspan class="b" x="0" y="57.6">L</tspan><tspan x="5.5" y="57.6">o</tspan><tspan class="c" x="12.08" y="57.6">r</tspan><tspan x="15.89" y="57.6">em ipsum dolor sit ame</tspan><tspan class="d" x="133.13" y="57.6">t</tspan><tspan x="137.06" y="57.6">, </tspan><tspan class="e" x="142.09" y="57.6">c</tspan><tspan x="147.39" y="57.6">ons e</tspan><tspan class="f" x="173.95" y="57.6">c</tspan><tspan class="g" x="179.48" y="57.6">t</tspan><tspan x="183.38" y="57.6">etuer adipiscing eli</tspan><tspan class="d" x="277.95" y="57.6">t</tspan><tspan class="h" x="281.89" y="57.6">, sed diam nonum</tspan><tspan class="i" x="371.43" y="57.6">m</tspan><tspan x="381.28" y="57.6">y nibh euismod tincidu</tspan><tspan class="j" x="496.07" y="57.6">n</tspan><tspan x="502.69" y="57.6">t ut lao</tspan><tspan class="c" x="537.53" y="57.6">r</tspan><tspan x="541.34" y="57.6">eet dolo</tspan><tspan class="c" x="582.65" y="57.6">r</tspan><tspan x="586.46" y="57.6">e ma</tspan><tspan class="k" x="610.8" y="57.6">g</tspan><tspan x="617.44" y="57.6">na aliquam e</tspan><tspan class="l" x="681.57" y="57.6">r</tspan><tspan class="j" x="685.43" y="57.6">a</tspan><tspan x="691.17" y="57.6">t </tspan><tspan class="c" x="697.68" y="57.6">v</tspan><tspan x="703.33" y="57.6">olutp</tspan><tspan class="j" x="730.17" y="57.6">a</tspan><tspan class="m" x="735.9" y="57.6">t</tspan><tspan x="739.84" y="57.6">. </tspan><tspan class="n" x="744.87" y="57.6">U</tspan><tspan x="752.68" y="57.6">t wisi enim ad </tspan><tspan x="0" y="72">minim </tspan><tspan class="c" x="34.84" y="72">v</tspan><tspan x="40.49" y="72">eniam, quis nostrud </tspan><tspan class="d" x="142.08" y="72">e</tspan><tspan class="o" x="148.05" y="72">x</tspan><tspan x="153.43" y="72">e</tspan><tspan class="p" x="159.44" y="72">r</tspan><tspan x="163.25" y="72">ci t</tspan><tspan class="q" x="177.94" y="72">a</tspan><tspan x="183.68" y="72">tion ullam</tspan><tspan class="e" x="234.32" y="72">c</tspan><tspan x="239.62" y="72">o</tspan><tspan class="n" x="246.21" y="72">r</tspan><tspan x="250.18" y="72">per suscipit lobo</tspan><tspan class="r" x="332.78" y="72">r</tspan><tspan class="h" x="336.99" y="72">tis nisl ut aliquip </tspan><tspan class="d" x="420.76" y="72">e</tspan><tspan x="426.74" y="72">x ea </tspan><tspan class="e" x="449.18" y="72">c</tspan><tspan x="454.48" y="72">ommodo </tspan><tspan class="k" x="503.57" y="72">c</tspan><tspan x="508.88" y="72">onsequ</tspan><tspan class="y" x="546.25" y="72">a</tspan><tspan class="m" x="551.99" y="72">t</tspan><tspan x="555.93" y="72">.</tspan><tspan class="b" x="0" y="86.4">L</tspan><tspan x="5.5" y="86.4">o</tspan><tspan class="c" x="12.08" y="86.4">r</tspan><tspan x="15.89" y="86.4">em ipsum dolor sit ame</tspan><tspan class="d" x="133.13" y="86.4">t</tspan><tspan x="137.06" y="86.4">, </tspan><tspan class="e" x="142.09" y="86.4">c</tspan><tspan x="147.39" y="86.4">onse</tspan><tspan class="f" x="171.41" y="86.4">c</tspan><tspan class="g" x="176.94" y="86.4">t</tspan><tspan x="180.84" y="86.4">etuer adipiscing eli</tspan><tspan class="d" x="275.41" y="86.4">t</tspan><tspan class="h" x="279.34" y="86.4">, sed diam nonum</tspan><tspan class="i" x="368.89" y="86.4">m</tspan><tspan x="378.74" y="86.4">y nibh euismod tincidu</tspan><tspan class="j" x="493.53" y="86.4">n</tspan><tspan x="500.14" y="86.4">t ut lao</tspan><tspan class="c" x="534.99" y="86.4">r</tspan><tspan x="538.79" y="86.4">eet dolo</tspan><tspan class="c" x="580.11" y="86.4">r</tspan><tspan x="583.91" y="86.4">e ma</tspan><tspan class="k" x="608.26" y="86.4">g</tspan><tspan x="614.9" y="86.4">na aliquam e</tspan><tspan class="l" x="679.02" y="86.4">r</tspan><tspan class="j" x="682.89" y="86.4">a</tspan><tspan x="688.62" y="86.4">t </tspan><tspan class="c" x="695.14" y="86.4">v</tspan><tspan x="700.79" y="86.4">olutp</tspan><tspan class="j" x="727.62" y="86.4">a</tspan><tspan class="m" x="733.36" y="86.4">t</tspan><tspan x="737.3" y="86.4">. </tspan><tspan class="n" x="742.32" y="86.4">U</tspan><tspan x="750.13" y="86.4">t wisi enim ad minim </tspan><tspan class="c" x="0" y="100.8">v</tspan><tspan x="5.65" y="100.8">eniam, quis nostrud </tspan><tspan class="d" x="107.24" y="100.8">e</tspan><tspan class="o" x="113.22" y="100.8">x</tspan><tspan x="118.59" y="100.8">e</tspan><tspan class="p" x="124.6" y="100.8">r</tspan><tspan x="128.41" y="100.8">ci t</tspan><tspan class="q" x="143.11" y="100.8">a</tspan><tspan x="148.84" y="100.8">tion ullam</tspan><tspan class="e" x="199.48" y="100.8">c</tspan><tspan x="204.79" y="100.8">o</tspan><tspan class="n" x="211.38" y="100.8">r</tspan><tspan x="215.35" y="100.8">per suscipit lobo</tspan><tspan class="r" x="297.94" y="100.8">r</tspan><tspan class="h" x="302.15" y="100.8">tis nisl ut aliquip </tspan><tspan class="d" x="385.92" y="100.8">e</tspan><tspan x="391.9" y="100.8">x ea </tspan><tspan class="e" x="414.34" y="100.8">c</tspan><tspan x="419.64" y="100.8">ommodo </tspan><tspan class="g" x="468.73" y="100.8">c</tspan><tspan x="474.04" y="100.8">onsequ</tspan><tspan class="j" x="511.42" y="100.8">a</tspan><tspan class="s" x="517.16" y="100.8">t</tspan><tspan x="521.09" y="100.8">. </tspan><tspan class="t" x="526.12" y="100.8">D</tspan><tspan x="534.15" y="100.8">uis au</tspan><tspan class="g" x="563.26" y="100.8">t</tspan><tspan x="567.16" y="100.8">em </tspan><tspan class="c" x="585.72" y="100.8">v</tspan><tspan x="591.37" y="100.8">el eum i</tspan><tspan class="u" x="630.74" y="100.8">r</tspan><tspan class="v" x="634.72" y="100.8">iu</tspan><tspan class="c" x="644.14" y="100.8">r</tspan><tspan x="647.94" y="100.8">e dolor in hend</tspan><tspan class="c" x="723.85" y="100.8">r</tspan><tspan x="727.65" y="100.8">e</tspan><tspan class="n" x="733.67" y="100.8">r</tspan><tspan x="737.64" y="100.8">it in vulput</tspan><tspan class="j" x="791.6" y="100.8">a</tspan><tspan class="g" x="797.34" y="100.8">t</tspan><tspan x="801.24" y="100.8">e </tspan><tspan class="c" x="809.79" y="100.8">v</tspan><tspan x="815.44" y="100.8">elit </tspan><tspan x="0" y="115.2">esse molestie </tspan><tspan class="e" x="69.6" y="115.2">c</tspan><tspan x="74.9" y="115.2">onsequ</tspan><tspan class="q" x="112.28" y="115.2">a</tspan><tspan class="d" x="118.02" y="115.2">t</tspan><tspan x="121.95" y="115.2">, </tspan><tspan class="c" x="126.98" y="115.2">v</tspan><tspan x="132.63" y="115.2">el illum dolo</tspan><tspan class="p" x="194.43" y="115.2">r</tspan><tspan x="198.24" y="115.2">e eu </tspan><tspan class="w" x="221.96" y="115.2">f</tspan><tspan x="225.31" y="115.2">eu</tspan><tspan class="g" x="237.93" y="115.2">g</tspan><tspan x="244.57" y="115.2">i</tspan><tspan class="j" x="247.37" y="115.2">a</tspan><tspan x="253.11" y="115.2">t nulla facilisis </tspan><tspan class="q" x="324.86" y="115.2">a</tspan><tspan x="330.59" y="115.2">t </tspan><tspan class="p" x="337.11" y="115.2">v</tspan><tspan x="342.76" y="115.2">e</tspan><tspan class="c" x="348.77" y="115.2">r</tspan><tspan x="352.58" y="115.2">o e</tspan><tspan class="p" x="367.72" y="115.2">r</tspan><tspan x="371.52" y="115.2">os et a</tspan><tspan class="g" x="403.72" y="115.2">c</tspan><tspan x="409.02" y="115.2">cumsan et ius</tspan><tspan class="e" x="477.46" y="115.2">t</tspan><tspan class="x" x="481.36" y="115.2">o odio di</tspan><tspan class="k" x="525.36" y="115.2">g</tspan><tspan x="532" y="115.2">nissim qui blandit p</tspan><tspan class="l" x="630.07" y="115.2">r</tspan><tspan x="633.94" y="115.2">aese</tspan><tspan class="j" x="656.5" y="115.2">n</tspan><tspan x="663.11" y="115.2">t lupt</tspan><tspan class="j" x="689.87" y="115.2">a</tspan><tspan x="695.6" y="115.2">tum zz</tspan><tspan class="n" x="729.01" y="115.2">r</tspan><tspan x="732.98" y="115.2">il delenit augue duis </tspan><tspan x="0" y="129.6">dolo</tspan><tspan class="c" x="22.78" y="129.6">r</tspan><tspan x="26.58" y="129.6">e </tspan><tspan class="e" x="35.14" y="129.6">t</tspan><tspan x="39.04" y="129.6">e </tspan><tspan class="i" x="47.59" y="129.6">f</tspan><tspan x="50.94" y="129.6">eugait nulla facilisi.</tspan><tspan class="b" x="0" y="144">L</tspan><tspan x="5.5" y="144">o</tspan><tspan class="c" x="12.08" y="144">r</tspan><tspan x="15.89" y="144">em ipsum dolor sit ame</tspan><tspan class="d" x="133.13" y="144">t</tspan><tspan x="137.06" y="144">, </tspan><tspan class="e" x="142.09" y="144">c</tspan><tspan x="147.39" y="144">ons e</tspan><tspan class="f" x="173.95" y="144">c</tspan><tspan class="g" x="179.48" y="144">t</tspan><tspan x="183.38" y="144">etuer adipiscing eli</tspan><tspan class="d" x="277.95" y="144">t</tspan><tspan class="h" x="281.89" y="144">, sed diam nonum</tspan><tspan class="i" x="371.43" y="144">m</tspan><tspan x="381.28" y="144">y nibh euismod tincidu</tspan><tspan class="j" x="496.07" y="144">n</tspan><tspan x="502.69" y="144">t ut lao</tspan><tspan class="c" x="537.53" y="144">r</tspan><tspan x="541.34" y="144">eet dolo</tspan><tspan class="c" x="582.65" y="144">r</tspan><tspan x="586.46" y="144">e ma</tspan><tspan class="k" x="610.8" y="144">g</tspan><tspan x="617.44" y="144">na aliquam e</tspan><tspan class="l" x="681.57" y="144">r</tspan><tspan class="j" x="685.43" y="144">a</tspan><tspan x="691.17" y="144">t </tspan><tspan class="c" x="697.68" y="144">v</tspan><tspan x="703.33" y="144">olutp</tspan><tspan class="j" x="730.17" y="144">a</tspan><tspan class="m" x="735.9" y="144">t</tspan><tspan x="739.84" y="144">. </tspan><tspan class="n" x="744.87" y="144">U</tspan><tspan x="752.68" y="144">t wisi enim ad </tspan><tspan x="0" y="158.4">minim </tspan><tspan class="c" x="34.84" y="158.4">v</tspan><tspan x="40.49" y="158.4">eniam, quis nostrud </tspan><tspan class="d" x="142.08" y="158.4">e</tspan><tspan class="o" x="148.05" y="158.4">x</tspan><tspan x="153.43" y="158.4">e</tspan><tspan class="p" x="159.44" y="158.4">r</tspan><tspan x="163.25" y="158.4">ci t</tspan><tspan class="q" x="177.94" y="158.4">a</tspan><tspan x="183.68" y="158.4">tion ullam</tspan><tspan class="e" x="234.32" y="158.4">c</tspan><tspan x="239.62" y="158.4">o</tspan><tspan class="n" x="246.21" y="158.4">r</tspan><tspan x="250.18" y="158.4">per suscipit lobo</tspan><tspan class="r" x="332.78" y="158.4">r</tspan><tspan class="h" x="336.99" y="158.4">tis nisl ut aliquip </tspan><tspan class="d" x="420.76" y="158.4">e</tspan><tspan x="426.74" y="158.4">x ea </tspan><tspan class="e" x="449.18" y="158.4">c</tspan><tspan x="454.48" y="158.4">ommodo </tspan><tspan class="k" x="503.57" y="158.4">c</tspan><tspan x="508.88" y="158.4">onsequ</tspan><tspan class="y" x="546.25" y="158.4">a</tspan><tspan class="m" x="551.99" y="158.4">t</tspan><tspan x="555.93" y="158.4">.</tspan><tspan class="b" x="0" y="172.8">L</tspan><tspan x="5.5" y="172.8">o</tspan><tspan class="c" x="12.08" y="172.8">r</tspan><tspan x="15.89" y="172.8">em ipsum dolor sit ame</tspan><tspan class="d" x="133.13" y="172.8">t</tspan><tspan x="137.06" y="172.8">, </tspan><tspan class="e" x="142.09" y="172.8">c</tspan><tspan x="147.39" y="172.8">onse</tspan><tspan class="f" x="171.41" y="172.8">c</tspan><tspan class="g" x="176.94" y="172.8">t</tspan><tspan x="180.84" y="172.8">etuer adipiscing eli</tspan><tspan class="d" x="275.41" y="172.8">t</tspan><tspan class="h" x="279.34" y="172.8">, sed diam nonum</tspan><tspan class="i" x="368.89" y="172.8">m</tspan><tspan x="378.74" y="172.8">y nibh euismod tincidu</tspan><tspan class="j" x="493.53" y="172.8">n</tspan><tspan x="500.14" y="172.8">t ut lao</tspan><tspan class="c" x="534.99" y="172.8">r</tspan><tspan x="538.79" y="172.8">eet dolo</tspan><tspan class="c" x="580.11" y="172.8">r</tspan><tspan x="583.91" y="172.8">e ma</tspan><tspan class="k" x="608.26" y="172.8">g</tspan><tspan x="614.9" y="172.8">na aliquam e</tspan><tspan class="l" x="679.02" y="172.8">r</tspan><tspan class="j" x="682.89" y="172.8">a</tspan><tspan x="688.62" y="172.8">t </tspan><tspan class="c" x="695.14" y="172.8">v</tspan><tspan x="700.79" y="172.8">olutp</tspan><tspan class="j" x="727.62" y="172.8">a</tspan><tspan class="m" x="733.36" y="172.8">t</tspan><tspan x="737.3" y="172.8">. </tspan><tspan class="n" x="742.32" y="172.8">U</tspan><tspan x="750.13" y="172.8">t wisi enim ad minim </tspan><tspan class="c" x="0" y="187.2">v</tspan><tspan x="5.65" y="187.2">eniam, quis nostrud </tspan><tspan class="d" x="107.24" y="187.2">e</tspan><tspan class="o" x="113.22" y="187.2">x</tspan><tspan x="118.59" y="187.2">e</tspan><tspan class="p" x="124.6" y="187.2">r</tspan><tspan x="128.41" y="187.2">ci t</tspan><tspan class="q" x="143.11" y="187.2">a</tspan><tspan x="148.84" y="187.2">tion ullam</tspan><tspan class="e" x="199.48" y="187.2">c</tspan><tspan x="204.79" y="187.2">o</tspan><tspan class="n" x="211.38" y="187.2">r</tspan><tspan x="215.35" y="187.2">per suscipit lobo</tspan><tspan class="r" x="297.94" y="187.2">r</tspan><tspan class="h" x="302.15" y="187.2">tis nisl ut aliquip </tspan><tspan class="d" x="385.92" y="187.2">e</tspan><tspan x="391.9" y="187.2">x ea </tspan><tspan class="e" x="414.34" y="187.2">c</tspan><tspan x="419.64" y="187.2">ommodo </tspan><tspan class="g" x="468.73" y="187.2">c</tspan><tspan x="474.04" y="187.2">onsequ</tspan><tspan class="j" x="511.42" y="187.2">a</tspan><tspan class="s" x="517.16" y="187.2">t</tspan><tspan x="521.09" y="187.2">. </tspan><tspan class="t" x="526.12" y="187.2">D</tspan><tspan x="534.15" y="187.2">uis au</tspan><tspan class="g" x="563.26" y="187.2">t</tspan><tspan x="567.16" y="187.2">em </tspan><tspan class="c" x="585.72" y="187.2">v</tspan><tspan x="591.37" y="187.2">el eum i</tspan><tspan class="u" x="630.74" y="187.2">r</tspan><tspan class="v" x="634.72" y="187.2">iu</tspan><tspan class="c" x="644.14" y="187.2">r</tspan><tspan x="647.94" y="187.2">e dolor in hend</tspan><tspan class="c" x="723.85" y="187.2">r</tspan><tspan x="727.65" y="187.2">e</tspan><tspan class="n" x="733.67" y="187.2">r</tspan><tspan x="737.64" y="187.2">it in vulput</tspan><tspan class="j" x="791.6" y="187.2">a</tspan><tspan class="g" x="797.34" y="187.2">t</tspan><tspan x="801.24" y="187.2">e </tspan><tspan class="c" x="809.79" y="187.2">v</tspan><tspan x="815.44" y="187.2">elit </tspan><tspan x="0" y="201.6">esse molestie </tspan><tspan class="e" x="69.6" y="201.6">c</tspan><tspan x="74.9" y="201.6">onsequ</tspan><tspan class="q" x="112.28" y="201.6">a</tspan><tspan class="d" x="118.02" y="201.6">t</tspan><tspan x="121.95" y="201.6">, </tspan><tspan class="c" x="126.98" y="201.6">v</tspan><tspan x="132.63" y="201.6">el illum dolo</tspan><tspan class="p" x="194.43" y="201.6">r</tspan><tspan x="198.24" y="201.6">e eu </tspan><tspan class="w" x="221.96" y="201.6">f</tspan><tspan x="225.31" y="201.6">eu</tspan><tspan class="g" x="237.93" y="201.6">g</tspan><tspan x="244.57" y="201.6">i</tspan><tspan class="j" x="247.37" y="201.6">a</tspan><tspan x="253.11" y="201.6">t nulla facilisis </tspan><tspan class="q" x="324.86" y="201.6">a</tspan><tspan x="330.59" y="201.6">t </tspan><tspan class="p" x="337.11" y="201.6">v</tspan><tspan x="342.76" y="201.6">e</tspan><tspan class="c" x="348.77" y="201.6">r</tspan><tspan x="352.58" y="201.6">o e</tspan><tspan class="p" x="367.72" y="201.6">r</tspan><tspan x="371.52" y="201.6">os et a</tspan><tspan class="g" x="403.72" y="201.6">c</tspan><tspan x="409.02" y="201.6">cumsan et ius</tspan><tspan class="e" x="477.46" y="201.6">t</tspan><tspan class="x" x="481.36" y="201.6">o odio di</tspan><tspan class="k" x="525.36" y="201.6">g</tspan><tspan x="532" y="201.6">nissim qui blandit p</tspan><tspan class="l" x="630.07" y="201.6">r</tspan><tspan x="633.94" y="201.6">aese</tspan><tspan class="j" x="656.5" y="201.6">n</tspan><tspan x="663.11" y="201.6">t lupt</tspan><tspan class="j" x="689.87" y="201.6">a</tspan><tspan x="695.6" y="201.6">tum zz</tspan><tspan class="n" x="729.01" y="201.6">r</tspan><tspan x="732.98" y="201.6">il delenit augue duis </tspan><tspan x="0" y="216">dolo</tspan><tspan class="c" x="22.78" y="216">r</tspan><tspan x="26.58" y="216">e </tspan><tspan class="e" x="35.14" y="216">t</tspan><tspan x="39.04" y="216">e </tspan><tspan class="i" x="47.59" y="216">f</tspan><tspan x="50.94" y="216">eugait nulla facilisi.</tspan><tspan class="b" x="0" y="230.4">L</tspan><tspan x="5.5" y="230.4">o</tspan><tspan class="c" x="12.08" y="230.4">r</tspan><tspan x="15.89" y="230.4">em ipsum dolor sit ame</tspan><tspan class="d" x="133.13" y="230.4">t</tspan><tspan x="137.06" y="230.4">, </tspan><tspan class="e" x="142.09" y="230.4">c</tspan><tspan x="147.39" y="230.4">ons e</tspan><tspan class="f" x="173.95" y="230.4">c</tspan><tspan class="g" x="179.48" y="230.4">t</tspan><tspan x="183.38" y="230.4">etuer adipiscing eli</tspan><tspan class="d" x="277.95" y="230.4">t</tspan><tspan class="h" x="281.89" y="230.4">, sed diam nonum</tspan><tspan class="i" x="371.43" y="230.4">m</tspan><tspan x="381.28" y="230.4">y nibh euismod tincidu</tspan><tspan class="j" x="496.07" y="230.4">n</tspan><tspan x="502.69" y="230.4">t ut lao</tspan><tspan class="c" x="537.53" y="230.4">r</tspan><tspan x="541.34" y="230.4">eet dolo</tspan><tspan class="c" x="582.65" y="230.4">r</tspan><tspan x="586.46" y="230.4">e ma</tspan><tspan class="k" x="610.8" y="230.4">g</tspan><tspan x="617.44" y="230.4">na aliquam e</tspan><tspan class="l" x="681.57" y="230.4">r</tspan><tspan class="j" x="685.43" y="230.4">a</tspan><tspan x="691.17" y="230.4">t </tspan><tspan class="c" x="697.68" y="230.4">v</tspan><tspan x="703.33" y="230.4">olutp</tspan><tspan class="j" x="730.17" y="230.4">a</tspan><tspan class="m" x="735.9" y="230.4">t</tspan><tspan x="739.84" y="230.4">. </tspan><tspan class="n" x="744.87" y="230.4">U</tspan><tspan x="752.68" y="230.4">t wisi enim ad </tspan><tspan x="0" y="244.8">minim </tspan><tspan class="c" x="34.84" y="244.8">v</tspan><tspan x="40.49" y="244.8">eniam, quis nostrud </tspan><tspan class="d" x="142.08" y="244.8">e</tspan><tspan class="o" x="148.05" y="244.8">x</tspan><tspan x="153.43" y="244.8">e</tspan><tspan class="p" x="159.44" y="244.8">r</tspan><tspan x="163.25" y="244.8">ci t</tspan><tspan class="q" x="177.94" y="244.8">a</tspan><tspan x="183.68" y="244.8">tion ullam</tspan><tspan class="e" x="234.32" y="244.8">c</tspan><tspan x="239.62" y="244.8">o</tspan><tspan class="n" x="246.21" y="244.8">r</tspan><tspan x="250.18" y="244.8">per suscipit lobo</tspan><tspan class="r" x="332.78" y="244.8">r</tspan><tspan class="h" x="336.99" y="244.8">tis nisl ut aliquip </tspan><tspan class="d" x="420.76" y="244.8">e</tspan><tspan x="426.74" y="244.8">x ea </tspan><tspan class="e" x="449.18" y="244.8">c</tspan><tspan x="454.48" y="244.8">ommodo </tspan><tspan class="k" x="503.57" y="244.8">c</tspan><tspan x="508.88" y="244.8">onsequ</tspan><tspan class="y" x="546.25" y="244.8">a</tspan><tspan class="m" x="551.99" y="244.8">t</tspan><tspan x="555.93" y="244.8">.</tspan><tspan class="b" x="0" y="259.2">L</tspan><tspan x="5.5" y="259.2">o</tspan><tspan class="c" x="12.08" y="259.2">r</tspan><tspan x="15.89" y="259.2">em ipsum dolor sit ame</tspan><tspan class="d" x="133.13" y="259.2">t</tspan><tspan x="137.06" y="259.2">, </tspan><tspan class="e" x="142.09" y="259.2">c</tspan><tspan x="147.39" y="259.2">onse</tspan><tspan class="f" x="171.41" y="259.2">c</tspan><tspan class="g" x="176.94" y="259.2">t</tspan><tspan x="180.84" y="259.2">etuer adipiscing eli</tspan><tspan class="d" x="275.41" y="259.2">t</tspan><tspan class="h" x="279.34" y="259.2">, sed diam nonum</tspan><tspan class="i" x="368.89" y="259.2">m</tspan><tspan x="378.74" y="259.2">y nibh euismod tincidu</tspan><tspan class="j" x="493.53" y="259.2">n</tspan><tspan x="500.14" y="259.2">t ut lao</tspan><tspan class="c" x="534.99" y="259.2">r</tspan><tspan x="538.79" y="259.2">eet dolo</tspan><tspan class="c" x="580.11" y="259.2">r</tspan><tspan x="583.91" y="259.2">e ma</tspan><tspan class="k" x="608.26" y="259.2">g</tspan><tspan x="614.9" y="259.2">na aliquam e</tspan><tspan class="l" x="679.02" y="259.2">r</tspan><tspan class="j" x="682.89" y="259.2">a</tspan><tspan x="688.62" y="259.2">t </tspan><tspan class="c" x="695.14" y="259.2">v</tspan><tspan x="700.79" y="259.2">olutp</tspan><tspan class="j" x="727.62" y="259.2">a</tspan><tspan class="m" x="733.36" y="259.2">t</tspan><tspan x="737.3" y="259.2">. </tspan><tspan class="n" x="742.32" y="259.2">U</tspan><tspan x="750.13" y="259.2">t wisi enim ad minim </tspan><tspan class="c" x="0" y="273.6">v</tspan><tspan x="5.65" y="273.6">eniam, quis nostrud </tspan><tspan class="d" x="107.24" y="273.6">e</tspan><tspan class="o" x="113.22" y="273.6">x</tspan><tspan x="118.59" y="273.6">e</tspan><tspan class="p" x="124.6" y="273.6">r</tspan><tspan x="128.41" y="273.6">ci t</tspan><tspan class="q" x="143.11" y="273.6">a</tspan><tspan x="148.84" y="273.6">tion ullam</tspan><tspan class="e" x="199.48" y="273.6">c</tspan><tspan x="204.79" y="273.6">o</tspan><tspan class="n" x="211.38" y="273.6">r</tspan><tspan x="215.35" y="273.6">per suscipit lobo</tspan><tspan class="r" x="297.94" y="273.6">r</tspan><tspan class="h" x="302.15" y="273.6">tis nisl ut aliquip </tspan><tspan class="d" x="385.92" y="273.6">e</tspan><tspan x="391.9" y="273.6">x ea </tspan><tspan class="e" x="414.34" y="273.6">c</tspan><tspan x="419.64" y="273.6">ommodo </tspan><tspan class="g" x="468.73" y="273.6">c</tspan><tspan x="474.04" y="273.6">onsequ</tspan><tspan class="j" x="511.42" y="273.6">a</tspan><tspan class="s" x="517.16" y="273.6">t</tspan><tspan x="521.09" y="273.6">. </tspan><tspan class="t" x="526.12" y="273.6">D</tspan><tspan x="534.15" y="273.6">uis au</tspan><tspan class="g" x="563.26" y="273.6">t</tspan><tspan x="567.16" y="273.6">em </tspan><tspan class="c" x="585.72" y="273.6">v</tspan><tspan x="591.37" y="273.6">el eum i</tspan><tspan class="u" x="630.74" y="273.6">r</tspan><tspan class="v" x="634.72" y="273.6">iu</tspan><tspan class="c" x="644.14" y="273.6">r</tspan><tspan x="647.94" y="273.6">e dolor in hend</tspan><tspan class="c" x="723.85" y="273.6">r</tspan><tspan x="727.65" y="273.6">e</tspan><tspan class="n" x="733.67" y="273.6">r</tspan><tspan x="737.64" y="273.6">it in vulput</tspan><tspan class="j" x="791.6" y="273.6">a</tspan><tspan class="g" x="797.34" y="273.6">t</tspan><tspan x="801.24" y="273.6">e </tspan><tspan class="c" x="809.79" y="273.6">v</tspan><tspan x="815.44" y="273.6">elit </tspan><tspan x="0" y="288">esse molestie </tspan><tspan class="e" x="69.6" y="288">c</tspan><tspan x="74.9" y="288">onsequ</tspan><tspan class="q" x="112.28" y="288">a</tspan><tspan class="d" x="118.02" y="288">t</tspan><tspan x="121.95" y="288">, </tspan><tspan class="c" x="126.98" y="288">v</tspan><tspan x="132.63" y="288">el illum dolo</tspan><tspan class="p" x="194.43" y="288">r</tspan><tspan x="198.24" y="288">e eu </tspan><tspan class="w" x="221.96" y="288">f</tspan><tspan x="225.31" y="288">eu</tspan><tspan class="g" x="237.93" y="288">g</tspan><tspan x="244.57" y="288">i</tspan><tspan class="j" x="247.37" y="288">a</tspan><tspan x="253.11" y="288">t nulla facilisis </tspan><tspan class="q" x="324.86" y="288">a</tspan><tspan x="330.59" y="288">t </tspan><tspan class="p" x="337.11" y="288">v</tspan><tspan x="342.76" y="288">e</tspan><tspan class="c" x="348.77" y="288">r</tspan><tspan x="352.58" y="288">o e</tspan><tspan class="p" x="367.72" y="288">r</tspan><tspan x="371.52" y="288">os et a</tspan><tspan class="g" x="403.72" y="288">c</tspan><tspan x="409.02" y="288">cumsan et ius</tspan><tspan class="e" x="477.46" y="288">t</tspan><tspan class="x" x="481.36" y="288">o odio di</tspan><tspan class="k" x="525.36" y="288">g</tspan><tspan x="532" y="288">nissim qui blandit p</tspan><tspan class="l" x="630.07" y="288">r</tspan><tspan x="633.94" y="288">aese</tspan><tspan class="j" x="656.5" y="288">n</tspan><tspan x="663.11" y="288">t lupt</tspan><tspan class="j" x="689.87" y="288">a</tspan><tspan x="695.6" y="288">tum zz</tspan><tspan class="n" x="729.01" y="288">r</tspan><tspan x="732.98" y="288">il delenit augue duis </tspan><tspan x="0" y="302.4">dolo</tspan><tspan class="c" x="22.78" y="302.4">r</tspan><tspan x="26.58" y="302.4">e </tspan><tspan class="e" x="35.14" y="302.4">t</tspan><tspan x="39.04" y="302.4">e </tspan><tspan class="i" x="47.59" y="302.4">f</tspan><tspan x="50.94" y="302.4">eugait nulla facilisi.</tspan><tspan class="b" x="0" y="316.8">L</tspan><tspan x="5.5" y="316.8">o</tspan><tspan class="c" x="12.08" y="316.8">r</tspan><tspan x="15.89" y="316.8">em ipsum dolor sit ame</tspan><tspan class="d" x="133.13" y="316.8">t</tspan><tspan x="137.06" y="316.8">, </tspan><tspan class="e" x="142.09" y="316.8">c</tspan><tspan x="147.39" y="316.8">ons e</tspan><tspan class="f" x="173.95" y="316.8">c</tspan><tspan class="g" x="179.48" y="316.8">t</tspan><tspan x="183.38" y="316.8">etuer adipiscing eli</tspan><tspan class="d" x="277.95" y="316.8">t</tspan><tspan class="h" x="281.89" y="316.8">, sed diam nonum</tspan><tspan class="i" x="371.43" y="316.8">m</tspan><tspan x="381.28" y="316.8">y nibh euismod tincidu</tspan><tspan class="j" x="496.07" y="316.8">n</tspan><tspan x="502.69" y="316.8">t ut lao</tspan><tspan class="c" x="537.53" y="316.8">r</tspan><tspan x="541.34" y="316.8">eet dolo</tspan><tspan class="c" x="582.65" y="316.8">r</tspan><tspan x="586.46" y="316.8">e ma</tspan><tspan class="k" x="610.8" y="316.8">g</tspan><tspan x="617.44" y="316.8">na aliquam e</tspan><tspan class="l" x="681.57" y="316.8">r</tspan><tspan class="j" x="685.43" y="316.8">a</tspan><tspan x="691.17" y="316.8">t </tspan><tspan class="c" x="697.68" y="316.8">v</tspan><tspan x="703.33" y="316.8">olutp</tspan><tspan class="j" x="730.17" y="316.8">a</tspan><tspan class="m" x="735.9" y="316.8">t</tspan><tspan x="739.84" y="316.8">. </tspan><tspan class="n" x="744.87" y="316.8">U</tspan><tspan x="752.68" y="316.8">t wisi enim ad </tspan><tspan x="0" y="331.2">minim </tspan><tspan class="c" x="34.84" y="331.2">v</tspan><tspan x="40.49" y="331.2">eniam, quis nostrud </tspan><tspan class="d" x="142.08" y="331.2">e</tspan><tspan class="o" x="148.05" y="331.2">x</tspan><tspan x="153.43" y="331.2">e</tspan><tspan class="p" x="159.44" y="331.2">r</tspan><tspan x="163.25" y="331.2">ci t</tspan><tspan class="q" x="177.94" y="331.2">a</tspan><tspan x="183.68" y="331.2">tion ullam</tspan><tspan class="e" x="234.32" y="331.2">c</tspan><tspan x="239.62" y="331.2">o</tspan><tspan class="n" x="246.21" y="331.2">r</tspan><tspan x="250.18" y="331.2">per suscipit lobo</tspan><tspan class="r" x="332.78" y="331.2">r</tspan><tspan class="h" x="336.99" y="331.2">tis nisl ut aliquip </tspan><tspan class="d" x="420.76" y="331.2">e</tspan><tspan x="426.74" y="331.2">x ea </tspan><tspan class="e" x="449.18" y="331.2">c</tspan><tspan x="454.48" y="331.2">ommodo </tspan><tspan class="k" x="503.57" y="331.2">c</tspan><tspan x="508.88" y="331.2">onsequ</tspan><tspan class="y" x="546.25" y="331.2">a</tspan><tspan class="m" x="551.99" y="331.2">t</tspan><tspan x="555.93" y="331.2">.</tspan><tspan class="b" x="0" y="345.6">L</tspan><tspan x="5.5" y="345.6">o</tspan><tspan class="c" x="12.08" y="345.6">r</tspan><tspan x="15.89" y="345.6">em ipsum dolor sit ame</tspan><tspan class="d" x="133.13" y="345.6">t</tspan><tspan x="137.06" y="345.6">, </tspan><tspan class="e" x="142.09" y="345.6">c</tspan><tspan x="147.39" y="345.6">onse</tspan><tspan class="f" x="171.41" y="345.6">c</tspan><tspan class="g" x="176.94" y="345.6">t</tspan><tspan x="180.84" y="345.6">etuer adipiscing eli</tspan><tspan class="d" x="275.41" y="345.6">t</tspan><tspan class="h" x="279.34" y="345.6">, sed diam nonum</tspan><tspan class="i" x="368.89" y="345.6">m</tspan><tspan x="378.74" y="345.6">y nibh euismod tincidu</tspan><tspan class="j" x="493.53" y="345.6">n</tspan><tspan x="500.14" y="345.6">t ut lao</tspan><tspan class="c" x="534.99" y="345.6">r</tspan><tspan x="538.79" y="345.6">eet dolo</tspan><tspan class="c" x="580.11" y="345.6">r</tspan><tspan x="583.91" y="345.6">e ma</tspan><tspan class="k" x="608.26" y="345.6">g</tspan><tspan x="614.9" y="345.6">na aliquam e</tspan><tspan class="l" x="679.02" y="345.6">r</tspan><tspan class="j" x="682.89" y="345.6">a</tspan><tspan x="688.62" y="345.6">t </tspan><tspan class="c" x="695.14" y="345.6">v</tspan><tspan x="700.79" y="345.6">olutp</tspan><tspan class="j" x="727.62" y="345.6">a</tspan><tspan class="m" x="733.36" y="345.6">t</tspan><tspan x="737.3" y="345.6">. </tspan><tspan class="n" x="742.32" y="345.6">U</tspan><tspan x="750.13" y="345.6">t wisi enim ad minim </tspan><tspan class="c" x="0" y="360">v</tspan><tspan x="5.65" y="360">eniam, quis nostrud </tspan><tspan class="d" x="107.24" y="360">e</tspan><tspan class="o" x="113.22" y="360">x</tspan><tspan x="118.59" y="360">e</tspan><tspan class="p" x="124.6" y="360">r</tspan><tspan x="128.41" y="360">ci t</tspan><tspan class="q" x="143.11" y="360">a</tspan><tspan x="148.84" y="360">tion ullam</tspan><tspan class="e" x="199.48" y="360">c</tspan><tspan x="204.79" y="360">o</tspan><tspan class="n" x="211.38" y="360">r</tspan><tspan x="215.35" y="360">per suscipit lobo</tspan><tspan class="r" x="297.94" y="360">r</tspan><tspan class="h" x="302.15" y="360">tis nisl ut aliquip </tspan><tspan class="d" x="385.92" y="360">e</tspan><tspan x="391.9" y="360">x ea </tspan><tspan class="e" x="414.34" y="360">c</tspan><tspan x="419.64" y="360">ommodo </tspan><tspan class="g" x="468.73" y="360">c</tspan><tspan x="474.04" y="360">onsequ</tspan><tspan class="j" x="511.42" y="360">a</tspan><tspan class="s" x="517.16" y="360">t</tspan><tspan x="521.09" y="360">. </tspan><tspan class="t" x="526.12" y="360">D</tspan><tspan x="534.15" y="360">uis au</tspan><tspan class="g" x="563.26" y="360">t</tspan><tspan x="567.16" y="360">em </tspan><tspan class="c" x="585.72" y="360">v</tspan><tspan x="591.37" y="360">el eum i</tspan><tspan class="u" x="630.74" y="360">r</tspan><tspan class="v" x="634.72" y="360">iu</tspan><tspan class="c" x="644.14" y="360">r</tspan><tspan x="647.94" y="360">e dolor in hend</tspan><tspan class="c" x="723.85" y="360">r</tspan><tspan x="727.65" y="360">e</tspan><tspan class="n" x="733.67" y="360">r</tspan><tspan x="737.64" y="360">it in vulput</tspan><tspan class="j" x="791.6" y="360">a</tspan><tspan class="g" x="797.34" y="360">t</tspan><tspan x="801.24" y="360">e </tspan><tspan class="c" x="809.79" y="360">v</tspan><tspan x="815.44" y="360">elit </tspan><tspan x="0" y="374.4">esse molestie </tspan><tspan class="e" x="69.6" y="374.4">c</tspan><tspan x="74.9" y="374.4">onsequ</tspan><tspan class="q" x="112.28" y="374.4">a</tspan><tspan class="d" x="118.02" y="374.4">t</tspan><tspan x="121.95" y="374.4">, </tspan><tspan class="c" x="126.98" y="374.4">v</tspan><tspan x="132.63" y="374.4">el illum dolo</tspan><tspan class="p" x="194.43" y="374.4">r</tspan><tspan x="198.24" y="374.4">e eu </tspan><tspan class="w" x="221.96" y="374.4">f</tspan><tspan x="225.31" y="374.4">eu</tspan><tspan class="g" x="237.93" y="374.4">g</tspan><tspan x="244.57" y="374.4">i</tspan><tspan class="j" x="247.37" y="374.4">a</tspan><tspan x="253.11" y="374.4">t nulla facilisis </tspan><tspan class="q" x="324.86" y="374.4">a</tspan><tspan x="330.59" y="374.4">t </tspan><tspan class="p" x="337.11" y="374.4">v</tspan><tspan x="342.76" y="374.4">e</tspan><tspan class="c" x="348.77" y="374.4">r</tspan><tspan x="352.58" y="374.4">o e</tspan><tspan class="p" x="367.72" y="374.4">r</tspan><tspan x="371.52" y="374.4">os et a</tspan><tspan class="g" x="403.72" y="374.4">c</tspan><tspan x="409.02" y="374.4">cumsan et ius</tspan><tspan class="e" x="477.46" y="374.4">t</tspan><tspan class="x" x="481.36" y="374.4">o odio di</tspan><tspan class="k" x="525.36" y="374.4">g</tspan><tspan x="532" y="374.4">nissim qui blandit p</tspan><tspan class="l" x="630.07" y="374.4">r</tspan><tspan x="633.94" y="374.4">aese</tspan><tspan class="j" x="656.5" y="374.4">n</tspan><tspan x="663.11" y="374.4">t lupt</tspan><tspan class="j" x="689.87" y="374.4">a</tspan><tspan x="695.6" y="374.4">tum zz</tspan><tspan class="n" x="729.01" y="374.4">r</tspan><tspan x="732.98" y="374.4">il delenit augue duis </tspan><tspan x="0" y="388.8">dolo</tspan><tspan class="c" x="22.78" y="388.8">r</tspan><tspan x="26.58" y="388.8">e </tspan><tspan class="e" x="35.14" y="388.8">t</tspan><tspan x="39.04" y="388.8">e </tspan><tspan class="i" x="47.59" y="388.8">f</tspan><tspan x="50.94" y="388.8">eugait nulla facilisi.</tspan><tspan class="b" x="0" y="403.2">L</tspan><tspan x="5.5" y="403.2">o</tspan><tspan class="c" x="12.08" y="403.2">r</tspan><tspan x="15.89" y="403.2">em ipsum dolor sit ame</tspan><tspan class="d" x="133.13" y="403.2">t</tspan><tspan x="137.06" y="403.2">, </tspan><tspan class="e" x="142.09" y="403.2">c</tspan><tspan x="147.39" y="403.2">ons e</tspan><tspan class="f" x="173.95" y="403.2">c</tspan><tspan class="g" x="179.48" y="403.2">t</tspan><tspan x="183.38" y="403.2">etuer adipiscing eli</tspan><tspan class="d" x="277.95" y="403.2">t</tspan><tspan class="h" x="281.89" y="403.2">, sed diam nonum</tspan><tspan class="i" x="371.43" y="403.2">m</tspan><tspan x="381.28" y="403.2">y nibh euismod tincidu</tspan><tspan class="j" x="496.07" y="403.2">n</tspan><tspan x="502.69" y="403.2">t ut lao</tspan><tspan class="c" x="537.53" y="403.2">r</tspan><tspan x="541.34" y="403.2">eet dolo</tspan><tspan class="c" x="582.65" y="403.2">r</tspan><tspan x="586.46" y="403.2">e ma</tspan><tspan class="k" x="610.8" y="403.2">g</tspan><tspan x="617.44" y="403.2">na aliquam e</tspan><tspan class="l" x="681.57" y="403.2">r</tspan><tspan class="j" x="685.43" y="403.2">a</tspan><tspan x="691.17" y="403.2">t </tspan><tspan class="c" x="697.68" y="403.2">v</tspan><tspan x="703.33" y="403.2">olutp</tspan><tspan class="j" x="730.17" y="403.2">a</tspan><tspan class="m" x="735.9" y="403.2">t</tspan><tspan x="739.84" y="403.2">. </tspan><tspan class="n" x="744.87" y="403.2">U</tspan><tspan x="752.68" y="403.2">t wisi enim ad </tspan><tspan x="0" y="417.6">minim </tspan><tspan class="c" x="34.84" y="417.6">v</tspan><tspan x="40.49" y="417.6">eniam, quis nostrud </tspan><tspan class="d" x="142.08" y="417.6">e</tspan><tspan class="o" x="148.05" y="417.6">x</tspan><tspan x="153.43" y="417.6">e</tspan><tspan class="p" x="159.44" y="417.6">r</tspan><tspan x="163.25" y="417.6">ci t</tspan><tspan class="q" x="177.94" y="417.6">a</tspan><tspan x="183.68" y="417.6">tion ullam</tspan><tspan class="e" x="234.32" y="417.6">c</tspan><tspan x="239.62" y="417.6">o</tspan><tspan class="n" x="246.21" y="417.6">r</tspan><tspan x="250.18" y="417.6">per suscipit lobo</tspan><tspan class="r" x="332.78" y="417.6">r</tspan><tspan class="h" x="336.99" y="417.6">tis nisl ut aliquip </tspan><tspan class="d" x="420.76" y="417.6">e</tspan><tspan x="426.74" y="417.6">x ea </tspan><tspan class="e" x="449.18" y="417.6">c</tspan><tspan x="454.48" y="417.6">ommodo </tspan><tspan class="k" x="503.57" y="417.6">c</tspan><tspan x="508.88" y="417.6">onsequ</tspan><tspan class="y" x="546.25" y="417.6">a</tspan><tspan class="m" x="551.99" y="417.6">t</tspan><tspan x="555.93" y="417.6">.</tspan><tspan class="b" x="0" y="432">L</tspan><tspan x="5.5" y="432">o</tspan><tspan class="c" x="12.08" y="432">r</tspan><tspan x="15.89" y="432">em ipsum dolor sit ame</tspan><tspan class="d" x="133.13" y="432">t</tspan><tspan x="137.06" y="432">, </tspan><tspan class="e" x="142.09" y="432">c</tspan><tspan x="147.39" y="432">onse</tspan><tspan class="f" x="171.41" y="432">c</tspan><tspan class="g" x="176.94" y="432">t</tspan><tspan x="180.84" y="432">etuer adipiscing eli</tspan><tspan class="d" x="275.41" y="432">t</tspan><tspan class="h" x="279.34" y="432">, sed diam nonum</tspan><tspan class="i" x="368.89" y="432">m</tspan><tspan x="378.74" y="432">y nibh euismod tincidu</tspan><tspan class="j" x="493.53" y="432">n</tspan><tspan x="500.14" y="432">t ut lao</tspan><tspan class="c" x="534.99" y="432">r</tspan><tspan x="538.79" y="432">eet dolo</tspan><tspan class="c" x="580.11" y="432">r</tspan><tspan x="583.91" y="432">e ma</tspan><tspan class="k" x="608.26" y="432">g</tspan><tspan x="614.9" y="432">na aliquam e</tspan><tspan class="l" x="679.02" y="432">r</tspan><tspan class="j" x="682.89" y="432">a</tspan><tspan x="688.62" y="432">t </tspan><tspan class="c" x="695.14" y="432">v</tspan><tspan x="700.79" y="432">olutp</tspan><tspan class="j" x="727.62" y="432">a</tspan><tspan class="m" x="733.36" y="432">t</tspan><tspan x="737.3" y="432">. </tspan><tspan class="n" x="742.32" y="432">U</tspan><tspan x="750.13" y="432">t wisi enim ad minim </tspan><tspan class="c" x="0" y="446.4">v</tspan><tspan x="5.65" y="446.4">eniam, quis nostrud </tspan><tspan class="d" x="107.24" y="446.4">e</tspan><tspan class="o" x="113.22" y="446.4">x</tspan><tspan x="118.59" y="446.4">e</tspan><tspan class="p" x="124.6" y="446.4">r</tspan><tspan x="128.41" y="446.4">ci t</tspan><tspan class="q" x="143.11" y="446.4">a</tspan><tspan x="148.84" y="446.4">tion ullam</tspan><tspan class="e" x="199.48" y="446.4">c</tspan><tspan x="204.79" y="446.4">o</tspan><tspan class="n" x="211.38" y="446.4">r</tspan><tspan x="215.35" y="446.4">per suscipit lobo</tspan><tspan class="r" x="297.94" y="446.4">r</tspan><tspan class="h" x="302.15" y="446.4">tis nisl ut aliquip </tspan><tspan class="d" x="385.92" y="446.4">e</tspan><tspan x="391.9" y="446.4">x ea </tspan><tspan class="e" x="414.34" y="446.4">c</tspan><tspan x="419.64" y="446.4">ommodo </tspan><tspan class="g" x="468.73" y="446.4">c</tspan><tspan x="474.04" y="446.4">onsequ</tspan><tspan class="j" x="511.42" y="446.4">a</tspan><tspan class="s" x="517.16" y="446.4">t</tspan><tspan x="521.09" y="446.4">. </tspan><tspan class="t" x="526.12" y="446.4">D</tspan><tspan x="534.15" y="446.4">uis au</tspan><tspan class="g" x="563.26" y="446.4">t</tspan><tspan x="567.16" y="446.4">em </tspan><tspan class="c" x="585.72" y="446.4">v</tspan><tspan x="591.37" y="446.4">el eum i</tspan><tspan class="u" x="630.74" y="446.4">r</tspan><tspan class="v" x="634.72" y="446.4">iu</tspan><tspan class="c" x="644.14" y="446.4">r</tspan><tspan x="647.94" y="446.4">e dolor in hend</tspan><tspan class="c" x="723.85" y="446.4">r</tspan><tspan x="727.65" y="446.4">e</tspan><tspan class="n" x="733.67" y="446.4">r</tspan><tspan x="737.64" y="446.4">it in vulput</tspan><tspan class="j" x="791.6" y="446.4">a</tspan><tspan class="g" x="797.34" y="446.4">t</tspan><tspan x="801.24" y="446.4">e </tspan><tspan class="c" x="809.79" y="446.4">v</tspan><tspan x="815.44" y="446.4">elit </tspan></text></svg>