<?xml version="1.0" encoding="utf-8"?>
<!-- Generator: Adobe Illustrator 21.0.0, SVG Export Plug-In . SVG Version: 6.00 Build 0)  -->
<svg version="1.1" id="Layer_1" xmlns="http://www.w3.org/2000/svg" xmlns:xlink="http://www.w3.org/1999/xlink" x="0px" y="0px"
	 viewBox="0 0 437.7 170.6" style="enable-background:new 0 0 437.7 170.6;" xml:space="preserve">
<style type="text/css">
	.st0{fill:#DEDDDE;}
	.st1{fill:#B5142F;}
	.st2{fill:#254AA5;}
	.st3{fill:#9D1128;}
	.st4{fill:#A70625;}
</style>
<title>logo</title>
<g>
	<g>
		<path d="M149.2,48.9c4.1-0.7,8.3-1,12.5-1c6.4,0,11.2,1.5,14.1,4.2c3,2.7,4.6,6.6,4.4,10.6c0,4.6-1.4,8.2-3.9,10.8
			c-3.4,3.7-9.1,5.5-15.4,5.5c-1.8,0.1-3.5-0.1-5.2-0.4v20.2h-6.5V48.9z M155.7,73.3c1.8,0.4,3.6,0.6,5.4,0.5
			c7.9,0,12.7-3.8,12.7-10.8c0-6.7-4.7-9.9-11.9-9.9c-2.1-0.1-4.1,0.1-6.1,0.5V73.3z"/>
		<path d="M188.4,45.6h6.6v53.2h-6.6V45.6z"/>
		<path d="M226.2,98.8l-0.5-4.6h-0.2c-2.6,3.5-6.8,5.5-11.1,5.4c-7.3,0-11.1-5.2-11.1-10.4c0-8.8,7.8-13.6,21.8-13.5V75
			c0-3-0.8-8.4-8.2-8.4c-3.3,0-6.6,0.9-9.4,2.7l-1.5-4.3c3.6-2.2,7.7-3.3,11.9-3.2c11.1,0,13.8,7.6,13.8,14.8v13.6
			c0,2.9,0.2,5.8,0.6,8.7L226.2,98.8z M225.2,80.3c-7.2-0.2-15.3,1.1-15.3,8.2c0,4.3,2.8,6.3,6.2,6.3c3.9,0.1,7.5-2.3,8.8-6.1
			c0.2-0.7,0.4-1.4,0.4-2.1V80.3z"/>
		<path d="M242.2,72.4c0-3.7-0.1-6.8-0.3-9.8h5.8l0.4,6h0.1c2.4-4.3,7-6.9,12-6.8c5,0,12.8,3,12.8,15.4v21.6h-6.6V77.9
			c0-5.8-2.2-10.7-8.4-10.7c-4.1,0.1-7.7,2.8-8.8,6.7c-0.3,1-0.5,2-0.4,3.1v21.8h-6.6V72.4z"/>
		<path d="M287.4,81.9c0.1,8.9,5.8,12.6,12.4,12.6c3.4,0.1,6.8-0.5,10-1.9l1.1,4.7c-3.8,1.6-7.9,2.4-12.1,2.2
			c-11.2,0-17.8-7.3-17.8-18.3s6.4-19.5,17-19.5c11.8,0,15,10.4,15,17.1c0,1-0.1,2.1-0.2,3.1L287.4,81.9z M306.7,77.2
			c0.1-4.2-1.7-10.7-9.1-10.7c-6.7,0-9.6,6.1-10.1,10.7H306.7z"/>
		<path d="M329.2,52.2v10.4h9.4v5h-9.4v19.6c0,4.5,1.3,7,4.9,7c1.3,0,2.6-0.1,3.8-0.5l0.2,5c-1.9,0.7-3.9,1-5.8,0.9
			c-2.7,0.2-5.3-0.9-7.1-2.8c-1.9-2-2.5-5.2-2.5-9.4V67.6H317v-5h5.6v-8.7L329.2,52.2z"/>
		<path d="M366.1,98.8l-0.5-4.6h-0.2c-2.6,3.5-6.7,5.5-11.1,5.4c-7.3,0-11.1-5.2-11.1-10.4c0-8.8,7.8-13.5,21.8-13.5V75
			c0-3-0.8-8.4-8.2-8.4c-3.3,0-6.6,0.9-9.4,2.7l-1.5-4.3c3.6-2.2,7.7-3.3,11.9-3.2c11.1,0,13.8,7.6,13.8,14.8v13.5
			c0,2.9,0.2,5.8,0.6,8.7L366.1,98.8z M365.1,80.3c-7.2-0.2-15.4,1.1-15.4,8.2c0,4.3,2.9,6.3,6.2,6.3c3.9,0.1,7.5-2.3,8.8-6.1
			c0.2-0.7,0.4-1.4,0.4-2.1L365.1,80.3z"/>
		<path d="M382.1,73.9c0-4.3-0.1-7.9-0.3-11.3h5.8l0.2,7.1h0.3c1.6-4.9,5.6-7.9,10-7.9c0.6,0,1.3,0.1,1.9,0.2v6.2
			c-0.7-0.2-1.5-0.2-2.2-0.2c-4.6,0-7.9,3.5-8.8,8.5c-0.2,1-0.3,2-0.3,3.1v19.4H382L382.1,73.9z"/>
		<path d="M410.8,62.6l7.9,21.4c0.8,2.4,1.7,5.2,2.3,7.4h0.1c0.7-2.2,1.4-4.9,2.3-7.6l7.2-21.3h7l-9.9,25.8
			c-4.7,12.4-7.9,18.8-12.4,22.7c-2.3,2.1-5.1,3.6-8.1,4.3l-1.6-5.5c2.1-0.7,4.1-1.8,5.8-3.2c2.4-2,4.3-4.5,5.5-7.3
			c0.3-0.5,0.4-1,0.5-1.6c-0.1-0.6-0.2-1.2-0.5-1.7l-13.4-33.4L410.8,62.6z"/>
	</g>
</g>
<g id="layer1">
	<path id="path11406" class="st0" d="M61.7,0.1c20-0.8,36.2,7.3,46.6,17.4c10.8,10.4,19.2,24.6,20.3,43.9
		c0.6,10.4-1.7,19.4-4.9,27.2c-3.2,7.7-7.2,14.4-12.4,19.6c-10.8,11-24.4,19.4-44.4,20.3c-19.6,0.8-35.9-7-46.6-17.4
		c-5.5-5.2-9.9-11.3-13.6-18.5C2.9,85.4,0.3,77,0,67.2c-0.6-20.6,7-35.9,17.1-46.9C24.7,12,34.8,5.9,47.6,2.1
		C51.9,1,56.5,0.3,61.7,0.1z M17.4,21.2C12.5,26.7,8.2,33.1,5,40.6c-0.6,2-1.1,4-1.7,6.1c-0.6,2-1.5,4.3-1.8,6.3
		c-3.8,25.5,5.8,45.1,19.7,57.9c10.4,9.5,26.1,18,46,16.8c20-1.1,33-9.2,43.4-19.9c2.6-2.6,5.2-5.5,7.3-8.7
		c6.1-9.8,10.4-22,9.9-37.6c-0.6-9.8-2.9-17.6-6.7-25.1c-1.7-3.7-3.5-7-5.8-10.1c-2.3-2.9-4.6-5.8-7.5-8.4C96.8,7.9,81.7-0.2,60.9,1
		C40.6,2.4,27.6,10.2,17.4,21.2"/>
	<path id="path11410" class="st0" d="M84.6,5.3c-12.7,0.9-26.1,0-39.9,0C56.2,1,73,1.3,84.6,5.3"/>
	<path id="path11414" class="st0" d="M44.4,5.9C27.8,11.4,16.3,22.1,9,36.8c0,0.3,0.8-0.3,1.1,0c0,0.8,0.3,1.8-0.6,1.8
		c-0.6,0,0-1.5-0.8-1.5c-2,3.2-3.2,7.3-4.4,11.6c1.1,0.8,2.9,0.8,4.4,1.1c0-1.1-0.9-1.5-1.2-2.3c0.6-0.6,1.2-0.8,2-1.4
		c1.5,0.8,4.1,1.4,6.1,1.1c-0.3,1.5,0.4,2.6,1.2,3.5c-0.8,0.6-2,1.5-2.9,2c-2.3-0.8-5.2-1.4-8.1-1.4c-0.4-0.9-0.6-1.8-1.5-1.8
		c-0.8,1.1-0.8,2.9-1.1,4.4c-0.4,1.7-0.6,3.5-0.9,5.1c-1.4,22,7.3,37.3,17.7,48.7c1.2-0.9,2.3-1.8,3.2-3.2c-0.3-0.6-1.7,0-2.6-0.4
		c0-0.8,0-1.4,0-2c2-1.2,2.9-2.3,4.4-4.1c1.1,0,2.6,0,3.5,0c0,1.2,0.3,2,0.6,3.2c-2.3,2-4.6,3.8-6.1,7c-0.6-0.3-1.1-0.6-2.3-0.6
		c0.6,1.4,2,2.6,3.2,3.5c8.4,7.5,19.9,12.7,33.6,14.8c-15.1-1.5-26.7-8.1-35.9-16.3c-7-6.3-12.2-14.7-16-24
		c-1.1-3.5-2.3-7.5-3.2-11.5c-2.9-17.3,2.9-32.7,9-43.1c5.8-7.5,12.1-15.6,21.1-20.6c1.5-0.8,3.2-1.7,4.9-2.3
		C39.7,7,41.1,5.9,44.4,5.9z M8.8,48.4c0.3,2.6,5.5,3.2,6.6,1.2C13.7,48.7,10.8,47.8,8.8,48.4z M22.4,103.1c0,0.8,0.8,0.8,1.5,0.8
		c1.1-0.8,2.3-2,3.2-3.2c0-0.6,0-1.1-0.3-1.8C25,100.2,23.8,101.6,22.4,103.1"/>
	<path id="path11418" class="st0" d="M47.6,5.9c11,0.6,25.2-0.4,34.7,0.6C81.7,7.3,79.9,7,79.1,7C67.8,7,60,7.3,49.2,6.7
		c-0.6,0-2,0.3-2.3-0.6C47.3,5.9,47.3,5.9,47.6,5.9"/>
	<path id="path11422" class="st0" d="M85.2,6.2c3.5,0.3,6.1,1.7,8.7,3.2c3.2,1.4,6.3,3.7,8.9,6.1c13,9.9,22.6,25.2,24.1,45.7
		c0.8,15.9-4.6,29.5-11.6,39.4c-3.7,5.2-7.3,9.2-12.2,13c-1.7,1.1-3.5,2.3-5.2,3.2c-4,2.6-7.8,4.9-12.7,6.7
		c-4.6,1.7-9.5,2.9-15.3,3.2c1.2-0.9,3-0.6,4.4-0.9c4.1-0.8,8.4-2,12.2-3.5c-0.3-0.8-0.6-1.8-0.8-2.6c-0.6,0-0.9,0-0.9,0.3
		c-0.6,0-0.8,0.3-0.8,0c-0.3-1.1,0.8-0.8,0.8-1.7c-0.8-2.3-0.8-5.2-2.9-6.1c0-0.8,0.3-1.1,0.3-1.7c0.6,0.3,1.2,0.6,2.3,0.6
		c0.3,3.2,1.5,5.8,2.9,8.1c-0.3,1.1-0.8,1.8-0.6,2.9c6.1-2,11.9-5.5,16.8-9.2c5.5-4.6,11-10.7,15-17.4c4.6-8.4,8.4-20.6,7.8-33
		c-0.6-18.2-8.9-33.3-19.6-43.1c-0.3,0.3,0.3,1.1-0.3,1.1c0,0-0.3,0-0.6,0c-0.6,0-0.8,0-0.8-0.3c-0.3-0.8,0-0.8,0.6-0.8
		c0.3,0,0.6,0,0.9-0.4C100.5,13.7,93.9,8.8,85.2,6.2"/>
	<path id="path14937" class="st1" d="M112.4,103.1v4.9h18.8v-4.9H112.4z"/>
	<path id="path11426" class="st0" d="M49,7.3h0.3c0.4,3.5,0.6,6.7,0.4,10.7c-1.2-0.3-0.9-1.8-0.9-2.6c0-2.3,0-5.5,0-7.5
		C48.7,7.6,49,7.6,49,7.3"/>
	<path id="path11430" class="st0" d="M91.8,10.2c-0.8,0.6-1.8,0.8-2.3,2c0.3,0.8,1.2,1.8,1.5,2.6c0.6,3.7-2.6,3.7-4.6,4.9
		c-0.8-0.3-0.8-1.5-1.5-1.8c-0.6-0.6-0.6,0.6-1.1,0.6c-1.2-0.3-2.3-1.4-1.8-3.2c1.2-0.6,2.3-0.3,3.2,0.6c0-0.3,0-0.3,0.4-0.3
		c-0.6-1.7-3.5-2.9-2-5.2c0.8,1.2,2,2.3,3.2,3.5c1.1-1.8-4.1-3-2-6.1C87.8,6.2,90.1,8.8,91.8,10.2z M85.5,8.2
		c0.3,1.5,3.5,4.6,4.3,2.9C89.2,9.4,87.8,7.9,85.5,8.2z M89.2,18c0.6-2-0.8-4.9-2-3.5c0.9,0.3,1.5,2,0.6,2.9c-0.8-0.3-0.8-1.5-2-1.8
		c0,0.3,0,0.3-0.3,0.6c0.6,0.9,1.1,1.8,2,2.6C88.1,18.6,89,18.3,89.2,18z M82.6,16.3c-0.8,0.6,0,1.8,0.9,2c0.3-0.6,0.6-0.8,0.8-1.1
		C83.7,16.9,83.2,16.3,82.6,16.3"/>
	<path id="path11434" class="st0" d="M58.8,7.6c0.6,2.6,0.6,7.5,0,10.4c-0.8-0.3-0.6-1.8-0.6-2.3c0-2.3,0-5.5,0-7.8V7.6
		C58.5,7.6,58.5,7.6,58.8,7.6"/>
	<path id="path11438" class="st0" d="M65.2,7.6C64.9,9.6,69,8.8,69,11c-0.3,0.6-1.1,0.9-1.8,0.6c0.4-0.9,0.9-0.6,1.2-0.6
		c-1.5-1.1-5.8-1.1-7.3,0c0,0.4,0.6-0.3,0.6,0.4c-0.3,0.6-0.8-0.4-1.4,0c0.3-1.8,2.3-2,3.7-2.6c0-0.6-0.3-0.6-0.3-1.2
		C64,7.3,64.6,7.6,65.2,7.6"/>
	<path id="path11442" class="st0" d="M70.7,7.6c0.8,2.9,0.8,7.8,0.3,10.7c-0.8-0.8-0.6-2.6-0.6-3.7c0-2.3,0-4.4,0-6.7
		c0-0.3,0-0.3,0-0.3C70.7,7.6,70.7,7.6,70.7,7.6"/>
	<path id="path11446" class="st0" d="M69.5,7.6c0.3,3.2,0.9,7.8,0.3,10.4C69.8,14.3,69.8,11,69.5,7.6"/>
	<path id="path11450" class="st0" d="M71.6,7.6c0.6,2.3,0.3,7,0.3,10.1C71.3,15.1,71.8,11,71.6,7.6"/>
	<path id="path11454" class="st0" d="M79.9,7.6h0.4c0.3,3.2,0.6,7,0.3,10.7c-1.2-0.6-0.6-2.9-0.6-4.3c-0.3-2-0.3-4.1-0.3-5.8
		C79.7,7.9,79.9,7.9,79.9,7.6"/>
	<path id="path11458" class="st0" d="M57.4,7.9c0.8,2.9,0.3,6.1,0.3,9.9C57.1,15.1,57.7,11,57.4,7.9"/>
	<path id="path11462" class="st0" d="M59.4,7.9c0.4,0,0.4,0,0.4,0c0,3.8,0.3,6.1-0.4,9.6C59.7,14.3,59.4,11,59.4,7.9"/>
	<path id="path11466" class="st0" d="M79.1,7.9c0.3,2.3,0.3,7,0.3,10.1C78.5,15.1,79.1,11,79.1,7.9"/>
	<path id="path11470" class="st0" d="M81.1,7.9c0.3,2.9,0.3,7.5,0.3,10.1C80.9,15.1,81.1,12,81.1,7.9"/>
	<path id="path11474" class="st0" d="M39.5,8.8c0,0.6-0.6,1.7-1.5,1.1C38.3,9.4,38.5,8.2,39.5,8.8"/>
	<path id="path11478" class="st0" d="M47.3,10.2c-0.6,0.8-1.2,1.8-1.5,2.6c0-0.8,0-1.4,0.6-1.8c-0.6-0.6-1.1-0.8-2-1.1
		c0,2,0.8,4.4,1.7,6.1c0.3,0,0.6,0.3,0.9,0.3c0,0.6-0.6,0.9-0.6,1.8c-0.6-0.6-1.4-0.8-2-0.8c0.3-2.3-0.9-4.1-1.5-5.8
		c0.6-0.9,1.1-2,1.5-3C45.8,8.8,46.4,9.6,47.3,10.2"/>
	<path id="path11482" class="st0" d="M56.8,11c-0.3,0.4-0.3-0.6-0.8-0.6c-1.4,0-2.9-0.3-4.1,0.3c-0.6,0-0.8,0.9-1.1,0.6
		C51.3,8.8,56.5,7.9,56.8,11"/>
	<path id="path11486" class="st0" d="M51.6,11.4c0.3-0.4,0.3,0.3,0.3,0.6C51.3,12,51.3,11.4,51.6,11.4"/>
	<path id="path11490" class="st0" d="M38,12.8c0.8,2.6,4.4,4.9,2,8.4c-0.8,0-1.8-0.3-2.9-0.3c-1.2-1.4-2-3.2-3.2-4.3
		c0-1.2,0.3-2,0.3-3c0-0.6-0.9-0.6-1.8-0.6c0-0.8,0.3-1.1,0.3-1.7C34.5,12,36.2,12.2,38,12.8z M35.1,14c0.8,2.3,2,4.3,3.7,5.8
		C39.2,17.7,37.1,13.7,35.1,14"/>
	<path id="path11494" class="st0" d="M95.6,11.7c0,0.3,0,0.6,0,0.8c-0.3,0-0.8,0.3-1.7,0.3c0-0.6,0-0.6,0-0.8
		C94.5,11.7,95,11.4,95.6,11.7"/>
	<path id="path11498" class="st0" d="M45.8,12.8c0.3,0.3,0,1.2,0.6,1.8c0.6,0,0.3-0.6,0.9-0.3C47,14.6,47,14.6,47,14.8
		C46.1,14.8,45.5,13.7,45.8,12.8"/>
	<path id="path11502" class="st0" d="M64,17.5c-1.1-0.8-1.1-2.6-2.9-3.2C62.6,12.5,64.3,16,64,17.5"/>
	<path id="path11506" class="st0" d="M68.4,14c-0.3,0.6-1.2,0.6-1.2,1.4c0.4,0.6,0.6-0.6,1.2-0.6c0.8,0.6,0.8,2.3,0.6,3.5
		c-0.6,0-1.4,0-2,0c0.3-0.8,0.6-1.1,0.9-1.4c-0.6-0.9-0.9,0.8-1.2,1.4c-1.4,0-1.1-2.3,0.3-2.3c-0.6-0.3-1.4,0.3-1.7,0.9
		c-0.6,0-0.6-0.6-0.9-1.2C66.4,15.7,66.4,12.8,68.4,14"/>
	<path id="path11510" class="st0" d="M94.5,14c1.8,3.7-3.2,4.3-2.6,8.1c-0.6,0-0.8,0.3-1.8,0c0-0.9-0.3-1.5-0.6-2
		c1.8-1.2,4.1-3.2,3.2-5.5C93,14,93.9,14,94.5,14"/>
	<path id="path11514" class="st0" d="M78.5,14.3c-0.3,1.4-2.3,1.1-2.3,2.6c-0.8,0.3-1.5,1.1-2.3,1.4c-0.3-0.8,0.6-0.6,0.6-1.1
		c-0.3-1.2-1.7-1.2-2-2.3c1.2-0.6,1.8,1.1,2.3,2C76.5,16.6,75.9,13.4,78.5,14.3"/>
	<path id="path11518" class="st0" d="M51,14.6c1.5,0.3,2.3,1.4,2.6,3.2c-0.8-0.8-1.1-2-2.6-2.3C51,15.1,50.7,14.6,51,14.6"/>
	<path id="path11522" class="st0" d="M56.8,14.8c-0.3,1.1-1.7,1.4-2,2.6C54.5,16.3,55.4,14.8,56.8,14.8"/>
	<path id="path11526" class="st0" d="M63.5,18c0,0-0.6,0-1.1,0c-0.4-0.3-0.4-0.8-0.9-1.1c0,0.6,0.6,0.8,0,1.1c-0.3,0-0.6,0-0.8,0
		c-0.6-1.8,0.3-2.9,1.4-3.2C62.3,16.3,63.8,16.3,63.5,18"/>
	<path id="path11530" class="st0" d="M78.3,15.4c0.6,0.8-1.2,1.8-1.2,2.9c-0.6,0-1.7,0.3-2,0c0-0.8,0.6-0.6,1.2-0.8
		C76.8,16.6,77.1,15.7,78.3,15.4"/>
	<path id="path11534" class="st0" d="M31.9,16.3c0.8,2,2,3.8,3.5,5.2c0.6,0.3,0.6-0.3,0.8,0c0,0.9,0.4,1.5,0,2
		c-0.8,0-1.4-0.3-2.3-0.6c-0.4,0.6,0,1.8,0,2.3c-1.2,0.3-1.8,0-3,0c-0.6-2-2.3-3.2-3.5-4.6c-0.6,0-0.6,0.3-1.1,0
		c0.3-0.6,0-1.8,0.3-2.3c0.8,0,1.1,0.6,2,0.3c0.9,2,2.3,3.2,3.2,4.9c0.6,0,1.1,0.3,1.4,0c0.6-2.6-1.7-3.5-2.6-5.5
		c-0.3,0-0.3,0.3-0.8,0.3C29.9,16.3,30.4,15.1,31.9,16.3"/>
	<path id="path11538" class="st0" d="M56.8,16c0,0.6,0,1.2,0,1.8c-0.3,0.3-1.1,0.3-1.4,0C55.4,16.9,55.9,16.3,56.8,16"/>
	<path id="path11542" class="st0" d="M51,16.3c1.2-0.3,1.2,0.9,1.8,1.5c-0.3,0.3-1.2,0-1.5,0.3C51,17.5,50.7,16.6,51,16.3"/>
	<path id="path11546" class="st0" d="M72.8,16.3c1.4,0,1.1,1.8,0.3,2C72.4,18,72.4,16.6,72.8,16.3"/>
	<path id="path11550" class="st0" d="M78.5,17.2c-0.3,0.3,0,0.6-0.3,1.1c-0.3,0-0.3,0-0.6,0C77.7,17.7,78,17.2,78.5,17.2"/>
	<path id="path11554" class="st0" d="M96.2,17.2c1.4,0.3,2.9,0,4,0c0.6,1.4,0.6,3.5,1.2,4.6c-0.3,0.6-0.3-0.3-0.9-0.3
		c-0.6,0.6-1.1,1.2-0.8,2.3c-0.6-0.6-0.8,0-1.5,0c0,0.9,0,1.8-0.3,2.3c-1.1,1.2-3.5,0.8-4.6,0c-1.2-0.8-0.9-2.3-2-2.6
		c0.6-0.3,1.7,0,2.3-0.3c0.3-0.8,0-1.5,0-2.3C94.5,19.8,95.9,18.9,96.2,17.2z M95.6,22.9c2.6,0,4.4-2.9,3-4.9
		C97.3,19.5,94.7,20.3,95.6,22.9z M93.6,23.8c-0.6,3.2,4,3.2,2.9,0C95.9,23.2,94.2,23.5,93.6,23.8"/>
	<path id="path11558" class="st0" d="M65.5,18.6c-0.6,0-0.9-0.3-1.2-0.6C64.6,16.9,66.1,17.7,65.5,18.6"/>
	<path id="path11562" class="st0" d="M63.2,18.9c0,0.9-1.2,0.6-1.8,0.6c-3.5,0-7.8,0-11-0.3c-1.2,0-2.6,0.6-3.8-0.4
		c0-0.3,0.4-0.6,0.6-0.6c4.6,0.3,9.2-0.3,14.4,0.3C62.3,18.6,63.5,18,63.2,18.9"/>
	<path id="path11566" class="st0" d="M63.8,18.3c0.8,0.3,1.5,0.6,2,0.9c0,1.1-1.8,0-2-0.4C63.8,18.6,63.8,18.6,63.8,18.3"/>
	<path id="path11570" class="st0" d="M82.3,18.9c0,1.5-2,0.9-3.2,0.9c-3.7,0-9.3,0.3-12.7,0c0-0.3-0.3-1.2,0-1.2
		C72.1,18.9,76.8,18.3,82.3,18.9"/>
	<path id="path11574" class="st0" d="M66.1,20.3c0,0.3,0,0.6,0,0.8c-1.1-0.3-2.6-0.3-2.6-1.7C64.3,19.5,65.2,20.1,66.1,20.3"/>
	<path id="path11578" class="st0" d="M83.7,20.3c-0.6,0.6-2.3,0.3-2.6,0.3C82,20.3,82.9,20.3,83.7,20.3"/>
	<path id="path11582" class="st0" d="M62.6,20.9c-0.3,1.5-2.3,0.8-3.5,0.6c-4.6,0-10.4,0.6-15.6,0c-0.3-0.8,0.3-0.6,0.9-0.6
		c2-0.6,5.8-0.3,8.9-0.3C56.8,20.6,60.3,20.6,62.6,20.9"/>
	<path id="path11586" class="st0" d="M63.2,20.6c0.8,0.6,2.3,0.3,2.9,1.1C65.2,22.7,62.6,22.4,63.2,20.6"/>
	<path id="path11590" class="st0" d="M85.5,21.5c-0.6,0.9-1.8,0.6-2.3,0.6c-5.2,0-12.2,0-16.8-0.6c0,0,0,0,0-0.3c0,0,0,0,0.3-0.3
		c4.6,0.3,9,0.3,14.2,0.3C82.3,21.2,84,20.9,85.5,21.5"/>
	<path id="path11594" class="st0" d="M104.9,21.2c-0.3,0.9,0,1.8,0,2.6c-2,1.5-3.7,2.3-4.4,4.9c-0.6,0.3-1.1,0-1.7,0
		c0-0.8,0-1.4,0-2.3c2-0.8,4-2.6,4-5.2C103.7,21.5,104,21.2,104.9,21.2"/>
	<path id="path11598" class="st0" d="M23.2,21.5c0.9,0.3,1.8,0.9,3.2,0.6c1.1,1.7,1.7,3.7,4,4c0.3,0.3,0.3,1.5,0,1.8
		c-0.3,0-1.1-0.3-1.4,0c-0.4,0.6,0,1.4-0.4,2c-2.3,1.1-2.9-1.2-4.6-1.8c0-0.6,0.3-0.6,0.3-1.2c-0.9,0.4-1.8,0-2.3-0.3
		C20.6,24.7,22.6,23.2,23.2,21.5z M22.9,25.8c0.3,0.3,1.2,0.3,1.8,0C27.3,22.9,20.6,22.1,22.9,25.8z M25,26.4c0.8,0.9,1.5,2.9,3.5,2
		c0-2.3-1.7-2.9-2.9-4.4C25.5,25,25.2,25.8,25,26.4"/>
	<path id="path11602" class="st0" d="M45.2,22.4c-3.2,2.9-6.4,5.2-9.9,7.5c-0.3,0.6-0.6,1.1-1.4,0.8c3.2-3.2,6.9-5.5,10.4-8.4
		C44.7,22.4,45,22.4,45.2,22.4"/>
	<path id="path11606" class="st0" d="M82.9,22.4c1.4,0,2.6,1.4,3.7,2.3c2,1.7,3.5,3.2,5.2,4.9c1.1,0.6,2.3,1.2,2.6,2.3
		c-2.3-0.8-4.1-2.9-6.1-4.6C86.6,25.8,84.6,24.4,82.9,22.4"/>
	<path id="path11610" class="st0" d="M69.8,28.2c0.4-3.2,2.3-5.5,6.1-4.9c0.6,0.8,1.1,1.5,0.8,2.6C76.2,28.4,71,25.8,69.8,28.2z
		 M75,26.7c3.2-0.8-0.6-4.9-1.1-1.4c-0.6,0-0.6-0.6-1.5-0.6c-0.6,0.6-1.7,1.1-1.4,2C71.8,25.5,73.9,27,75,26.7"/>
	<path id="path11614" class="st0" d="M59.4,29.3c-0.8-0.6-1.1-1.7-2.9-2c-1.4-0.4-2.9,0.3-3.5-1.2c-0.6-1.1,0.6-2.3,1.8-2.6
		C57.7,22.9,60,26.1,59.4,29.3z M53.6,25.3c-0.3,2,2.9,1.1,4.4,2c0.8,0.3,0.6,0.8,1.1,0.8c0-1.8-1.4-3.5-3.2-2.3
		c0-0.3,0.3-0.8,0-1.5C55.1,23.8,53.6,24.1,53.6,25.3"/>
	<path id="path11618" class="st0" d="M107.8,23.5c0.9,0.3,1.8,0.3,2.6,0.3c-2,2.3-4.9,3.8-6.9,6.4c0,0.6,0.3,0.6,0.3,1.1
		c-0.6,0.3-1.5,0.3-2.3,0.3c0.6-0.6-0.3-1.7,0-2.3C103.7,27.6,106.1,25.8,107.8,23.5"/>
	<path id="path11622" class="st0" d="M51.6,24.4c-0.8,1.8,3.5,7.3-0.3,7.3C47.8,31.6,48.7,24.7,51.6,24.4z M51,28.7
		c-0.6,0-0.8,0.3-0.8,0.8c-0.3,1.2,0.6,1.8,1.7,1.2c0.9-2-0.8-3.5-1.1-5.2C49.6,26.4,49.9,28.2,51,28.7"/>
	<path id="path11626" class="st0" d="M78.5,24.7c2.6,1.7,2.3,8.9-2,7.8C73.6,29.3,79.4,28.4,78.5,24.7z M76.2,29.9
		c-0.8,3.7,4.9,1.7,2-0.4c0.3,0,0.3,0.4,0.8,0.4c0.8-0.9,0.6-3-0.3-3.5C79.4,27.9,76.5,28.7,76.2,29.9"/>
	<path id="path11630" class="st0" d="M113.3,27.3c-2,2.6-5.5,3.5-7.5,6.1c0,0.3,0,0.8,0,1.1c-0.6,0-1.1,0-1.7,0
		c-0.3-0.8,0-1.4,0-2.3c2.3-1.7,4.9-3.2,6.9-5.2C111.6,27.3,112.4,27.3,113.3,27.3"/>
	<path id="path11634" class="st0" d="M75.7,33.6c-2.9,0.3-6.1-1.8-5.2-4.1c0.3-1.7,3.2-1.4,3.7,0C74.5,31.3,74.2,32.8,75.7,33.6z
		 M71.6,31c0.6,0.3,0.8-0.3,0.8,0s-0.3,0.6,0,1.1c0.4,0.6,0.9,0.9,2,0.9c-0.8-1.2-0.6-3.2-1.7-4.1C71,28.4,70.4,30.5,71.6,31"/>
	<path id="path11638" class="st0" d="M58,31.9c-0.8,1.8-4.1,2.6-6.1,1.5c1.2-0.8,2.7-1.8,3-3.8C56.2,28.4,58.8,29,58,31.9z
		 M57.4,29.9c-2.6-1.2-2.9,2.6-4.6,3.5c1.1,0.3,2.6,0,2.9-0.8c0.3-0.4-0.6-0.6,0-0.9c0.6,0,0.6,0.3,1.1,0.3
		C57.7,31.6,58,30.5,57.4,29.9"/>
	<path id="path11642" class="st0" d="M13.1,30.8c0.4,0,0,0.3,0.4,0.3c-0.4,1.1-1.8,2.3-0.6,3.2c0.6,0,0.9-0.6,1.5-0.8
		c2,0.8,4,3.5,7,2.6c0.3,0.6,0.6,1.4,1.1,2c-1.1,0-1.8,0.3-2.6,0.6c-2-1.5-4.1-2.9-7-3.5c-0.3-0.6-0.8-1.1-1.1-1.7
		C11.9,32.2,12.8,31.9,13.1,30.8"/>
	<path id="path11646" class="st0" d="M37.7,35.7c-3.5,0-6.7,0-10.1,0c-0.3-0.9,1.1-1.5,2-2.3c1.1-0.8,2-1.8,2.9-2.6
		C34.5,32.2,35.9,33.9,37.7,35.7"/>
	<path id="path11650" class="st0" d="M100.9,35.4c-3.2,0-5.8,0.3-8.7,0c-0.3-0.4,1.2-1.5,1.8-2c0.8-0.8,2-1.5,2.3-2.3
		C98.2,32.2,99.4,33.9,100.9,35.4"/>
	<path id="path11654" class="st0" d="M113.5,31.3c-0.3,0.8-0.6,1.2-0.6,2.3c-0.6,1.1-5.2,2-4.9,3.7c0.6,1.8,5.5-0.8,6.1-2.3
		c0.6-0.3,1.1,0,2,0c-0.3,0.9-0.8,1.2-0.8,2c-2.3,0.9-4.9,1.5-5.8,3.8c-0.6,0-1.2-0.3-1.5-0.3c0-0.9,0.3-1.2,0.3-2
		c-0.3-0.6-1.4-0.3-2-0.6c0-1.2,0.3-1.5,0.3-2.6c1.4-1.5,4.6-1.2,4.6-4.1C112.1,31,112.4,31.3,113.5,31.3"/>
	<path id="path11658" class="st0" d="M64.6,32.5c2,2.3,5.2,3.2,7.5,5.1c0,0.4,0.3,0.6,0.3,1.2c2.3-1.5,6.7,0.3,6.4,3.2
		c-0.8-2.6-4.6-4.4-6.7-1.8C73,35.4,65.5,36.3,64.6,32.5"/>
	<path id="path11662" class="st0" d="M37.4,36.5c-2.6,0.6-7,0.3-9.9,0C29.6,36,34.5,36,37.4,36.5"/>
	<path id="path11666" class="st0" d="M101.7,36.3c-2.3,0.3-7,0.3-9.9,0C95.9,36.3,98.2,35.7,101.7,36.3"/>
	<path id="path11670" class="st0" d="M96.2,36.8c0.3,2.6,0.3,4.4,0.3,7.3c-0.9,0-1.8,0-3.2,0.3C93,42,93,39.1,93,36.8
		C94.2,36.8,95.3,36.8,96.2,36.8z M93.6,37.7c0,2.3-0.3,4.1,0.3,6.1c0.6-0.3,1.4,0,2-0.3c0-2,0.3-4.1-0.4-5.8
		C95,37.4,94.2,37.7,93.6,37.7"/>
	<path id="path11674" class="st0" d="M100.9,37.1c0.3,2.3,0,4.9,0.3,7c-1.2,0.3-2.6,0-3.5,0c0-2.6-0.3-5.2,0-7.3
		C98.5,36.8,99.9,36.8,100.9,37.1z M97.9,37.7c0.3,2-0.3,4.4,0.6,5.8c0.3-1.5-0.4-4.1,0-5.8c0,2.3,0.3,3.5,0.3,6.1
		c0.6,0,1.1,0,1.7,0c0.4-2,0-4.4-0.3-6.4C99.7,37.1,98.5,37.4,97.9,37.7"/>
	<path id="path11678" class="st0" d="M19.2,39.4c0.6,0.3,0.8,1.2,1.1,2c-0.8,0-1.7,0-2,0.6c-2-0.8-3.5-2.9-5.8-2
		c-0.3-0.8-1.1-1.4-1.1-2.3c0.6-0.3,1.1-0.3,1.7-0.6c1.5,1.2,3.2,2.3,5.2,2.9C18.9,40,19.2,39.7,19.2,39.4"/>
	<path id="path11682" class="st0" d="M36.2,37.4c0,2,0.4,4.1,0.4,6.4c-0.9,0-2.3,0.3-3.2,0c0-2.3-0.3-4.1,0-6.4
		C34.2,37.1,35.4,37.1,36.2,37.4z M34,37.7c-0.4,1.8,0,4.1,0,5.8c0.8,0,1.4-0.3,2-0.3c0-2,0-3.8-0.3-5.6
		C35.4,37.4,34.5,37.7,34,37.7"/>
	<path id="path11686" class="st0" d="M92.4,37.1c0.6,2,0.3,4.9,0.3,7C92.1,42.9,92.7,39.7,92.4,37.1"/>
	<path id="path11690" class="st0" d="M96.8,37.1c0.6,1.8,0.3,4.9,0.3,7C96.5,42.3,96.8,39.1,96.8,37.1"/>
	<path id="path11694" class="st0" d="M28.7,37.1c1.2,0,2.3,0,3.2,0.3c0,2,0,4.1,0,6.4c-0.6,0-2.3,0-3.2,0
		C29,41.5,28.4,39.1,28.7,37.1z M29.3,37.7c-0.3,1.5,0,4.1,0,5.6c0.6,0.3,1.7,0,2.3,0c0-2,0-3.8-0.3-5.6
		C31,37.4,29.9,37.7,29.3,37.7"/>
	<path id="path11698" class="st0" d="M32.5,37.1c0.3,0,0.3,0.3,0.3,0.3c-0.3,2.3,0.8,5.2-0.3,6.4C32.2,42,32.2,39.1,32.5,37.1"/>
	<path id="path11702" class="st0" d="M101.7,44.1c-0.6-1.8-0.3-4.6-0.3-6.7"/>
	<path id="path11706" class="st0" d="M28.1,37.4c0.6,1.5,0.3,4.6,0.3,6.4C27.6,42.3,28.1,38.6,28.1,37.4"/>
	<path id="path11710" class="st0" d="M36.9,37.4c0.6,1.5,0.3,4.6,0.3,6.4C36.6,42,37.1,39.7,36.9,37.4"/>
	<path id="path11714" class="st0" d="M117.9,38.9c-0.3,0.8-0.8,1.1-0.8,2c0.3,0.8,1.4,0.6,2.3,1.1c-0.3,0.8-0.9,1.2-1.2,2
		c0.3,0.8,1.5,0.8,2,1.4c0.3,0.6-0.6,1.5-0.8,2.3c-2.3,0.3-4.9,0.6-5.5,2.6c-0.6-0.3-1.2-0.6-2-0.6c0.6-3.2,5.5-2,6.6-4.6
		c-2-1.4-5.2,0.3-6.3,1.8c-0.8,0-1.2-0.3-1.8-0.6c0.6-3.2,5.8-1.8,7-4.4c-0.8-1.4-1.8-0.6-3.2,0c-1.5,0.6-2.9,0.3-3.5,1.8
		c-0.6,0-0.8-0.3-1.4-0.3c0.3-0.9,0.6-1.5,0.8-2c2-0.6,4.9-1.2,5.8-2.9C116.8,38.6,117.3,38.6,117.9,38.9"/>
	<path id="path11718" class="st0" d="M63.5,42c-2.3,0.6-3.5,2-4.1,4.1c-1.1,0.3-2.6,0-3.5-0.6c0-3.2,3.5-5.5,5.8-6.6
		C62.9,38.3,63.2,40.6,63.5,42"/>
	<path id="path11722" class="st0" d="M72.8,45.2c-0.6,0.6-2,0.6-3.2,0.9c-0.8-1.8-1.7-3.5-4-4.1c0-1.4,0.6-2,0.8-2.9
		C70.2,39.7,71.8,42,72.8,45.2"/>
	<path id="path11726" class="st0" d="M93.9,39.1c0.6,0.8,0.3,2,0.3,3.2c0,0.6-0.3,0.3-0.3,0c0-0.3,0-0.6,0-0.8
		C93.9,40,93.9,40,93.9,39.1"/>
	<path id="path11730" class="st0" d="M12.2,40.9c-0.3,0.6-0.8,0.6-1.1,1.1c0.6,0.8,4,2.6,5.2,2c0.3-0.3,0.8-0.6,0.8-1.2
		c0.6,0.6,1.1,1.2,1.5,2.3c-0.9,0-1.8,0.6-2.3,1.2c-1.5-0.9-4.9-2.9-6.1-1.2c-0.6-0.6-0.8-1.1-1.1-2c0.6-0.4,1.1-0.6,1.8-0.9
		c0-0.8-0.6-1.1-0.6-1.7C10.8,39.4,12.2,39.4,12.2,40.9"/>
	<path id="path11734" class="st0" d="M65.2,44.3c-0.9,0,0,1.4-1.2,1.4c0,0.4,0.6,0,0.9,0c-0.6,0.6-1.8,0.4-1.8-0.3
		c-0.8,0.9-2.9,1.2-4.1,2.3c0.3,0.3,0.9-0.6,1.2-0.6c0.3,0.6-0.9,1.1-0.9,2c-0.6,0-0.3-0.9-0.8-0.9c0.3-1.1,0.8-1.4,1.5-2
		c-0.3-5.8,9.5-4.9,8.7,0c0.8,0.6,1.8,1.1,1.5,2.6c-0.4,0-0.4-0.6-0.4-0.9c-0.8-1.1-2.6-1.1-3.7-2C66.1,45.2,66.1,44.6,65.2,44.3z
		 M67.8,46.1c-0.3-0.4-0.9-0.4-1.5-0.6c0.3,0.6,1.5,0.9,2,0.9c0-0.6,0-0.9-0.3-0.9C68.1,45.5,68.1,46.1,67.8,46.1"/>
	<path id="path11738" class="st0" d="M77.7,42.6c0.8,0.3,2.9-0.6,3.5,0.6c-0.6,0.6-2.9,0.3-3.5,0C77.7,42.9,77.7,42.9,77.7,42.6"/>
	<path id="path11742" class="st0" d="M81.1,44.3c-1.5-0.3-2,0.3-2.6-0.3C78.5,43.5,80.9,43.8,81.1,44.3"/>
	<path id="path11746" class="st0" d="M50.4,44.1c-0.3,0.6-2.9,1.1-2.6,0C48.4,43.8,49.9,43.5,50.4,44.1"/>
	<path id="path11750" class="st0" d="M38,44.6c-1.4,0.3-2.9,0-4.6,0c-2,0-4.3,0.6-6.3,0c0.8-0.6,2.3-0.3,3.2-0.3
		C32.8,44.1,35.9,43.8,38,44.6"/>
	<path id="path11754" class="st0" d="M65.5,44.6c0,0.3,0,0.6,0,0.8c-0.3-0.3-0.3-0.6-0.6-0.8C65.2,44.3,65.2,44.6,65.5,44.6"/>
	<path id="path11758" class="st0" d="M103.1,44.9c-3.5,0.6-8.4,0-12.4,0.3c0-0.3,0-0.3,0-0.6c0,0,0,0,0.3,0
		C94.7,44.6,99.4,44.1,103.1,44.9"/>
	<path id="path11762" class="st0" d="M54.5,44.9c-0.6,0.8-3,0.3-3.8,0.3v-0.3C51.6,44.6,53.9,44.3,54.5,44.9"/>
	<path id="path11766" class="st0" d="M50.4,44.9c0.3,1.8,2,2,4.1,2.3c-0.4,0.6,0,0.8,0,1.8c-1.5-0.6-2.7-1.5-3.8-2.3
		c-0.3,0-0.3,0.3-0.6,0.3c0,0.8,0.6,1.1,1.1,1.8c0.3-0.6-0.8-1.2-0.8-1.8c1.4,1.8,4.4,1.4,4.9,4c-0.6-1.1-2.6-1.1-3.5-0.6
		c-1.4-0.6-1.4-2.3-2.3-3.5c-0.6,1.4,0.6,4,0,5.8c-0.4,0-0.6,0.3-0.9,0c-0.3-2.3,0.3-5.5-0.8-7c0.6,0,0.8,0,1.4,0.4
		c0.4-0.4-0.8-0.4-0.8-0.9C48.7,44.9,49.6,44.9,50.4,44.9"/>
	<path id="path11770" class="st0" d="M40,45.2c0.3,1.8-2.9,0.9-4.1,0.9c-1.4,0-3.2,0.3-4.3,0.3c-0.3,0,0,0.3,0,0.8
		c-1.2,0-1.5-0.3-1.8-0.8c-0.6,4.9,0.6,11-0.6,14.7c0-4.6-0.3-9.8,0-14.7c-0.3-0.3-1.2,0-1.8,0c0.3,0.3,1.5-0.3,1.1,0.6
		c-0.3,0.6-1.4,0-2,0.3c0,1.1,0,2.6,0,3.7c0.3,0.4,1.4,0,2,0c-0.6,0.9,0,1.2,0,2.3c-0.3,0-0.6,0.3-0.8,0.6c0-0.4-0.3-0.6-0.8-0.9
		c0-0.6,0.6-0.8,0.6-1.1c0-0.3-0.3-0.3-0.6-0.6c-0.6,2.9,0,5.2-0.3,7.5c0,0.6,0.3,1.8-0.6,2.3c0-4.6,0-9.5,0-14.4
		c-0.3-0.6-1.1-0.3-1.1-0.9c1.5-1.1,5.2-0.6,7-0.6C34.5,45.2,37.1,44.9,40,45.2"/>
	<path id="path11774" class="st0" d="M32.8,46.4c0,0.3,0.3,0.3,0.3,0.6c-0.3,0.3-0.8,0.3-1.1,0C31.9,46.4,32.2,46.4,32.8,46.4"/>
	<path id="path11778" class="st0" d="M34.2,46.4c0,0.3,0.3,0.3,0.3,0.6c-0.3,0.3-0.9,0.3-1.2,0v-0.3C33.3,46.4,34,46.4,34.2,46.4"/>
	<path id="path11782" class="st0" d="M34.8,46.4c0.3,0,0.3,0,0.6,0c0,4.9,0.3,10.1,0,14.4c-0.8-0.3-0.6-1.4-0.6-2.3
		c0-3.5,0-8.4,0-11.5C34.8,46.7,34.8,46.7,34.8,46.4"/>
	<path id="path11786" class="st0" d="M37.4,46.4c0,0.3,0,0.3,0,0.3c0,0.6-0.3,0.6-0.8,0.6c0-0.3,0-0.3,0-0.6S37.1,46.4,37.4,46.4"/>
	<path id="path11790" class="st0" d="M37.7,46.4c0.6,0,0.3,0.3,0.3,0.8C37.7,47.2,37.7,46.7,37.7,46.4"/>
	<path id="path11794" class="st0" d="M35.9,60.3c-0.3-0.8,0.6-1.5,0.6-2.3c-1.8-1.1,0.3-2,0.3-4c0-0.4-0.9,0-0.9-0.6
		c-0.3-0.8,0.3-0.8,0.6-1.1c0-0.6-0.9-0.3-0.6-0.8c0.6,0,0.9-0.6,0.9-1.5c0-0.6-0.9-0.3-0.9-0.6c0-1.2,0.9-1.2,0-1.8
		c0.6,0,1.5-0.3,2,0c-0.3,0.3-0.3,0.3-0.6,0.3c0,0.6,0.6,0.3,0.6,1.2c0.3,0.6-0.8,0.3-0.8,0.8c0,0.3,0.3,0.6,0,1.1
		c0,0.4,0.8,0,0.8,0.4c0.3,0.6-0.3,0.3-0.6,0.6c0.3,0.6,0.8,0.6,0.8,1.4c-0.3,0.3-1.1,0.3-1.1,0.6c0,0.6,0.3,0.6,0,1.1
		c2.6-0.8,0.6-6.1,1.4-8.7c0.6,0,0.6,0.8,0.6,1.1c0.3,1.8-0.4,4.1-0.4,6.4c3.2-1.8,5.8-4.1,9-5.8c-0.3,1.2-1.8,1.8-2.6,2.3
		c-2.9,2.3-6.1,4.4-9,6.7c4.1-2,7.5-5.5,11.6-7.3c0,1.1,0,2.3,0,3.2c-0.8,0.9-2,1.5-2.6,2.6c0.8,1.8,2.6,2.9,2.6,5.2
		c-0.6,5.2,0.3,12.7,0,18.8c-0.3,5.5-0.3,11.9-0.3,17.1c-0.9,0.3-2.3,0.3-3.2,0c-0.6-10.7,0.8-23.7,0-34.1c-0.4-3.2-1.2-6.1-5.2-5.5
		c-0.6,1.1,0.3,2.9-0.6,4L35.9,60.3z M37.4,57.1c0,1.1,0.8,2.3,0.8,2.9c0-0.9,0.3-2.6,0-2.9C38.3,57.4,37.7,57.1,37.4,57.1"/>
	<path id="path11798" class="st0" d="M35.9,46.7c0.3-0.3,0.3,0.3,0.3,0.6C35.9,47.2,35.9,47,35.9,46.7"/>
	<path id="path11802" class="st0" d="M92.4,47.5c-0.3,0-0.6-0.3-0.6-0.6C92.4,46.7,92.7,46.7,92.4,47.5"/>
	<path id="path11806" class="st0" d="M93,46.7c0.4,0,0.6,0.3,0.6,0.6c-0.3,0-0.3,0.3-0.6,0.3C93,47,93,47,93,46.7"/>
	<path id="path11810" class="st0" d="M94.7,46.7c0.3,0.3,0.8-0.3,1.2,0.3c0,0,0,0.3,0,0.6c-0.6,0-0.9,0-1.5,0
		C94.5,47,94.7,47,94.7,46.7"/>
	<path id="path11814" class="st0" d="M100.2,46.7c0.6,0,0.6,0.6,0.3,0.8C100.2,47.5,100.2,47,100.2,46.7"/>
	<path id="path11818" class="st0" d="M102.5,47.2c-0.3,0-0.6,0-0.6-0.3C102.3,46.7,102.8,46.7,102.5,47.2"/>
	<path id="path11822" class="st0" d="M91,47c0.6-0.3,0.6,0.3,0.6,0.6C91,47.5,91,47.2,91,47"/>
	<path id="path11826" class="st0" d="M97.3,47c0.3,0.6-0.8,0.6-1.1,0.3C96.2,46.7,97.1,47,97.3,47"/>
	<path id="path11830" class="st0" d="M99.1,47c0,0.3-1.2,0.6-1.2,0.3C97.9,46.7,99.1,46.7,99.1,47"/>
	<path id="path11834" class="st0" d="M101.1,47c0.3,0,0.3,0,0.6,0c0,0,0,0.3,0,0.6C101.4,47.5,100.9,47.2,101.1,47"/>
	<path id="path11838" class="st0" d="M27,47.8c0.3-0.6,1.1-0.3,1.4-0.3c-0.3,0.6,0,0.8,0.3,1.2c0,0.8-1.1,0.8-0.6,2
		c-0.6-0.3-0.3-1.4-1.1-1.4C26.7,48.4,27.8,48.1,27,47.8"/>
	<path id="path11842" class="st0" d="M68.4,47.5c1.4,0,1.4,2.9-0.3,2.6c0-0.3-0.3-0.6,0-0.8c0.3,0,0.3,0.3,0.3,0.6
		C69.5,49.3,69,48.1,68.4,47.5"/>
	<path id="path11846" class="st0" d="M93.6,47.8c0,0.6-0.6,0-0.9,0.6c0.3,0.4,0.9,0.4,0.9,0.9s-0.6,0.3-1.2,0.6
		c0,0.3,0.3,1.1-0.3,1.1c0-0.6-0.3-1.4-1.1-1.7c0-0.6,0.6-0.6,0.6-0.6c0-0.4,0-0.6-0.6-0.6C91.8,47.5,92.7,47.5,93.6,47.8"/>
	<path id="path11850" class="st0" d="M60.3,47.8c0.8,0.6-0.3,1.2,0.6,1.5c0,0.3-0.6,0.3-0.8,0.3C59.4,49,60,48.1,60.3,47.8"/>
	<path id="path11854" class="st0" d="M68.7,48.1c-0.3,0.3,0.6,0.6,0,0.9c-0.3-0.3-0.3-0.6-0.6-0.9C68.4,48.1,68.4,48.1,68.7,48.1"/>
	<path id="path11858" class="st0" d="M58.3,48.4c0.3,1.2,1.1,1.5,2,1.8c0,0.6,0.6,0.6,0.3,0.8c-0.6,0.9-0.8,1.8-1.8,2
		c-1.4-0.6-2.3-2-2.6-3.7C56.5,48.7,57.1,48.4,58.3,48.4"/>
	<path id="path11862" class="st0" d="M118.7,49c1.2-0.3,1.5,0.8,1.2,1.4c-0.3,0-0.6,0-0.8,0C118.5,50.1,118.5,49.6,118.7,49"/>
	<path id="path11866" class="st0" d="M50.2,49.6c0.6,0.3,0.8,0.6,1.1,1.1c-0.3,0.6-0.6,0.9-0.8,0.9C50.2,51,50.2,50.1,50.2,49.6"/>
	<path id="path11870" class="st0" d="M116.8,51c-0.3,0-0.3,0.4-0.3,0.4c-0.6,0.6-1.2,0.6-1.5,0C114.4,49.8,116.8,49.8,116.8,51"/>
	<path id="path11874" class="st0" d="M49.9,53c0.8-1.1,1.7-1.7,3.2-2.6c0.8,1.2,1.8,2.6,2.3,4.1c-0.6,0.3-1.2,0.8-1.8,1.1
		C52.2,55.1,50.2,54.8,49.9,53"/>
	<path id="path11878" class="st0" d="M53.9,50.4c1.2,1.2,2.3,2.9,2.6,4.1c-0.6,0.8-1.7,1.4-2.6,2c-0.3-1.2,1.5-1.2,2-2.3
		C55.4,53,54.2,52.2,53.9,50.4"/>
	<path id="path11882" class="st0" d="M95.3,51.3c0.3-0.4,0.9,0.3,0.9,0.3c0,0.8-0.6,1.1-0.9,1.7c-0.6,0-0.8-0.3-0.8-1.1
		c0.6,0.3,0.8,0,1.1,0C95.9,51.6,95.6,51.6,95.3,51.3"/>
	<path id="path11886" class="st0" d="M97.6,51.3c0.6,0,0.9,0,0.9,0c0,0.3-0.4,0.6-0.9,0.6C97.6,51.6,97.6,51.6,97.6,51.3"/>
	<path id="path11890" class="st0" d="M68.4,51.9c-0.8,1.1-2,2-2.9,3.2c0.8-0.3,1.7-2,2.9-2.3c0.6,0.3,1.1,0.6,1.4,0.8
		c-1.7,1.8-3.2,3.5-3.5,6.1c-1.4,0.6-2.3-0.6-1.8-1.8c0.4,0,0.9-0.3,1.5-0.3c0.3-1.1-0.6-0.8-0.6-2c-0.6,0.3-0.3,0.9-0.9,0.6
		C64.9,54.5,66.4,51.3,68.4,51.9"/>
	<path id="path11894" class="st0" d="M122.3,52.4c-0.6,3.2-6.7,0.3-7.8,3.2c1.4,1.8,5.2,0.9,6.9-0.3c0.6,0.3,1.2,0.6,1.5,0.8
		c-0.3,0.6-1.1,1.2-1.5,1.8c-1.4-0.3-3.7,0-5.2,0c-0.6,0.3-0.6,1.1-1.1,1.5c-0.6-0.4-1.1-0.6-1.5-0.9c0.4-0.6,0.9-0.8,1.5-1.7
		c-0.3-0.9-1.5-0.9-2-1.8c0.3-0.8,0.9-0.8,1.2-2c2,0,3.7-0.3,5.8-0.6C120.5,51.6,121.3,51.6,122.3,52.4"/>
	<path id="path11898" class="st0" d="M60.3,52.4c0,0,0.3-0.3,0.3-0.6c2,0.8,2.6,2.6,3.2,4.3C62.9,54.8,61.4,53.6,60.3,52.4"/>
	<path id="path11902" class="st0" d="M31,52.2c0.6,0,0.4,0.8,0,0.6C30.7,52.4,31.4,52.4,31,52.2"/>
	<path id="path11906" class="st0" d="M97.9,52.2c0.6,0,0.6,0.3,0.9,0.3c0.3,0.6-0.3,0.8-0.6,0.8C97.9,53,97.9,52.7,97.9,52.2"/>
	<path id="path11910" class="st0" d="M63.2,56.2c0.3,0.4-0.3,0.4-0.6,0.4c0,0.6,0,0.8,0,1.1c0.3,0.6,1.4,0,1.1,0.8
		c0.3,0,0-0.3,0-0.6c0.6,0,0.6,0.6,0.6,0.8c-0.6,0.3-0.6,0-1.4,0c-0.9-1.4-1.5-3.2-3.5-3.7c0.9,0.8,2.6,2,2.6,3.7
		c-0.8,0-1.1,0-2-0.3c0-0.6,0.3-0.6,0.3-0.8c-0.9,1.8-0.9,4.4-0.9,7c-1.4-0.4-0.8-3.2-0.8-4.9c0-1.2,0.3-2.3,0.3-3.5
		c-1.1,1.8-0.6,5.2-1.1,7.5c-0.6-0.3-1.5-0.3-2.3-0.6c0-1.8,0-3.5-0.8-4.6c0,0.9,0.6,1.8,0.3,2.3c-1.2-0.6-3.2-1.1-3.8-2
		c0-0.8,1.2-0.6,1.8-0.3c-0.3-1.7-1.5-2.6-2-3.7c2,0.3,2.6,1.8,3.5,3.2c0.9,0,0.9,0.6,1.2,0.8c0-0.3,0.6-0.6,0.3-0.8
		c0.3-0.3,1.1-0.3,1.5,0c0.6-0.3-0.6-0.3-0.6-0.6c0.6-1.2,0.9-2,2.3-2.3c-0.3-0.3-0.6-0.3-0.6-0.6C59.1,51.6,62.9,54.2,63.2,56.2z
		 M57.4,60.5c0.3-1.1-0.6-1.8-1.5-2.3C56.8,58.8,57.1,60,57.4,60.5"/>
	<path id="path11914" class="st0" d="M6.2,55.3c-0.6-2.3,2-2.3,2.3-1.1C8.5,55.1,7.6,55.9,6.2,55.3"/>
	<path id="path11918" class="st0" d="M51.9,56.5c-1.1,1.1-3.2,1.4-3.7,2.5c-0.8-0.8-1.8-2-2.3-3.5c0.6-1.4,2-1.7,3.5-2.3
		C50.7,53.6,50.2,56.2,51.9,56.5"/>
	<path id="path11922" class="st0" d="M12.2,53.9c0.6,0,1.5,0.3,1.2,1.1C13.1,57.7,9.6,54.5,12.2,53.9"/>
	<path id="path11926" class="st0" d="M27.8,53.9c0.3,0.8,0.8,0.6,0.8,1.4c-1.1,1.2,0.4,2.9,0,4.4c-0.6-0.3,0-1.8-0.8-2
		c-0.6,0.3-0.3,1.4-0.8,2c-0.6-1.2,1.4-3.2,0-4.6c0-0.6,0.8-0.3,0.8-0.8C27.8,53.9,27.8,53.9,27.8,53.9"/>
	<path id="path11930" class="st0" d="M71.3,61.7c-0.6-0.6-0.3-1.1,0-1.7c-0.6,0-0.8,0.8-1.5,0.6c-0.3-0.6-0.3-1.5,0-2.3
		c-0.8,0.3-0.3,2-1.1,2c-0.8-1.8,0.3-4.1,1.1-5.2c-1.4,0.8-1.1,3.5-2.6,4.6c-0.6-0.6,0-2.3,0.6-3.2c0.6-0.9,1.4-2,2.3-2.3
		c2.9,1.7,3.7,6.1,4,10.4c-0.3,0.3-0.6-0.6-0.8-0.6c-1.2-0.6-2.6-0.3-3.5-0.3c0.4-0.8,0-1.7-0.3-2.3C70.2,61.1,70.7,61.4,71.3,61.7"
		/>
	<path id="path11934" class="st0" d="M63.8,54.2c0.6,0,0.3,0.3,0.8,0.3C64.6,55.1,63.8,55.1,63.8,54.2"/>
	<path id="path11938" class="st0" d="M65.8,57.1c-0.3,0.6-2.6,0.6-2.9,0C63.2,56.8,65.5,56.5,65.8,57.1"/>
	<path id="path11942" class="st0" d="M32.5,57.1c1.1,2,2,4.6,3.2,6.6c-1.7-1.1-2-3.7-3.2-5.5c-1.8,1.5-1.8,4.6-4.1,5.8
		C29.9,61.7,31.4,59.7,32.5,57.1"/>
	<path id="path11946" class="st0" d="M48.4,59.4c0.6-0.9,1.8-1.8,3.8-2C51.3,58.5,49.6,59.4,48.4,59.4"/>
	<path id="path12518" class="st0" d="M9.3,57.1C9,57.9,9,58.8,8.2,58.8c-1.2-0.3-1.5-1.1-2.7-1.4c0.4,0.8,0,2-0.3,2.9
		c0.6,0.8,1.5,1.4,2,2.3C7.8,62,9,62,9.9,62.3c0-0.6,0.3-1.2,0.6-1.5c1.8,0.6,2.6,2,4.4,2.3c-0.6-1.1-0.3-2.6,0-3.7
		c-0.8-0.4-1.1-1.5-2.3-1.8C11.4,57.4,10.2,57.9,9.3,57.1z M6.7,58.2c0.8,0.6,1.8,1.2,2.3,2.3c-0.3,0.6-1.8,0.3-2.3,0
		C6.7,59.7,6.4,58.8,6.7,58.2z M13.7,59.1c-0.6,1.2-0.3,2.6,0,3.3c-1.5-0.9-3.5-1.2-3.8-2.9C10.8,58.8,12.2,59.4,13.7,59.1z"/>
	<path id="path11954" class="st0" d="M50.7,59.4c-0.6,2,0.8,3.7,0.6,4.9c-0.3,1.5-2,1.5-2,3c0,0.6,0.6,0.3,0.6,0.8
		c0.6-0.3-0.3-0.6-0.3-0.8c0.6-1.2,1.7-1.5,2.3-2.6c-0.3-1.5-0.3-3.2-0.6-4.6c0.3-0.3,0.6,0.3,1.2,0.3c0.3,1.4-0.3,4,0.8,4.9
		C53,66,52.8,66.9,53,67.8c-1.5,0.8-3.8,0.8-4.4-0.6C49.6,64.6,47,59.1,50.7,59.4z M51,67.8c0.8,0.3,1.2-1.5,0.6-1.5
		C51.6,66.9,51,67.2,51,67.8"/>
	<path id="path11958" class="st0" d="M123.4,60c-0.6,0.8-1.4,1.1-2,2c0.6,0.8,1.5,1.4,2,1.7c-0.3,0.9-1.1,1.2-1.7,2
		c-1.5-0.6-5.2-1.1-6.1,0.3c-0.6-0.3-1.1-0.6-1.7-0.8c0.3-0.6,0.8-0.9,1.4-1.5c2,0.3,5.2,0.9,6.4-0.6c-1.5-2.6-6.7,0.3-7.8-1.5
		c0.8-2.9,6.6,0.6,7.5-2.3C122.3,59.4,122.8,59.7,123.4,60"/>
	<path id="path11962" class="st0" d="M61.4,60.3c-0.6,1.4,0,3.5-0.6,4.9c-0.3,0-0.6,0-0.8,0c-0.3-1.5,0-3.5,0-5.2
		C60.9,60,61.1,60.3,61.4,60.3"/>
	<path id="path11966" class="st0" d="M67.8,65.8c-0.6-1.1,0.3-4.9-1.8-5.2c1.8-0.8,4.1,0.6,3.2,3.5C69,64.9,68.1,65.2,67.8,65.8"/>
	<path id="path11970" class="st0" d="M3.3,62.6c0.6,0.3,1.1,0.6,1.4,0.8c0,0.6-0.3,0.3-0.3,0.6c-0.6,0-1.1-0.6-1.5-0.8
		C2.9,62.9,3.3,62.9,3.3,62.6"/>
	<path id="path11974" class="st0" d="M61.4,62.9c0.6-0.3,0.6,0.3,0.9,0.3c0,0.8,0,1.8,0,2.6c-0.4,0-0.6,0-0.9,0
		C61.4,64.6,61.4,63.7,61.4,62.9"/>
	<path id="path11978" class="st0" d="M14.5,64c-0.3,0.9-1.1,0.9-1.5,2c-1.4-0.8-5.5-1.1-6.3,0.3c-0.6,0-1.2-0.6-1.5-1.1
		c0.3-0.9,0.9-1.2,1.5-1.8c1.1,0.8,3.2,0.6,5.2,0.6C12.5,62.9,13.7,63.1,14.5,64"/>
	<path id="path11982" class="st0" d="M64.6,63.1c0.4,0,0.4,0.3,0.6,0.3c0,0.6,0,1.2,0,1.8c-0.3,0.3-0.6,0.6-0.9,0.3
		C64.6,64.6,64.3,64,64.6,63.1"/>
	<path id="path11986" class="st0" d="M63.8,63.1c0.3,0.6,0,1.8,0,2.6c-0.3,0-0.6,0-0.8,0C62.9,64.9,62.3,63.1,63.8,63.1"/>
	<path id="path11990" class="st0" d="M65.8,63.4h0.3c0.3,1.2,0.6,2.3,0.6,3.2C65.8,66.3,66.1,64.6,65.8,63.4"/>
	<path id="path11994" class="st0" d="M27.3,65.5c0.6,0.6,0.3,1.1,0.6,2c1.5-0.3,2.3-1.8,3.8-1.2c0.3,1.5,0,3.2,0.3,4.6
		c-0.9-0.6-0.3-2.6-0.6-3.7c-0.9,0.6,0,2.5-0.4,3.5c-0.6-0.6-0.3-2-0.6-2.9c-0.6,0.3-0.3,1.7-0.3,2.3c-0.8,0,0-1.8-0.8-2
		c-0.3,0.3,0,1.1,0,1.7c-0.6,0-0.3-0.8-0.6-1.4c-0.6,0-0.3,0.8-0.3,1.4c-0.3,0-0.6-0.3-0.6-0.6c0,0.3-0.3,0.3-0.3,0.6
		c0.3,0.9,1.1,0.9,1.8,1.2c-0.3,0.8,0.8,1.4,2,1.4c0.3,0.6-0.4,0.6-0.9,0.9c0-0.9-0.3-0.3-0.8-0.3c0-0.3,0.3-0.3,0.3-0.6
		c-0.6-0.6-1.8-0.6-2-1.4c-0.3,0-0.3,0.3-0.6,0.3c0.3,0.8,0.6,1.5,1.1,1.8c-0.6,0.3-0.8-0.6-1.4-0.9c-0.6,0-0.9,0.6-1.2,0.9
		c-0.3-0.6,1.2-0.9,0.6-2c-1.2,0.3-1.5,2-3.2,1.8c0-0.6,0-0.6,0-0.9c1.8,0.3,2-1.4,3.2-2c0.3-0.3,0-0.3,0-0.6
		c-0.4-0.3-0.4,0.3-0.6,0.3c-0.3,0,0-0.6-0.3-0.8c-0.6,0-0.3,0.8-0.6,1.1c-0.6,0,0.3-1.4-0.6-1.4c-0.3,0.6,0,1.4-0.6,1.8
		c0-0.9,0-1.5-0.4-2c-0.6,0.3,0,1.7-0.3,2.3c-0.8-0.3,0-2.3-0.6-2.6c-0.6,0-0.3,0.6-0.3,0.6c-0.6,0-0.3-1.1-0.3-1.8
		c1.4-1.1,2.3,1.5,4.4,0.9c0.3,0,0.3-0.3,0.3-0.3c0.3-0.6-0.3-0.9-0.6-1.2C26.4,65.8,26.7,65.5,27.3,65.5"/>
	<path id="path11998" class="st0" d="M105.7,65.8V66c-2,2.3-3.7,4.9-6.1,7C101.7,70.4,103.7,68.1,105.7,65.8"/>
	<path id="path12002" class="st0" d="M86.4,65.8c0.3,0,0.6,0,0.8,0c1.5,0.8,0,4-1.1,2.6C88.1,68.4,87.8,66,86.4,65.8"/>
	<path id="path12006" class="st0" d="M87.8,66c0.6-0.6,1.2,0.3,0.9,0.6C88.1,66.6,88.4,66,87.8,66"/>
	<path id="path12010" class="st0" d="M104,66.9c-0.3-0.3-0.6-0.3-0.9-0.8C103.5,65.5,104,66.3,104,66.9"/>
	<path id="path12014" class="st0" d="M91.3,66c0.6-0.3,1.7,0,1.7,0.6c0.6,0.9-0.3,2-0.8,2.3C90.7,69.2,89.2,66.9,91.3,66z
		 M92.7,66.6c-0.8-0.6-1.7-0.3-2.3,0.3c0,1.2,0.6,1.5,0.9,1.8C92.4,68.6,93,67.8,92.7,66.6"/>
	<path id="path12018" class="st0" d="M103.1,66.6c0.6,1.5-0.3,2.3-1.4,2C99.4,68.4,101.1,64.3,103.1,66.6z M102.3,68.4
		c1.2-0.3,0.8-2.6-0.8-2C100.2,66.9,101.4,68.6,102.3,68.4"/>
	<path id="path12022" class="st0" d="M2.9,66.3c1.8-0.8,0.4,2.9,1.8,2.9c0.6-0.3,0.3-1.1,0.8-1.4c2.3,0.3,6.1,0.3,7.9-1.5
		c0.6,0.3,1.1,0.6,1.4,1.2c-0.3,0.6-0.8,0.8-1.4,1.7c-2.6-0.6-6.4,0-8.4,1.2c-0.3-0.6-1.1-1.2-1.7-1.5C2.9,68.1,2.9,66.6,2.9,66.3"
		/>
	<path id="path12026" class="st0" d="M93.3,66.3c0.3-0.6,0.6,0.3,0.8,0.6C93.9,67.2,93.6,66.3,93.3,66.3"/>
	<path id="path12030" class="st0" d="M97.3,66.3c3.2,0.6-1.1,4.4-2,1.8c0-1.2,0.6-1.5,0.9-2c0.6,0.6-0.6,0.6-0.6,1.8
		C95.9,70.1,99.7,67.8,97.3,66.3"/>
	<path id="path12034" class="st0" d="M97.9,69.8c-0.3-0.3-0.6,0.6-0.8,0.9c0.6,0.8,1.5,1.1,1.8,2.3c-0.9-0.6-1.2-1.5-1.8-2
		c-0.8,0.3-1.5,1.4-2,2c-0.6-0.3,0.6-1.5,1.2-1.8c1.1-1.8,2.6-3.5,4.3-5.2c-0.6,1.2-1.4,1.8-2,2.9c2.3-1.1,3.5,2.9,0.8,3.2
		C98.5,72.1,97.3,71.2,97.9,69.8z M99.4,71.8c1.1,0,1.8-1.7,0.6-2.6C97.6,68.9,97.6,71.8,99.4,71.8"/>
	<path id="path12038" class="st0" d="M95.3,66.3c-2,2.3-3.5,4.6-5.8,6.4C91.3,70.7,93.3,67.8,95.3,66.3"/>
	<path id="path12042" class="st0" d="M98.8,66.3c0.3-0.3,0.6,0.3,0.6,0.6C98.8,66.9,99.1,66.3,98.8,66.3"/>
	<path id="path12046" class="st0" d="M125.4,67.5c0.3,0.6-0.3,0.6-0.3,0.8c-0.8-0.3-0.8-0.8-1.5-1.1C124,65.8,125.2,67.2,125.4,67.5
		"/>
	<path id="path12050" class="st0" d="M123.1,67.8c-0.8,2.6-5.8,0-7.5,1.7c-0.8-0.3-1.1-0.6-1.7-1.1c0.3-0.8,0.8-0.8,1.4-1.1
		c1.5,0.3,3.5,0.6,4.9,0.3c0.6-0.3,1.1-0.9,1.1-0.9C122.3,66.6,122.5,67.8,123.1,67.8"/>
	<path id="path12054" class="st0" d="M89.2,67.5c0.8,0.8,1.5,1.7,2,2.6C90.7,69.2,89.5,68.4,89.2,67.5"/>
	<path id="path12058" class="st0" d="M94.5,67.8c0.8,0.6,1.5,1.4,2.3,2.3C95.9,70.1,95,68.6,94.5,67.8"/>
	<path id="path12062" class="st0" d="M99.7,67.8c1.2,0.3,1.2,1.4,2,2C101.1,69.8,100.2,68.4,99.7,67.8"/>
	<path id="path12066" class="st0" d="M90.1,69.2c0.6,0.6,0.6,2-0.3,2.6c-0.8,0-1.4-0.3-1.7-0.6C87.5,69.8,88.7,68.4,90.1,69.2z
		 M89.2,71.5c1.1-0.3,1.5-2.9-0.6-2C87.2,70.1,88.4,71.5,89.2,71.5"/>
	<path id="path12070" class="st0" d="M93,69.5c0.9-0.8,2.3-0.3,2.6,0.6C96.5,72.7,91.8,72.7,93,69.5z M94.5,71.8
		c1.1,0,1.5-2.9-0.6-2.3C92.4,69.8,93.3,72.1,94.5,71.8"/>
	<path id="path12074" class="st0" d="M53.6,69.2c0,0.6,0.6,0.9,0.6,1.8c-2,0.3-3.7,0-5.5,0.3C47.6,68.4,51.6,69.5,53.6,69.2"/>
	<path id="path12078" class="st0" d="M86.1,69.2c0.3,0,0.3,0.3,0.3,0.6h-0.3C86.1,69.8,86.1,69.5,86.1,69.2"/>
	<path id="path12082" class="st0" d="M80.9,69.5c-0.3,0.6,0,1.5-0.3,1.8c-2.3,0-4.4,0.3-6.1,0.3C73.6,68.4,78.3,69.8,80.9,69.5"/>
	<path id="path12086" class="st0" d="M13.4,70.1c0.6,0,1.1,0.3,1.7,0.6c0,0.8-1.1,0.8-0.8,2c-2-0.6-5.5-0.4-6.7,1.1
		c0.6,1.8,5.8,1.1,6.4-0.6c0.6,0.3,1.1,0.6,2,0.8c-0.4,0.8-1.2,1.2-1.2,2c-1.8-0.6-6.1-0.3-6.3,1.8c-0.9,0-1.5-0.6-2-0.6
		c0.3-1.1,1.4-1.4,1.4-2.3c-0.3-0.8-1.1-1.1-2-1.4c0.6-0.8,1.1-2,1.7-2.6C9.6,71.2,12.5,71.5,13.4,70.1"/>
	<path id="path12090" class="st0" d="M122.5,71.5c-0.3,0.6-1.2,0.8-1.5,1.5c0.3,0.8,0.9,1.1,1.5,1.7c-0.6,0.6-1.2,0.9-1.8,1.5
		c-1.7-0.6-3.5-0.8-5.2-0.6c-0.6-1.2-1.7-1.8-2.3-2.6c0.6-0.9,1.2-1.5,2-2c1.8,0,4.6,0.8,5.8-0.3C122,70.7,122.3,71.2,122.5,71.5z
		 M114.4,73.9c1.7,0.3,4.9,1.1,6.3,0C120.8,71.8,114.7,71.5,114.4,73.9"/>
	<path id="path12094" class="st0" d="M87.2,70.7c0.6,0.6,1.2,1.4,1.8,2C88.1,72.7,87.5,71.5,87.2,70.7"/>
	<path id="path12098" class="st0" d="M91.8,71c0.8,0,1.5,1.1,2,1.8C93,73,92.7,71.5,91.8,71"/>
	<path id="path12102" class="st0" d="M53,71.8c0.6,1.5,0,3.8,0.3,5.8C52.5,76.5,53,73.3,53,71.8"/>
	<path id="path12106" class="st0" d="M53.6,71.8c0.3,0,0.3,0.3,0.6,0.3c-0.3,1.8,0,2.9,0,5.5C53.6,75.9,53.9,73.9,53.6,71.8"/>
	<path id="path12110" class="st0" d="M87.5,72.7c-0.3-0.4-0.6-0.6-1.4-0.6C86.4,71.5,87.8,71.8,87.5,72.7"/>
	<path id="path12114" class="st0" d="M34.8,72.1c-0.3,0.3-0.3,0.3,0,0.9c-1.2,0.3-1.2-0.3-1.8,0.3c-0.6-0.3,0.6-0.6,0-0.9
		C33.6,72.1,34.5,72.4,34.8,72.1"/>
	<path id="path12118" class="st0" d="M103.5,72.7c-0.9,0-2-0.4-3,0.3C100.9,71.8,102.8,71.8,103.5,72.7"/>
	<path id="path12122" class="st0" d="M74.5,72.1c0.6,0,0.3,0.6,0.3,0.9c0.6,0,0-0.9,0.6-0.9c0,1.8,0.3,3.5,0.3,5.5
		c-0.6-1.1-0.3-2.9-0.6-4c-0.3,0.6,0.4,3.2-0.3,4C74.7,75.3,74.5,74.4,74.5,72.1"/>
	<path id="path12126" class="st0" d="M92.7,72.7c0,0.3-1.4-0.6-2.3,0.3C91,71.8,92.4,72.1,92.7,72.7"/>
	<path id="path12130" class="st0" d="M97.9,73c-0.3-0.3-1.4-0.9-2,0C95.3,72.1,97.9,71.8,97.9,73"/>
	<path id="path12134" class="st0" d="M15.1,77.3c0.6,0,1.2,0.3,1.8,0.9c0,0.8-0.8,1.1-0.6,2.3c-2,0.6-4.4,0.6-5.5,2
		c-1.2-0.3-2.3-0.8-3.2-1.7c0.3-1.2,1.2-1.5,1.5-2.6c0.6,0,0.8,0.6,1.4,0.8c-0.6,0.3-1.1,0.8-1.1,2c0.6,0,4.1-0.9,5.5-1.5
		C15.7,78.8,15.4,77.9,15.1,77.3"/>
	<path id="path12138" class="st0" d="M80.9,78.5c0.8,2.3-2.6,1.4-3.8,1.4c-7.8-0.3-20.3,0-28.9-0.3c0-0.3-0.3-1.1,0.3-1.1
		C58,78.2,70.7,77.9,80.9,78.5"/>
	<path id="path12142" class="st0" d="M13.4,78.8c0.3,0.3-0.6,0.8-1.2,0.8C12.5,79.1,13.1,79.3,13.4,78.8"/>
	<path id="path12146" class="st0" d="M29.6,80.2c0.3,0,0.6,0.6,1.1,0.4c0.3,0.6-0.6,0.3-0.3,0.8c-0.3-0.3-0.6-0.8-1.1-0.6
		C29.3,80.5,29.6,80.5,29.6,80.2"/>
	<path id="path12150" class="st0" d="M50.7,81.1c-0.6,0.6-1.5,1.4-2.3,1.7c-0.3-0.6-0.3-1.4-0.3-2.3C49,80.2,50.4,80.2,50.7,81.1"/>
	<path id="path12154" class="st0" d="M62.3,80.5c-2.3,0.6-6.7,0-9,0.6c0-0.3,0-0.3,0-0.6C55.9,80.2,59.7,80.2,62.3,80.5"/>
	<path id="path12158" class="st0" d="M66.9,80.5c0.9,0,2.9,0,4.4,0c1.5,0,3.2-0.6,3.7,0.3c-2-0.3-5.5,0.6-7.8,0
		C66.9,80.8,66.9,80.8,66.9,80.5"/>
	<path id="path12162" class="st0" d="M119.1,82.5c0.6,0.3,0.6,0.9,0.8,1.5c-0.6,0.3-1.2,0.3-1.8,0.6c0,0.8,0.6,1.1,0.9,1.8
		c-0.9,0-1.2,0.3-1.8,0.6c0-0.6-0.3-0.8-0.6-1.2c0-0.6,0.8-0.3,1.1-1.1c-1.4-0.8-3.7-2.6-6.1-1.8c-0.3-0.6-0.9-0.6-0.9-1.4
		c0.6-0.3,1.2-0.6,1.8-0.8c1.5,0.8,3.5,1.4,5.2,2.3C118.5,83.1,118.5,82.5,119.1,82.5"/>
	<path id="path12166" class="st0" d="M52.5,80.5c-0.3,0.8-1.2,1.4-2,2c-0.6,0.6-1.5,1.8-2.3,1.5C49.2,82.5,50.7,81.4,52.5,80.5"/>
	<path id="path12170" class="st0" d="M75.7,80.5c2,0.8,4,2,4.9,4C78.8,83.4,76.8,82.2,75.7,80.5"/>
	<path id="path12174" class="st0" d="M80.6,82.8c-1.2,0.3-2-1.1-2.9-1.7C78.8,79.6,81.7,81.1,80.6,82.8"/>
	<path id="path12178" class="st0" d="M105.2,80.8c0.6-0.3,1.2,0.6,1.5,1.1C106.1,81.7,105.7,81.1,105.2,80.8"/>
	<path id="path12182" class="st0" d="M100.9,81.1c0.3-0.3,0.8,0.3,0.8,0.8C101.1,81.7,101.1,81.1,100.9,81.1"/>
	<path id="path12186" class="st0" d="M88.1,81.1c-0.4,0.3-0.6,0.8-0.9,1.1C87.2,81.4,87.5,81.1,88.1,81.1"/>
	<path id="path12190" class="st0" d="M94.2,81.1c1.8-0.3,2.3,2.3,0.8,2.6C93.3,84.3,92.1,81.4,94.2,81.1z M93.3,82.5
		c0.3,1.2,2,1.5,2.3,0C95.3,81.1,93.3,81.1,93.3,82.5"/>
	<path id="path12194" class="st0" d="M99.9,83.7c-1.1,0-2-0.6-2-1.2C97.9,79.3,103.1,82.2,99.9,83.7z M100.5,82.2
		c0-0.8-0.8-0.8-1.1-0.8C96.5,81.9,100.9,85.1,100.5,82.2"/>
	<path id="path12198" class="st0" d="M90.4,81.1c0.6,0,0.9,0.6,1.2,0.8C91.3,82.2,90.7,81.7,90.4,81.1"/>
	<path id="path12202" class="st0" d="M95.9,81.4c0.3-0.6,0.8,0.3,0.8,0.6C96.5,81.7,96.2,81.4,95.9,81.4"/>
	<path id="path12206" class="st0" d="M88.7,81.4c2.6-0.6,2.3,2.9,0.6,2.9C87.8,84.3,87.2,81.9,88.7,81.4z M89.5,83.7
		c0.6,0,1.2-1.2,0.3-1.8C87.5,80.8,87.5,84.3,89.5,83.7"/>
	<path id="path12210" class="st0" d="M77.7,82.8c-0.4,0.9-0.4,1.5,0,2c-0.9,0-1.2,0.6-2,0.6c-0.6-0.3,0-0.6,0-1.1c0,0-0.3,0-0.3-0.3
		c0-0.9,1.1-1.2,0.8-2C76.8,81.9,77.3,82.2,77.7,82.8z M76.2,83.4c0,0,0.3,0,0.6,0c0-0.6-0.3-0.6-0.6-0.6
		C76.2,83.1,75.9,83.1,76.2,83.4"/>
	<path id="path12214" class="st0" d="M56.2,83.4c-0.6,0-0.3,0.8-0.6,1.1c-0.6,0-1.1,0-1.8,0c0-0.8-0.6-1.1-0.6-2
		c3.2,0,5.8-0.6,8.7,0c0,0.6,0.4,1.2,0.4,1.8c-0.4,0.3-0.6,0.3-1.2,0c0.3-0.6,0-0.6,0-1.5c-0.8,0-0.8,1.2-1.1,1.5
		c-0.9,0-2,0.3-2.9,0C56.5,84.3,57.1,83.4,56.2,83.4"/>
	<path id="path12218" class="st0" d="M67.2,82.5c3-0.3,5.6,0.3,8.2,0.3c-0.6,0.9-0.4,1.5-0.6,2.3c-1.1,0-2.3,0-3.2-0.3
		c-0.6,0.3-0.3,1.5-0.8,1.8c-0.9-0.3-1.2-0.6-1.5-1.5c0.6,0,0.6,0,1.2,0c0.3-0.3,0.3-0.8,0.6-1.1c0.6-0.3,0,0.6,0.3,0.3
		c0.3,0,0.3-0.6,0-0.6c-0.6,0-0.6,0.6-0.8,0.8c-1.2,0.3-2.9,0.8-3.8,0C66.6,84,66.9,83.4,67.2,82.5"/>
	<path id="path12222" class="st0" d="M92.1,82.8c0.8,0.6,1.5,1.5,2,2.3C93.3,84.6,92.4,83.7,92.1,82.8"/>
	<path id="path12226" class="st0" d="M97.3,82.8c0.8,0.6,1.2,1.5,2,2C98.5,84.8,97.9,83.7,97.3,82.8"/>
	<path id="path12230" class="st0" d="M102.5,82.8c0.6,0.6,1.2,1.2,1.8,1.8C103.7,84.6,102.8,83.7,102.5,82.8"/>
	<path id="path12234" class="st0" d="M51,82.8c0,0.9,0,0.9-0.3,1.5c-0.6,0-1.1,0.6-1.5,0.3C49.2,84,49.9,83.1,51,82.8"/>
	<path id="path12238" class="st0" d="M79.7,84.6c-0.6,0.3-1.4,0-2-0.3C77.1,82.5,79.4,83.4,79.7,84.6"/>
	<path id="path12242" class="st0" d="M56.8,84.6c0.6,0,1.2,0,1.5,0c-0.3,0.8-0.6,1.1-1.5,1.5c-0.8,0-0.6-1.2-0.6-2.3
		C56.8,83.7,56.8,84.3,56.8,84.6"/>
	<path id="path12246" class="st0" d="M97.1,84c2,0,1.5,3.2-0.3,2.9C95.6,86.9,95,84.3,97.1,84z M96.2,86c0.6,0.6,1.4,0.6,1.7,0
		C98.5,83.7,95.3,84.3,96.2,86"/>
	<path id="path12250" class="st0" d="M93.3,85.4c0,0.6-0.4,1.2-0.9,1.5C88.1,87.2,91.8,81.9,93.3,85.4z M90.7,85.4
		c0,1.2,1.7,1.8,2.3,0.6C93,84.3,90.7,84.3,90.7,85.4"/>
	<path id="path12254" class="st0" d="M118.7,87.7c0.4,0.9,0.9,1.5,1.2,2.3c-0.3,0.8-0.3,2-1.2,2.3c-0.8-0.8,0.6-1.8,0.4-3.2
		c-0.6,0.3-0.9,0.3-1.2,0.6c-2.3-1.1-4-2.9-7.5-3.2c-0.3-0.6-0.6-0.9-0.8-1.8c0.6,0,1.1-0.3,1.4-0.6
		C113.3,85.7,115.6,87.2,118.7,87.7"/>
	<path id="path12258" class="st0" d="M66.4,85.1c-1.1-0.3-2.3-0.3-3.5,0C63.2,84,66.1,84.3,66.4,85.1"/>
	<path id="path12262" class="st0" d="M49.6,84.6c0.3,0,0.6,0,0.8,0c0.3,0.6-0.6,0.3-0.8,0.3C49.6,84.6,49.6,84.6,49.6,84.6"/>
	<path id="path12266" class="st0" d="M53,85.1c0.3,0,0.3,0,0.6,0c0,0.3,0.3,0.9,0.3,1.5C53.3,86.6,53,86,53,85.1"/>
	<path id="path12270" class="st0" d="M67.6,85.1c0.3,0,0.3,0,0.6,0c0,0.6-0.3,1.2-0.3,1.5C67.6,86.3,67.2,85.7,67.6,85.1"/>
	<path id="path12274" class="st0" d="M64.6,85.4c0.4,2.6,0,4.6,0,7.3c-0.3,0-0.6,0-0.8,0c-0.6-2-0.6-5.8,0.3-7.3
		C64.3,85.4,64.3,85.4,64.6,85.4"/>
	<path id="path12278" class="st0" d="M75,85.4h0.4c0,0.6-0.6,1.2-0.9,0.9C74.7,86,74.7,85.7,75,85.4"/>
	<path id="path12282" class="st0" d="M49.6,85.4h0.3c0,2,0,4.9,0.6,7c-0.3,0-0.6,0-0.8,0C48.7,90.3,48.7,87.7,49.6,85.4"/>
	<path id="path12286" class="st0" d="M55.7,86.9c0.6,0-0.6,0-0.3-0.8c0.6-0.4,1.1,0,1.4,0.6c-0.6,1.1-1.1,2.3-2,2.9
		c-1.5,0-2-1.2-3.2-1.5c-0.6,1.5,0.3,3.2,0.6,4.4c-0.4,0.3-0.6,0-1.2,0c-0.6-1.8-1.1-4.9-0.3-7c1.8,0.3,2,1.8,3.2,2
		C54.8,87.2,55.1,86.3,55.7,86.9"/>
	<path id="path12290" class="st0" d="M66.1,85.7c0.3,2,0.6,5.6,0,7.3c-1.8-0.6-0.8-4.9-0.8-6.9c0-0.4,0.3-0.4,0.3-0.6
		C65.8,85.4,65.8,85.7,66.1,85.7"/>
	<path id="path12294" class="st0" d="M63.2,85.7c0.3,2.6-0.3,4.4-0.3,7c-0.3,0-0.6,0-0.9,0C62,90.9,61.4,86.6,63.2,85.7"/>
	<path id="path12298" class="st0" d="M66.6,85.7c1.2,0.6,0.9,2,0.9,3.8c0.3,1.4,0.6,2.9,0.3,3.5c-1.2-0.6-1.2-3.5-1.2-5.2
		c0-0.6,0-0.8,0-1.4C66.6,86,66.6,86,66.6,85.7"/>
	<path id="path12302" class="st0" d="M78.3,86c0.8,1.7,0,4.9-0.3,6.6c-0.3,0-0.9,0-1.2,0c0-1.8,1.2-4.6,0.6-6.6
		C77.7,86.3,78,85.7,78.3,86"/>
	<path id="path12306" class="st0" d="M78.8,86c0.3,0,0.3,0,0.3,0c1.5,0.6,1.8,6.6-0.3,6.6C78.8,90.9,79.4,88.3,78.8,86"/>
	<path id="path12310" class="st0" d="M94.7,86.3c0.6,0,1.5,1.1,1.8,1.7C95.9,87.7,95.3,86.9,94.7,86.3"/>
	<path id="path12314" class="st0" d="M89.2,86.3c1.1,0.3,1.5,1.1,2,1.7C90.7,88.3,89.8,87.2,89.2,86.3"/>
	<path id="path12318" class="st0" d="M80.3,86.3c0.3,0.3,0.3,0.6,0.3,1.1C80.3,87.4,80.3,86.9,80.3,86.3"/>
	<path id="path12322" class="st0" d="M115.9,90c0,0.8,0.6,0.8,0.6,1.8c-0.6,0.3-1.2,0.3-1.8,0.6c-2-0.8-3.5-3.2-6.4-2.9
		c0-0.8-0.6-0.8-0.3-1.8c0.6,0,0.9-0.3,1.8-0.6c1.1,1.5,2.9,2.3,4.9,3.2C115.3,90.3,115.3,90,115.9,90"/>
	<path id="path12326" class="st0" d="M18.9,88c0.8,0,1.4,0.3,2.3,0c0,0.9-0.4,1.8-0.4,2.6c-2.3,0.9-3.7,1.8-5.5,2.9
		c0,0.6,0.6,0.9,0.3,1.2c-0.8,0-1.7,0-2.3-0.3c0-0.9,0.6-1.5,0.6-2.3c-0.3-0.3-1.5,0-2-0.3c-0.3-0.9,0-1.5,0.3-2
		c0.6,0,1.2,0.3,1.5,0.3c0,0.6,0,1.2,0,1.5c2.3,0.3,4-1.2,5.5-2.3C19.5,88.6,18.9,88.3,18.9,88"/>
	<path id="path12330" class="st0" d="M52.2,89.2c1.1,0.3,1.1,2.3,1.7,3.5c-0.3,0-0.6,0-0.8,0C52.5,91.8,51.9,90,52.2,89.2"/>
	<path id="path12334" class="st0" d="M48.1,89.5c0.3,0.6,0.6,2.3,0.6,2.9C47.8,92.1,48.4,90.3,48.1,89.5"/>
	<path id="path12338" class="st0" d="M74.5,90.6c0,2-2.3,2.9-3.2,1.2c-0.3,0.3,0,0.6,0,1.1c-0.6,0-1.5,0-1.8-0.3
		c0-0.8,0.3-1.8,0.9-2.6C72.1,90,73.3,90,74.5,90.6"/>
	<path id="path12342" class="st0" d="M58,90.6c0.3,0.6,0.3,1.2,0.3,2c-0.3,0.3-0.6-0.3-1.1,0c0-0.3,0-0.3,0-0.6
		c-0.6,0.3-1.5,0.8-2.3,0.3c0-0.6-0.6-0.8-0.6-1.5C55.1,90.3,56.8,90.3,58,90.6"/>
	<path id="path12346" class="st0" d="M61.4,90.6c0,0.9-0.3,1.2-0.3,2c-0.6,0-1.1,0.3-1.8,0C59.4,91.5,60,90,61.4,90.6"/>
	<path id="path12350" class="st0" d="M114.4,94.4c0.3,1.4,1.1,2,1.7,3.2c-0.8-0.3-1.1-0.8-2-1.2c-0.6,0.4-0.9,1.2-1.2,1.5
		c-0.6-0.3-0.6-1.1,0-1.8c-1.7-1.4-3.5-4-6.3-3.2c-0.3-0.6-0.6-1.1-0.6-1.7c0.8-0.4,1.4-0.6,2.3-0.6c0.6,0,1.2,0.9,1.8,1.5
		C111.6,92.9,113,93.8,114.4,94.4"/>
	<path id="path12354" class="st0" d="M23.2,91.5c-0.3,0.8-0.6,1.4-0.6,2.3c0.3,0.6,1.5,0.3,2.3,0.3c-0.3,0.8-0.3,1.7-0.3,2.6
		c-1.8,0.8-3.5,2-4.6,3.5c-0.3,0.6,0.6,0.6,0.3,0.8c-0.8,0-1.7,0-2.3,0c0-0.8,0.3-1.1,0.3-2.3c2-0.6,4.1-1.7,4.9-4
		c-1.1-1.2-4.9,1.7-5.8,3.2c-0.6,0-1.4,0-2-0.3c0-0.6,0.3-1.2,0.3-1.8c2,0,3.5-2,5.6-2.9c0-0.6-0.4-0.8,0-1.1
		C21.8,91.5,22.4,91.5,23.2,91.5"/>
	<path id="path12358" class="st0" d="M68.4,91.8c0.3,0,0.3,0.6,0.3,0.8C68.4,92.7,68.4,92.1,68.4,91.8"/>
	<path id="path12362" class="st0" d="M80.6,93.5c0,0.6,0,2.6,0,3.5c-0.9-1.5-1.5-2.9-3.5-2.6c-1.7,0.3-1.1,2.3-2.9,2.9
		c-0.6-2-2.6-4.1-4.6-2c-0.6,0.6-0.8,1.8-1.4,2c-0.9,0-0.6-0.9-1.5-1.8c-0.3-0.6-1.4-1.4-2.6-1.1c-1.7,0.3-1.4,2.9-3.5,2.6
		c-0.8-3.5-4.9-3.2-5.8,0c-0.3,0-0.3,0-0.6,0c-0.8-1.5-1.4-3.2-3.2-3.2c-1.4,0.3-1.8,2-2.6,2.9c-0.3-0.9-0.3-2.6,0-3.5v-0.3
		C58.8,93.2,71,93.5,80.6,93.5"/>
	<path id="path12366" class="st0" d="M117.9,95c-0.3,0-0.6,0.3-0.8,0.3c-0.3-0.8-0.6-1.1-0.6-2C117.3,92.4,117.3,94.4,117.9,95"/>
	<path id="path12370" class="st0" d="M108,95c0,0.3,0,0.8,0,1.4c2.9-1.1,3.8,2.6,2.6,4.9c-0.8,0-2,0-2.9,0c-1.7-1.1-2.9-3.5-5.2-3.5
		c-0.3-0.6-0.6-1.5-0.3-1.8c0.6,0.3,1.8,0.3,2-0.3c0-0.8,0-1.1,0-2C106.1,93.2,106.6,94.7,108,95z M107.5,99
		c0.3-1.7-0.3-3.7-2.6-3.7C103.7,97,106.4,98.1,107.5,99z M108,99.9c0.9,0,2,0,2.9-0.3C111.3,96.7,106.9,96.7,108,99.9"/>
	<path id="path12374" class="st0" d="M42.9,97.6c0,0.8,0,1.8-0.3,2.3c-2.3,0-5.2,0.3-7,0c0.3-0.9,0-2,0.3-2.3
		C38,97.3,40.9,97.3,42.9,97.6"/>
	<path id="path12378" class="st0" d="M43.8,97.6c13.9,0,27.5,0,41.4,0.3c-0.3,0.8,0,1.8-0.3,2.3c-6.9,0-14.4,0.3-20.8,0
		c-6.9,0-13.3,0-20.3-0.3c-0.3-0.6-0.3-1.5-0.3-2C43.5,97.6,43.8,97.6,43.8,97.6"/>
	<path id="path12382" class="st0" d="M85.8,97.9c2.3,0,4.6,0,6.9,0c0.3,0.6,0,1.5,0,2.3c-2.3,0.3-4.9,0.3-6.9,0
		C85.8,99.3,85.8,99,85.8,97.9"/>
	<path id="path12386" class="st0" d="M102.5,100.2c2.3,0.8,3.5,3.2,5.8,4.4c-0.3,0.8,0.4,2,0.4,2.5c-0.9-0.3-0.9-1.1-1.8-1.1
		c-1.2,0-0.8,0.8-1.8,1.1c0-0.6-0.3-0.8-0.3-1.1c0-0.6,0.6-0.6,0.8-1.1c-0.8-1.8-2.6-2.6-3.7-4.1c-0.8-0.3-1.1,0-2,0
		c0-0.6-0.3-0.8-0.3-1.8C101.1,98.7,102.8,98.1,102.5,100.2"/>
	<path id="path12390" class="st0" d="M40.3,101c1.1-0.3,2.6-0.3,3.7-0.3c0.9,0,1.8,0,2.6,0c2.3,2.6,5.6,4.4,6.1,8.7
		C49.6,105.7,45.5,102.8,40.3,101"/>
	<path id="path12394" class="st0" d="M47.8,100.7c1.1,0,2.3,0,3.5,0c0.6,0.6,1.2,1.2,1.2,2c-0.9,0-1.5,0-2,0.3
		c0.3,0.8,1.1,1.8,1.4,2.6c-0.6-0.3-1.4-1.5-2-2.3C49.2,102.5,48.4,101.6,47.8,100.7"/>
	<path id="path12398" class="st0" d="M52.8,100.7c1.1,0,1.8,0.3,2.9,0.3c0.3,0.6,0.8,0.9,0.6,1.8c-0.8,0-1.7,0-2.6,0
		C53.3,102.2,52.8,101.6,52.8,100.7"/>
	<path id="path12402" class="st0" d="M56.8,101c0.9,0,2,0,3,0c0.3,0.3,0.8,0.9,0.6,1.8c-0.9,0-1.5,0-2.9,0
		C57.4,102.2,56.5,101.6,56.8,101"/>
	<path id="path12406" class="st0" d="M64,101c0,0.6,0.3,1.5,0,1.8c-1.4,0.3-3.5,0-3.2-1.8C61.7,101,63.2,100.7,64,101"/>
	<path id="path12410" class="st0" d="M68.1,101.3c0,0.6-0.3,0.9-0.3,1.5c-0.9,0-2,0-2.9,0c0-0.6-0.4-1.2,0-1.8
		C65.5,101,67.2,101,68.1,101.3"/>
	<path id="path12414" class="st0" d="M71.8,101.3c0,0.6-0.3,0.9-0.3,1.5c-0.8,0-2.3,0.3-2.9,0C68.1,100.7,70.4,101,71.8,101.3"/>
	<path id="path12418" class="st0" d="M75.7,101c0,0.9-0.3,1.2-0.6,1.8c-0.6,0.3-2,0.3-2.6,0C71.8,100.7,73.9,101,75.7,101"/>
	<path id="path12422" class="st0" d="M86.6,101.3c-2.3,0.9-4.4,2.3-6.3,3.5c-0.9,0.8-1.8,1.4-2.6,2.3c-0.9,0.6-1.5,1.5-2.3,2.3
		c1.1-3.5,3.5-6.1,6.1-8.1C83.2,101.3,85.2,101,86.6,101.3"/>
	<path id="path12426" class="st0" d="M31.6,101.6c0,0.9-0.3,1.5,0,2.6c-1.5,0.9-3,2.3-4.1,3.8c-0.3,0.6,0.3,0.6,0.3,0.8
		c-0.6,0.3-1.4,0-2.3,0.3c0-0.8,0.3-1.4,0-2.3c2-0.6,2.9-2.3,4.1-3.7c0-0.6-0.3-0.6-0.3-1.1C30.2,101.9,30.7,101.6,31.6,101.6"/>
	<path id="path12430" class="st0" d="M96.8,101.6c0.8,0,1.8,0,2.6,0c0.8,2,1.8,4.1,4.4,4.6c0.3,0.6,0.3,1.2,0.3,1.8
		c-0.9,0-1.8,0-2.3,0.3c-1.2-1.8-2-4.6-4.6-4.4C97.1,103.1,96.8,102.5,96.8,101.6"/>
	<path id="path12434" class="st0" d="M95.6,102.5c0.9,1.1,0.6,2.9,0.9,4.3c0.8,0,1.1-0.3,1.7-0.3c0.6,0.9,0.9,1.8,1.8,2.3
		c-0.3,0.8-0.6,1.8-0.3,2.9c-1.5,0-2.3,0.6-2.6,2c-0.3-0.8-0.3-2.3-0.6-3.2c-0.3-0.6-1.5-0.3-2.3,0c-0.6-1.2-1.2-2.3-1.8-3.2
		c0.3-0.9,0.6-1.5,0.3-2.6C94.5,104.6,95.3,103.9,95.6,102.5z M93.3,106.5c0.8,0.9,1.1,3.2,3.2,2.3c-0.3-1.4,0-3.7-0.9-4.6
		C95.3,105.7,94.2,106,93.3,106.5z M97.1,111.7c0.6-0.3,0.8-1.1,1.8-1.1c0-1.2-0.6-1.5-1.2-2C95.9,108.3,97.1,110.9,97.1,111.7"/>
	<path id="path12438" class="st0" d="M35.7,106.2c-1.1,1.5-2.6,3.2-3.5,4.6c0,0.3,0,0.6,0.6,0.6c-0.3,0.8-1.1,1.2-2,1.5
		c-0.3-0.6-0.3-1.5-0.6-2c-0.6-0.6-1.1,0.3-2,0.3c0-0.6,0-1.1-0.3-1.8c0.6-0.3,1.2-0.6,1.8-0.6c0.3,0.6,0.3,0.8,0.6,1.2
		c1.2-1.2,4.4-3.5,2.3-5.2c0.8-0.3,1.5-0.3,2-0.9C35.1,104.6,34.8,106,35.7,106.2"/>
	<path id="path12442" class="st0" d="M57.7,107.1c0,0.4-0.3,0.4-0.3,0.9c-0.6-0.3-0.6,0.6-0.9,1.1c-0.6,0-1.4,0.3-1.4,0.9
		c0,0.6,0.6,0.6,1.4,0.6c0,0.6,0.3,0.8,0.3,1.4c0.6-0.3,0.6,0,0.6,0c0.6-0.3,0.6-0.8,0.6-1.4c0.8,0,1.1-0.3,1.1-0.6
		c0-0.4-0.8-0.6-1.1-0.6c0-0.6-0.3-0.8-0.3-1.4c1.1,0,1.1,1.1,1.7,1.7c0.9,0,0.6-0.8,0.9-1.1c0.6,0,0.8-0.3,1.1-0.6
		c0-0.6-0.6-0.9-1.1-0.9c0-0.6,0-1.1-0.6-1.4c-0.6-0.3-0.6,0.6-0.9,1.1C58.3,106.8,58.3,107.1,57.7,107.1c0-0.8,0.8-1.1,1.4-1.7
		c0-0.3-0.3-0.3-0.6-0.6c0.3,0,0.6,0,0.8,0c0.4,0,0.6,0,0.9,0c-0.6,0.6,0,1.1,0.8,1.1c0,0.8,0.3,1.1,0.6,1.8c0,1.4-1.4,1.4-1.7,2.3
		c0.3,0.3,0.8,0.6,1.4,0.8c-0.3,0.6,0.3,0.6,0.3,1.1c-0.3-0.3-0.6-0.6-1.4-0.3c0-0.8,0-1.1-0.6-1.4c-0.9,0.6-0.9,2-2.6,2
		c-0.4-0.6-0.9-0.8-1.8-0.8c0-0.8-0.3-1.1-0.6-1.4c0-0.6,0.6-0.9,0.6-1.8c0.6,0,1.4-0.3,1.4-0.8c0-0.4-0.6-0.6-1.1-0.6
		c0-0.6-0.3-0.8-0.6-1.1c-0.6,0-0.9,0.6-0.9,1.1c-0.6-0.3-0.3-0.6-0.6-0.6c0-0.6,1.2-0.6,0.6-1.4c0.6-0.3,0.9,0,1.2,0.3
		c0.3,0.3,0.3,0.6,0.8,0.6C56.8,106.2,56.5,107.4,57.7,107.1"/>
	<path id="path12446" class="st0" d="M73,104.8c0.3,0,0.3,0,0.6,0c0.3,0.6,0,0.8-0.6,0.8C73.3,105.1,73,105.1,73,104.8"/>
	<path id="path12450" class="st0" d="M39.2,108.3c-1.5,2-3,4-4.1,6.3c0,0.3,0.3,0.6,0.3,1.2c-1.1,0-1.4,0.8-2.3,0.8
		c-1.1,0-2-1.4-3.2-1.8c1.1-1.1,2.3,0.9,3.7,0.9c0.4-1.2-0.8-1.8-1.7-2c0.3-0.8,1.1-0.6,2-0.3c0.6-2,4.6-4.4,2-6.4
		c0.9-0.3,1.2-0.8,2-0.8C38.3,107.1,38.5,107.7,39.2,108.3"/>
	<path id="path12454" class="st0" d="M88.7,107.4c0.8,1.1,0,2.9,0.6,4c0.6,0,0.8-0.3,1.5,0c1.4,1.2,1.4,2.6,0.8,5.2
		c-1.2,0.3-2.6,0.3-3.2,1.2c-0.3-0.4,0.3-2,0-3.2c-0.6-0.3-1.2-0.6-2-0.3c-0.6-2.3-0.8-2.9-0.6-5.5
		C87.2,109.1,88.1,108.3,88.7,107.4z M86.6,110.3c0.3,1.1,0.3,2.6,1.8,2.6c0.3-1.2,0.8-3.5,0-4.4C88.4,109.7,87.2,109.7,86.6,110.3z
		 M88.7,116.1c0.6,0.3,1.4-0.6,2.6-0.6c0.3-0.6-0.6-1.8-0.9-2.6c-0.6,0-1.1,0-1.7,0C89,114.1,88.7,114.9,88.7,116.1"/>
	<path id="path12458" class="st0" d="M91.6,110.3C88.7,108.3,93.9,108,91.6,110.3"/>
	<path id="path12462" class="st0" d="M104.3,109.4c0.3,0.3,0.3,0.9,0.3,1.8c-0.3,0-0.8,0-1.1,0c0-0.6-0.4-1.1-0.4-1.8
		C103.7,109.4,103.7,109.1,104.3,109.4"/>
	<path id="path12466" class="st0" d="M26.1,110.3c0,0.3,0,0.6,0,0.8c-0.6-0.3-0.8,0-1.7,0c0-0.3,0-0.6,0-0.8
		C25,110.3,25.5,110,26.1,110.3"/>
	<path id="path12470" class="st0" d="M40.3,110.3c0.6,0.6,0.6,1.1,0,1.7C38.3,112.6,38.3,109.7,40.3,110.3"/>
	<path id="path12474" class="st0" d="M78.5,111.7c1.1,0,1.8,0.9,2.6,1.5c0.3,2,0,4.6,1.8,5.2c0,0.8-0.4,1.7-0.6,2
		c-0.6-0.6-1.4-0.8-2-1.7c0-2.3-0.4-4.4-1.8-5.2c-1.8,0.8-0.8,5.8,0.6,6.3c0,0.9-0.6,1.2-0.6,2c-0.6-0.3-1.2-0.8-1.8-1.1
		c-0.3-2.3-0.6-4.4-1.1-5.8c-0.6-0.3-0.6,0-1.2,0c0.3-0.8,0.9-1.4,1.2-2.3c0.8,0,0.8,0.8,1.7,1.1C78,113.2,78.3,112.6,78.5,111.7"/>
	<path id="path12478" class="st0" d="M53,113.5c-0.3,2-1.2,3.5-0.8,5.5c-0.9,0.3-2.3,0.3-2.6,1.1c0.6,0.9,1.1,1.8,2,2.3
		c0,0.9-0.8,0.9-0.8,1.8c-1.8-1.8-2.6-3.8-4.4-5.5c0.6-1.8,1.2-3.2,1.2-5.5c1.1-0.3,2-0.9,2.9-1.5C51.3,112.3,51.6,113.2,53,113.5z
		 M49.2,113.5c0,2-2.3,5.2,0.4,6.1c1.4-0.6,0.8-3.5,1.7-4.9C50.7,113.8,50.2,112.3,49.2,113.5"/>
	<path id="path12482" class="st0" d="M44.7,112c0.6,1.5-1.2,5.2,0.6,6.4c-0.8,0.3-0.8,1.1-1.8,1.1c-0.6-0.6-0.6-1.4-0.8-1.7
		c0.6-0.9,0.8-3,0.6-4.1c-1.4,0.3-2.9,2-2,3.7c-0.6,0-1.1,0.6-1.7,0.4c-0.3-0.6-0.3-1.8-0.6-2.3C41.4,114.9,42.9,113.2,44.7,112"/>
	<path id="path12486" class="st0" d="M95,112.6c0,1.7-2.3,1.1-1.4-0.6C94.5,111.7,94.7,112,95,112.6"/>
	<path id="path12490" class="st0" d="M38,113.8c0,0.6,0.6,0.6,0.3,1.1C37.1,116.9,35.4,112.9,38,113.8"/>
	<path id="path12494" class="st0" d="M72.1,120.7h0.3c0.4,0.3,0,0.8,0,1.1C72.1,121.6,71.6,121.3,72.1,120.7"/>
	<path id="path12498" class="st0" d="M55.7,121c0.8,0.3,1.8,0.8,0.8,1.7C56.2,122.4,55.7,121.6,55.7,121"/>
	<path id="path12502" class="st0" d="M44.4,17.5c0,0.6-0.4,0.8-0.4,1.4c-0.8,0-1.1-0.8-2-0.6c-0.9-2.3-1.5-4.6-2.9-6.1
		c0.3-0.6,0.6-1.5,0.8-1.8c1.8,0,1.4,3.2,2.3,3.8C42.6,15.1,42.9,17.2,44.4,17.5"/>
	<path id="path12506" class="st0" d="M66.4,23.2c0.6-0.3-0.3-0.6,0-1.1c3.2,0.6,10.1-0.4,14.8,0.6c-0.3,0.8-1.8,0.3-2.3,0.3
		c0.6,1.1,2,2.3,2.3,4c0.3-0.8,0.3-2.9,0.3-4.3c1.8,0.8,3.5,2.6,5.5,4c1.8,1.5,3.5,3.2,5.5,4.4c-1.7-0.3-6.6-1.8-7.5,0.6
		c-0.3,0.9,0,2.3,0,3.8c-0.3,4-0.3,10.4-0.3,14.2c-1.1-0.6-1.7-1.5-2.9-2c2.6,2.3,5.8,4.4,8.4,6.7c0.3-1.5,0-5.2,0.3-7.5
		c0.9,2.6,0,6.1,0.6,8.1c0-0.6,1.1,0,0.8-0.8c0.3-0.9-0.8-0.4-0.8-1.2c0-0.3,0.3-0.6,0.6-0.6c0.3-0.3-0.6-0.6-0.3-0.8
		c0.6,0,1.1,0,1.7,0c-0.3,0.8,0,1.1,0.6,1.1c0,0.8-0.9,0.8-1.2,1.1c0,0.9,0.9,0.6,0.9,1.2c0.3,0.8-0.6,0.3-0.9,0.8
		c0,0.9,1.5,0.6,1.2,2c-4.1-3.2-8.4-6.1-12.2-9.3c0-0.6,0-1.1-0.3-1.4c-0.8,0-2,1.1-2.9,0.3c-0.6,0.6-1.5,1.1-2,1.8
		c0.8,0,1.5-1.2,2.3-1.5c-0.6,2-1.8,3.2-2.6,4.6c-0.6,0-0.9,0-1.2,0c2,1.8,3-2.9,4.1-4.1c0.3,4.9-2,11.3-2.3,16.5
		c1.5-3.8,2.3-9.3,2.9-14.2c0.3-0.8-0.3-2.6,1.2-2.9c0,6.7-0.3,13.9-0.3,20c-0.6,0.6-1.5,0.8-1.8,1.7c-0.8-0.6-2.3-0.6-3.5-0.8
		c0-3.5-0.3-7.5-1.7-9.9c0.6-2-1.2-2.9-1.8-4.3c0.8-1.2,1.5-2.3,2-3.5c0.6,0.3,1.8,1.5,2.3,0.3c-0.9,0.4-2-0.6-2-1.1
		c0-1.5,3.8-2,4.4-3.5c-1.5,0.6-2.3,1.7-4.1,2.3c0-2.3,3.2-1.2,3.5-3.2c-1.2-0.6-2.3,0-3.8,0c0.3,3.2-0.8,7.3-3.2,8.1
		c0.6-1.4,2.3-2,2.3-4.3c-0.9,1.4-1.2,3.5-3.2,3.7c-0.6-0.6-0.6-1.7-1.7-2c1.1-0.6,2.6-1.1,2.6-2.9c0.8,0.3,2,0,2.3,1.2
		c1.7-7-4.6-12.7-12.5-10.4c-3.2,1.8-5.8,4.9-5.2,9.5c0.6,2.3,1.8,3.5,2.9,5.2c-2.3-0.8-3.5-4-3.5-7.5c0.3-5.5,6.1-9.6,11.8-8.4
		c3.5,0.9,6.1,3.8,7.3,7c2.3,0,4.6,0,7,0c0,0.6-1.2,0.6,0,0.6c-0.3,0.9-1.2,1.2-2,1.5c0.8,0.3,1.5-0.9,2.3-0.9
		c-0.3-2.3,0.6-4.6,0-6.6c-0.6-1.8-2-2.6-3.5-3.5c1.7-1.2,4-2.6,3.5-5.2c-0.8,2.9-3.2,4-6.7,4.6c2.9,1.5,5.8,3,6.4,7
		c-0.3,0-0.9,0-1.2,0c-2-6.3-11.3-5.5-14.4-10.7c-1.5,3.5-5.5,3.7-7.8,6.3c-0.3,0.6,0,1.5-0.3,1.8c-0.9,0.3-1.2-0.6-1.8-0.6
		c-2.6-0.8-4.1,2-5.2,3.5c0.3-2.6,3.5-5.2,6.1-3.5c1.5-4.4,8.7-3.8,8.4-8.9c0.9,0,1.2,0,1.8,0c0.8,1.7,2.3,3.2,4.4,3.7
		c-0.6-0.8-2.3-2.6-2.3-4.4c-1.8,0-5.2,0.3-7.3,0c2.3-0.8,4.9-0.3,7.3-0.3c0-1.1,0-1.7,0.3-2.6c0,0-2,1.2-2,0
		c-0.3,0-0.3,0.6-1.1,0.3c0.6,0.3,0.6,0.9,0.3,1.2c-0.6,0-0.8,0-0.8-0.6c-0.4,0.8-0.6,0-1.5,0.6c-0.6,0-0.6-0.9-0.8-1.2
		c-0.9,0-1.8,0.3-2-0.3c1.1,2.6,0,5.5-1.5,7c1.8-0.6,2.9-2,3.8-3.5c0.3,0,0.8,0,1.1,0c-2,6.9-13,5.1-15.1,12.4c-0.3,0-0.6,0-0.8,0
		c-0.3-4,3.2-5.5,6.4-6.9c-3.5-0.6-5.6-2.6-6.7-5.5c-1.2,2.9,1.1,4.3,2.9,5.5c-2.3,1.4-3.7,3.7-3.2,7.5c0.6,0.4,2.9-0.6,3.5,0
		c-0.6,0.9-1.8,0.4-3.2,0.6c-0.3,1.1,0,2.9,0,4c-1.2,0.6-2,1.5-3.2,2c-0.3-3.5,0-7.8,0-12.2c-0.3-2.3,0-6.1-1.2-7.2
		c-2.6-1.8-6.3-0.3-8.7,1.1c3.7-3.2,7.8-6.1,11.8-9.2c4.1,0.3,9.3-0.4,13.7,0c0.3,1.1-1.2,0.8-2,0.8c0.6,0.8,1.8,2,2.3,3.2
		c-0.3-1.1,1.4-1.4,2-2.3c1.4,0,2,0.9,3.5,0c-2.6,0-3.7-0.6-5.5-0.8c0-0.3,0-0.3,0-0.8c1.1,0,1.4,0.6,1.8,0.6
		c0.3,0.6,0.6-0.6,1.1-0.6C64.3,23.2,66.4,21.5,66.4,23.2z M47.8,27.9c0.3-2.3,1.8-3.5,3.2-4.9c-1.1,0-2.3,0-3.2,0
		C47.6,24.4,47.3,26.7,47.8,27.9z M66.9,23.8c0.6,0.9,2,0.9,1.8,2.3c0.6-1.4,1.5-2.3,2.3-3.2C69,22.9,67.8,22.9,66.9,23.8z
		 M71.6,27.3c1.5-0.4,2.6,0.6,3.8,0.3c2.9-0.6,2-4.6-0.6-4.6c-2.9,0-5.8,3.2-5.2,6.1C70.4,28.2,70.4,27.6,71.6,27.3z M54.2,23.2
		c-0.8,0.3-1.7,1.5-1.4,2.3c0,2.6,2.9,1.4,4.6,2.3c1.7,0.6,1.1,1.7,2,3.2C60.9,27.6,58.3,22.4,54.2,23.2z M48.7,28.7
		c0,1.8,2,4.4,3.8,2.9c2.6-2.3-2.6-5.5-0.3-8.1C50.7,24.1,48.7,26.1,48.7,28.7z M75.4,29.9c-0.4,1.7,0.8,3.5,2.9,2.9
		c3.2-0.9,2.6-8.4-0.6-8.7C79.4,26.7,76.5,28.7,75.4,29.9z M75,32.5c-1.1-1.5-0.3-4.1-2-4.4c-1.8-0.6-2.9,0.6-3.2,2
		c0,2.6,3.2,4.3,6.7,3.5C75.9,33.1,75.7,33.1,75,32.5z M57.1,28.7c-3.8-0.3-2.6,4.4-6.1,4.4C53.9,36,61.4,32.5,57.1,28.7z
		 M76.5,58.5c0-2,0.6-4.6,0.8-6.1C76.5,53.9,75.7,56.5,76.5,58.5z M75.9,64.6c-0.9-3.8,0.3-9.6-2.6-11.6
		C75.4,55.9,74.7,61.1,75.9,64.6z M76.8,65.2c1.2,0.6,0.6,2.6,1.5,3.5c0.3-0.8-0.9-1.8-0.3-2.6c0.8,0.3,0.8,1.2,1.4,1.8
		C79.9,66.3,77.7,64.6,76.8,65.2"/>
	<path id="path12510" class="st0" d="M84.6,97c-0.8,0.3-2.6,0.3-3.5,0c0-16.2,0-31.3,0.3-47.5c3.7,2,7,4.9,10.4,7.3
		c0.6,1.1,1.5,1.7,1.8,3.2c0.6-3.8,0-9.6,0.3-13c0.6,3.7,0,8.7,0.3,12.7c1.1-0.6,0.3-2.6,1.4-3.2c0.6,0,0,0.6,0,0.6
		c0.9,0,0.9-0.6,0.9-1.5c-0.3-0.6-1.2,0.3-1.5-0.6c0-0.8,1.5,0,1.5-0.8c0.3-0.9-0.3-0.6-0.6-1.2c0.3-0.8,1.1-2.3,0.3-3.5
		c-0.6,0.3-1.5,0.3-1.8-0.6c0.3-0.6,0.8-0.6,1.8-0.6c0-0.3-0.3-0.3-0.6-0.3c0.6-0.6,1.8-0.3,2.3-0.3c0,0.6-0.6,0.3-0.8,0.6
		c0.3,0.6,1.8-0.3,1.8,0.6c0,0.6-0.6,0.6-1.5,0.8c-0.3,0.3-0.3,0.3-0.3,0.8c0.6,0.9,0,1.5,0.8,2.3c-0.3,0.3-1.1,0-0.8,0.6
		c-0.3,1.5,1.5,0.4,1.1,1.5c0.4,0.6-0.6,0.3-1.1,0.3c0,0.8,0.6,1.5,0.8,2c0.3-0.3-0.8-0.8,0-1.2c1.2,0.9,0.6,2.6,1.2,4.1
		c0.6-4.6,0-9.6,0.3-13.3c1.1,3.7,0,8.1,0.6,13.3c0.3-1.2,1.2-2.9,1.2-4.6c-0.3-0.3-1.2,0-0.9-0.6c0-0.8,1.2-0.3,1.2-1.1
		c0-0.6-0.9-0.4-1.2-0.9c0-1.1,1.2-0.6,0.3-1.7c0.6,0,0.9-0.4,0.9-1.2c0-0.6-0.9-0.6-1.2-0.8c0-0.9,0.9-0.9,0-1.5
		c0.9,0,1.8-0.3,2.3,0c-1.1,0.6,0.3,0.6,0,1.8c0,0.3-0.3,0.3-0.8,0.3c0,0.3,0,1.8,0.8,1.5c-0.8,0.8,0.3,0.8,0.3,1.4
		c-0.3,0.6-1.1,0.6-1.1,1.2c0,0.8,0.8,0.6,1.1,0.8c0,0.6-0.3,0.8-1.1,0.6c0,1.8,0.3,3.2,1.1,4.1c0.3-4.1,0.3-9.6,0-12.7
		c-4.3-0.3-9.2,0-13.6,0c0-0.3,0-0.6,0-0.9c4.9-0.3,10.7-0.6,15.3,0c0,0.9-0.8,0.6-1.1,0.9c0.3,4.6,0,10.1,0.3,14.7
		c-1.5-0.6-1.5-2-2-3.5c-1.5,0.3-0.8,2.9-2.3,3.5c0.3,1.5,2.3,2,2.3,3.2c-2.3-1.2-3.2-4.1-4.9-5.8c-1.8,1.5-2.3,4.4-4.4,5.8
		c1.5-2.3,2.6-4.6,4.4-6.7c0.8,0.6,1.1,2,2,2.6c-0.3-1.1-1.2-2.3-1.8-3.5c-1.5,1.1-2,2.9-3.2,4.3c-0.6-0.8-0.9-2.3-1.8-3.2
		c-0.8,0.8-0.8,2.3-1.8,3.2c-0.6-1.4,0.4-2.6-0.3-4.6c0.6,0.8,0.3,2.3,0.6,3.2c0.6-0.6,0.8-1.8,1.1-2.6c-1.1-0.8-6.1-2.3-7-0.3
		c-0.6,1.4-0.3,4.3-0.3,6.1c-0.3,6.1,0,11.3,0,16.2C84.6,84.8,84.3,91.5,84.6,97"/>
	<path id="path12514" class="st0" d="M54.5,57.4c0-1.8,1.4-1.8,2.3-2.3c0.4-1.5-0.6-1.8-1.1-2.9c0.6,0,1.5,1.4,2,2
		C57.4,55.3,56.2,57.4,54.5,57.4"/>
	<path id="path12522" class="st0" d="M53.3,60.8c0.8,0.3,0.6,2.9,0.6,3.8c3.8-2.3,6.1,2.3,9.9,1.7c0.6,0,1.2-0.6,1.8-0.3
		c-0.6,0.6-1.8,0.8-2.9,0.8c0.3,0.9,2,0.4,2.9,0.4c-1.2,1.4-3.5,1.1-4.9,0c0.3,0.6,1.4,2,2.6,2c3.7,0,6.6-7.8,11-3.7
		c2,4-3.5,8.9-1.1,11.8c-0.3,0.3-0.9,0-1.5,0.3c-0.3-0.8-0.6-1.7-0.8-2.9c-0.3,0.9,0.3,2.3,0,2.9c-0.3,0-0.6,0-0.9,0
		c-0.3-0.6,0-1.7,0-2.3C69,75.6,69.5,77,69,77.6c-0.6-2.6,2-5.2,2.3-8.1c-1.1,2.6-2.9,4.9-3.5,8.1c-0.6,0-1.2-0.3-2.3,0
		c1.7-3.2,3.5-5.8,4.9-9.2c-1.8,3.2-3.5,6.3-5.8,9.2c-0.8,0-1.7,0-2.6,0c-1.4-3.2-2.9-6.1-4.6-8.7c0.6,2.6,2.9,5.2,3.2,8.7
		c-1.2,0-0.8-1.1-1.2-1.7c-0.3,0.6,0.4,0.8,0,1.7c-0.3,0-0.8,0-1.1,0c0-1.1,0.6-2,0-2.9C58,75.9,58,77,57.1,77.6c-0.4,0-0.9,0-1.5,0
		c0.3-1.1,1.8-2,1.1-3.7c-0.3,0,0,0.6-0.3,0.6c-0.8-0.3-0.6-0.8-0.8-1.7c-0.8-2.3-3.2-5.5-1.8-8.1C53,64,53,62,53.3,60.8z
		 M63.8,73.9c-0.6,0-0.8-0.6-1.4-0.8c2,4.6,6.1-4.1,6.3-5.5C67.2,69.8,66.1,72.4,63.8,73.9z M63.8,72.4c1.2-0.3,2-2.3,2.6-2.9
		c-1.1,0.6-1.8,1.8-2.9,2.3c-1.8-0.8-2.9-2.6-4.6-3.7C60,69.2,61.7,72.7,63.8,72.4z M63.5,76.5c0.8-0.3,1.8-1.1,2-2.3
		c-0.9,0.3-1.2,1.2-2,1.5c-2-1.8-3.2-4.6-5.2-6.7C60,71.5,61.1,74.7,63.5,76.5z M71.6,75.3c0.6,0,0.6-1.5,0.3-1.2
		C71.8,74.7,71.6,74.7,71.6,75.3"/>
	<path id="path12526" class="st0" d="M60.3,59.1c2.9,0,4.3,1.2,6.3,2c0,0.6,0.3,1.2,0.3,2c-1.7-0.3-2.9-1.1-4-0.3
		c-0.6-0.3-0.9-0.6-1.2-1.2c0-0.6,0.3-0.8,0.6-1.4C62,59.4,60.6,60,60.3,59.1"/>
	<path id="path12530" class="st0" d="M41.8,73.3c-1.2-1.2-2.3-1.5-3.5-2c-0.3,0.6,0.9,1.1,1.2,1.8c-0.9,0-1.5-0.9-1.8-1.5
		c-0.6,0.3-0.6,1.5-1.8,1.5c0.3-0.9,1.2-0.6,0.9-1.8c-0.6,0-0.6,0.6-1.5,0.6c0-0.3,0-0.6,0-0.6c0.3-0.6,1.2-0.6,2-0.8
		c0-1.5-0.8-1.2-1.2-2.3c-0.3,0.3,0,1.1-0.3,1.4c-0.6-0.3,0-1.4-0.6-1.4c-0.3,0.3-0.3,1.4-0.6,1.7c-0.3-0.3,0-1.7-0.6-2.3
		c-0.6,0.6,0,2-0.3,2.9c-0.4-0.9,0-2.3-0.6-3.2c-0.3,0.8,0,2.5-0.3,3.7c-0.6-0.8-0.6-3.5-0.3-4.6c2-0.3,3.5,1.8,4.6,0.3
		c0.3-0.8-0.6-0.6-0.6-1.1c0.3-0.3,0.6-0.6,1.1-0.3c0.3,0.3,0.3,0.8,0.3,1.7c1.8,0.9,2.3-1.4,4.1-1.4c0.8,1.8,0.3,3.5,0.6,5.5
		c-0.6-0.8-0.3-2.9-0.6-4.4c-0.6,0.9-0.3,2.3-0.3,3.8c-0.6-0.6,0-2.6-0.6-3.5c-0.6,0.6-0.3,2-0.3,3.2c-0.6-0.6-0.3-1.8-0.6-2.6
		c-0.6,0.6-0.3,1.1-0.6,2.3c-0.6-0.3-0.3-1.1-0.3-2c-0.9,0-0.3,0.8-0.6,1.4c-0.4,0.3-0.6,0-0.4-0.3c-0.6,0-0.6,0.6-0.6,1.2
		c1.2,0.6,1.8,2.3,4.1,2.3c-0.3,0.4-0.3,0.6,0.3,0.6C42.6,73.3,41.4,72.4,41.8,73.3"/>
	<path id="path12534" class="st0" d="M115.6,79.3c-0.8,0,0,0.6-0.3,0.8c-0.6,0-0.6-0.6-0.6-0.8c1.4-1.1,2.6,0.3,3.5,1.2
		c0.6-0.4,1.5-0.4,1.8-1.2c-2-0.3-5.2-2.3-6.7-0.3c-0.6-0.3-0.8-0.8-1.1-1.1c0.3-0.9,1.1-1.2,1.8-1.8c1.7,0.6,3.2,1.4,5.5,1.4
		c0.6,1.2,1.1,1.8,2,2.6c-0.8,0.6-2,1.2-3.2,1.5C117.9,80.2,117.3,79.1,115.6,79.3"/>
	<path id="path12538" class="st0" d="M75.4,110.6c6.6-2.3,13.3-5.2,18.5-9c4.6-4.6,9.6-8.9,12.5-15.3c-2.3,2.6-5.8,5.2-10.1,5.2
		C84.6,91.2,83.7,75.9,85.8,64c4.9,0.6,9.8,1.5,14.7,1.2c0.6,0,0.9-0.6,1.5-0.6c1.1,0,2.3,0.3,3.7,0.3c2-0.3,3.8-0.9,5.8-1.2
		c0.6-4.9-0.9-9.5-2.3-13.6c-4.1-12.7-12.2-22-23.2-27.7c0,0,0-0.3-0.3-0.3c0,0,0,0,0.3-0.4c0,0,0,0.4,0.3,0.4
		c8.4,4,14.8,10.4,19.4,18.5c4.9,8.1,7.5,18.4,6.1,30.6c-1.5,10.4-6.4,19.1-12.5,25.8C93,103.6,85.2,108.8,75.4,110.6z M102,88.9
		c1.5,0,1.1-2.6,2.6-2.3c0.3-0.3,0.6-0.6,0.3-1.2c0.8,0.3,1.2-1.1,1.5-2C104.6,85.1,103.1,86.9,102,88.9z M107.5,79.9
		c-6.3,0.6-14.2,0.9-21.1,0.3c-0.3,1.2,0.3,2.3,0.8,3.2c0.3,1.1,0.6,2.6,1.5,2.6c0.6-0.6-1.2-0.9-0.6-1.5c0.6,0.3,0.6,0.8,1.1,0.8
		c1.5-1.4,2.3-3.2,3.7-4.3c-1.1,2-2.6,3.5-4.3,5.2c0.6,1.4,1.4,2,2.6,2.6c2.6-2.3,4.3-5.5,6.9-7.8c-2,2.9-4.6,5.2-6.6,8.1
		c0.8-0.3,0.8,0.8,1.8,0.8c0.3-0.6-0.6-0.8-0.6-1.4c0.3-3,5.2,0.3,1.8,1.7c1.5,0.3,2-1.1,2.6-2c2-2.6,4.1-5.5,6.4-7.5
		c-0.9,1.7-2.6,2.9-3.8,4.9c0.8,0.6,1.8,1.2,2.3,2.3C104,85.4,106.9,84,107.5,79.9z M110.4,65.2c0-0.3,0-0.3-0.3-0.3
		c-7.3,1.4-16.5,1.1-23.7,0.3c-0.8,1.4-0.6,4-0.6,5.8c1.4-1.5,2.9-3.7,4.3-4.9c-0.6,1.2-1.4,2-2.3,2.9c-0.8,1.2-2.3,2-2,3.8
		c3.2,0.6,7.2,0.8,11.3,0.8c2.3,0,4.9,0,7.3-0.3c-0.3-1.2-1.8-1.8-1.8-2.6c0.6,0.6,0.9,1.4,1.8,2c0.3-0.4,0.8-0.9,0.6-1.2
		c-3.5,0.6-0.8-4.6,0.8-1.8c0.4-0.8-0.8-0.8-0.8-2c0.6,0.3,0.6,1.1,1.5,1.4c0-0.6,0.3-0.3,0.3-0.8c-2.6,0,0.3-4.1,1.7-1.5
		c0-0.8-0.8-0.8-0.6-1.1c0.6,0,0.6,0.3,0.6,0.6C109.2,66,109.5,65.5,110.4,65.2z M111.6,65.2c-4.6,2-9.9,11.5-2.3,14.4
		C110.4,75.3,111.8,70.4,111.6,65.2z M106.9,68.4c0.3-0.6,0.8-0.8,0.8-1.5C106.6,64.9,104.3,68.1,106.9,68.4z M105.2,71.2
		c0.3-0.6,0.3-0.8,0.3-1.5C103.1,67.8,102.5,72.7,105.2,71.2z M85.8,73.9c-0.3,0-0.3,0-0.3,0.3c0,2.3,0.3,4.1,0.6,5.8
		c6.6,0.3,14.4,0.3,20.8-0.3c-0.6-1.4-2.9-2.9-2.6-5.8C98.5,74.1,91.6,74.1,85.8,73.9z M99.4,85.7c-1.2,1.8-2.6,3-3.5,4.6
		c0.6,0,1.4,0,2,0c0.3-0.3-0.8-0.8-0.6-1.4c0.6,0.3,0.8,0.8,1.2,1.4c0.6,0,1.1,0,1.4-0.6c-2.3,0.3-2.3-2.3-0.8-2.6
		c1.8-0.3,2.3,1.8,1.1,2.6c0.9,0,1.5-0.8,1.8-1.8C101.1,87.4,100.5,86.3,99.4,85.7z M98.2,88.6c0.6,0.8,1.8,1.1,2.3,0.3
		c0-0.6-0.3-0.9-0.6-1.5C98.8,87.4,98.5,88,98.2,88.6z M93,88.9c0.4,0.8,1.5,1.1,2.3,0.6C96.2,87.4,93,87.2,93,88.9"/>
	<path id="path12542" class="st0" d="M105.7,81.7c0,0.3,0.4,1.1,0,1.8C102.5,85.4,102.5,79.3,105.7,81.7z M104.6,81.4
		c-0.6,0-0.3,0.3-0.8,0.3C102.5,85.7,107.5,81.7,104.6,81.4"/>
	<path id="path12546" class="st0" d="M102.5,84.3c1.5,0.6,1.2,2.3-0.3,2.6C100.2,87.2,100.5,83.1,102.5,84.3z M101.1,85.7
		c0.6,2.3,3.2-0.8,1.4-1.4C101.7,84,100.9,84.8,101.1,85.7"/>
	<path id="path12550" class="st0" d="M79.9,85.7c-1.1-0.3-2.9-0.3-3.7,0.4c0.3,0.3,0.8,0,0.8,0.3c0,2.6-0.6,4.6-1.1,6.3
		c-0.6,0.3-1.2,0.3-1.5,0c0.6-1.8,1.5-3.5,1.5-5.8c-0.6,0-0.3,0.8-0.3,1.4c-1.5,2.3-4.4,0.6-4.9-1.1c0.3-0.6,0.6-1.5,1.4-1.1
		c0.3,0.6-0.6,0.6-0.6,1.1c0.3-0.3,1.8-0.3,2,0.6c2-0.8,2.6-2.9,5.8-2.9C79.4,85.4,79.9,85.1,79.9,85.7"/>
	<path id="path12554" class="st0" d="M77.7,103.4c-0.4-0.6-1.2-0.3-1.8-0.3c0-2.3,1.8-1.8,4-1.8c-0.8,1.2-2.3,2-2.9,3.5
		C76.8,104.6,77.3,103.9,77.7,103.4"/>
	<path id="path12558" class="st0" d="M76.2,104.2c-2,4.1-1.8,10.1-2.6,15.1c-0.6,4.1-2.6,7-7,7.8c-3.7,0.6-8.9-0.3-10.1-3.5
		c0.6-0.3,1.5,1.1,2,1.4c0.3-0.3,0.8-0.3,0.8-0.8c0-0.6-0.8-0.6-1.4-0.8c0.3-0.6,0-0.9-0.3-1.2c-0.9,0-0.9,0.8-1.5,1.2
		c-2.9-4.9-1.4-14.5-4.4-19.4C60.9,103.6,67.6,103.6,76.2,104.2z M53,104.6c0.6,2.5,1.5,4.9,1.8,8.1c1.7,0,3.2,0,4.6,0
		c0.9,0,2,0,3,0c0-3.2-0.4-4.9-0.4-8.1C59.7,104.6,55.9,104.2,53,104.6z M64,114.3c-1.1,0.3-2.9,0.3-4.3,0c-1.8,0-3.5,0-4.9,0.3
		c2,0.3,3.5,0.3,4.9,0.3c1.4,0,2.9,0,4.3,0c0,3.5,0,7.8,0.3,11.6c0.3-3.5-0.3-8.1,0.3-11.6c2.3-0.3,4.9,0,8.7-0.3
		c-0.9-0.3-2.6-0.3-4.4-0.3c-1.4,0.3-3.2,0.3-4.4,0c-0.6-3.5,0.4-6.6-0.6-9.8C64,107.4,64.3,111.5,64,114.3z M69.5,107.1
		c0-0.8-0.3-1.1-0.6-1.4c-0.6,0-0.8,0.6-0.8,1.4c-0.6,0-0.6,0.4-1.2,0.6c0.3-1.2,1.2-1.8,1.5-2.6c-0.6-0.3-0.8-0.6-2-0.6
		c0.3,2.5-0.3,6.1,0.3,8.1c1.2,0,2.3,0,3.5,0c1.1,0,2.3,0,3.7-0.4c0.3-2.6,0.6-4.9,0.3-6.6c0.6,0,0.3,0.3,0.6,0.6
		c0-0.6,0.6-0.8,0.6-1.4c-2-0.3-4.9-0.3-7,0c0,0.3,0.3,0,0.6,0c0.3,0,0.6-0.3,0.8,0.3c-0.3,0-0.8,0-0.6,0.6c0.6,0.6,1.5,0.6,1.5,1.8
		c1.4,0.6,2.3,1.1,3.2,2.6c-0.8,0.6-1.1,1.7-2.3,2c0.3-1.1,1.2-1.4,1.8-2c0-0.9-0.9-0.6-1.5-0.9c0-0.6,0-0.8-0.6-0.8
		c-0.8-0.3-0.6,0.8-0.8,1.1c-0.6,0-1.2,0.3-1.2,1.2c0.3,0,0.6,0.3,1.2,0.3c0,0.3,0.6,0.8,0.3,1.1c-0.9-0.3-1.2-1.1-2-1.4
		c-0.6,0.3-0.8,1.7-1.8,1.4c0.3-0.8,0.9-1.4,1.5-1.7c-0.3-0.9-1.2-1.2-1.5-2.3c1.2,0,0.9,1.4,2,2c0.3-1.2,1.5-1.5,1.8-2.3
		c0-0.3-0.3-0.3-0.6-0.3C69.8,107.4,69.5,107.4,69.5,107.1z M66.4,116.7c0.3,3.7,0,6.7,0,9.6c2,0.3,7.5-3.2,4.9-4.6
		c-0.6,0-0.3,0.8-0.6,1.1c-0.9,0-1.5,0.3-1.8,0.9c0.3,0.6,1.5,0.3,1.5,0.8c-0.3,0-0.6,0.6-0.9,0.3c0-0.6-0.3-0.8-0.8-0.8
		c-0.3,0.8-0.8,1.1-1.8,1.4c0.3-0.8,1.2-1.1,1.5-2c-0.6-0.4-1.5-0.9-1.5-2c0.9,0.3,1.2,1.4,2,1.7c0.3-0.8,1.5-1.1,2-2
		c-0.8-0.3-1.2-1.2-2-1.8c-0.3,0.8-1.4,1.8-2,1.8c0-1.2,1.2-1.2,2-1.8c-0.3-0.8-1.8-0.8-1.8-2c1.2,0,1.2,1.2,2,1.5
		c0.6-0.8,1.5-1.5,2.3-2c0.3,0.6,0.8,0.8,1.5,1.2c0,0.6,0,0.8-0.6,0.8c-0.6-0.3-0.3-1.5-1.1-1.5c-0.3,0.9-1.1,1.5-1.8,1.8
		c0,0.8,0.6,0.8,1.2,0.8c0,0.6,0.3,0.9,0.8,0.9c0.6,0,0.3-0.9,0.8-0.9c0.4,0,0,0.3,0.6,0.3c0-1.1,0.6-2.6,0-3.7
		c-1.2,0.3-2,0.3-3.2,0.3C68.7,116.7,67.6,116.7,66.4,116.7z M61.1,119v-0.3C61.1,119,61.1,119,61.1,119c0,0.3,0,0.3-0.3,0.3
		c-0.3-0.3-0.6-0.3-0.6,0.3c0.6,0.3,1.4,1.2,1.1,1.8c-0.6,0-0.6-0.3-0.8-0.9c-0.3-0.3-0.3-0.8-0.8-0.8c-0.4,0.3-0.4,1.2-0.6,1.5
		c-0.8,0-1.1,0.3-1.4,0.6c0,0.8,1.1,0.6,1.4,1.1c0,0.6,0.3,0.9,0.6,1.2c0.8,0,0.8-0.9,0.8-1.5c0.3,0,0.6,0,0.6,0
		c0.3-0.3,0.6-0.3,0.6,0c0,0.9-1.1,1.2-1.4,1.8c0.3,0.8,1.1,0.8,1.4,1.8c-1.1,0-0.8-1.2-2-1.5c-0.4,0.3-0.4,0.8-0.4,1.1
		c0.9,0.6,1.5,0.6,2.6,0.6c0.6-3.2,0-6.1,0-9.6c-1.1,0-2.6,0-4,0c-0.8,0-2,0-2.6,0c-0.8,1.2,0,2.6,0,4.1c0.3,0,0.3,0,0.6-0.4
		c0-0.3,0-0.3,0.3-0.3c0.9,0.3,0.6,1.2,0.9,1.5c0.8-0.6,1.7-1.5,2.3-2.3c-0.6-0.6-1.4-0.6-1.4-1.8c-0.3,0-0.3,0-0.6,0
		c-0.3,0.6-0.9,1.8-1.8,1.5c0.6-0.8,0.8-1.8,2-2c0.8,0.6,1.4,1.5,2.3,2c0.6-0.6,0.6-1.5,1.4-1.5C61.4,117.9,60.9,118.7,61.1,119"/>
	<path id="path12562" class="st0" d="M73,105.7c0,0-0.3,0.8,0,1.1c-0.6,0-0.9,0.3-1.2,0.3c0-0.3,0-0.6,0-0.8
		C72.1,106,72.8,106,73,105.7"/>
	<path id="path12566" class="st0" d="M43.5,109.1c0,0.3,0.6,0,0.9,0.3c0,0.9-0.9,0.9-1.5,0.6c-0.3-2.6,2.9-2,2.9,0
		C45.8,108.8,43.8,107.7,43.5,109.1"/>
	<path id="path12570" class="st0" d="M62,12c0.9,0.3,0.4-0.9,0.6-0.9c1.1-0.3,3.7-1.1,3.7,0.4c0.6,0.3,0.3-0.6,0.8-0.4
		c0.4,0.9-0.6,0.6-0.8,1.2c0.3,1.4-0.3,2-0.8,2.9C63.2,15.4,62.9,13.4,62,12z M63.2,11.7c0,0.3,1.1,0.3,0.8,0
		C64,11,63.5,11.4,63.2,11.7z M64.6,13.7c1.2-0.3,0.9-1.4,0.6-1.7c0.3-0.3,0.6-0.3,0.8-0.3c-0.3-0.3-0.6-0.3-0.8-0.3
		C64.9,12,65.2,13.4,64.6,13.7z M65.2,14c-0.3,0.3-0.3,0-0.9,0C64,14.6,65.5,14.6,65.2,14"/>
	<path id="path12574" class="st0" d="M72.4,11.4c0.6-3.2,5.8-3,5.8,0.3c-0.9-1.2-4.1-1.2-5.2-0.3c0.8,0,2.3-0.4,3.5,0
		c0.6,0,0.6,0.6,1.2,0.6c-0.9,1.4-1.2,4-3,3.7C73,15.4,73.6,12.5,72.4,11.4z M74.7,12.2c0.6-0.3,1.2,0.3,1.5,0
		C75.7,11.7,75,12,74.7,12.2z M74.2,12.2c-0.3-0.3-0.6-0.3-0.6,0c0.6,0,0,0.6-0.3,0.6c0.6,0,0.6,0.6,0.6,1.2"/>
	<path id="path12578" class="st0" d="M56.2,11.4c0,1.7-0.3,4.6-2,4.6c-1.7,0.3-3.2-3.2-1.7-4.9C53.9,10.8,55.1,11,56.2,11.4z
		 M52.8,12c0,0.3,1.1,0.3,1.4,0C53.9,11.7,53,11.7,52.8,12z M54.8,14c0.6-0.4,0.3-1.2,1.1-0.9c0.3-0.8-0.6-0.3-0.6-0.6
		c0-0.6,0.6,0,0.6-0.6C54.8,11.4,55.1,13.1,54.8,14z M53.3,12.8c0,0,0.3,0.3,0.6,0C54.2,12.2,53.3,12.2,53.3,12.8z M55.1,14.6
		c-0.3-0.3-0.9,0-1.2,0C53.9,14.8,55.1,14.8,55.1,14.6"/>
	<path id="path12582" class="st0" d="M61.1,47c2-1.2,4.6-0.8,6.7,0.3c0.3,2.6-1.2,7-3.8,6.3C61.7,53.3,60.9,50.1,61.1,47z M62,47.8
		c0.4-0.3,1.2-0.3,1.8,0c0-0.6-0.6,0-0.3-0.6C62.6,47.2,62.3,47.2,62,47.8z M65.2,48.4c0.3-0.8,1.4-0.3,1.7-0.6
		C66.6,47,64.6,47.5,65.2,48.4z M62,49c0.6-0.3,0.4,0.6,0.9,0.3c0.3,0,0.6-0.3,0.6-0.6C62.9,49,62.3,48.4,62,49z M65.5,49
		c0.3,0,0.6,0.3,0.8,0.6c0-0.6,0.3-0.6,0.6-0.6C66.6,48.7,65.8,48.7,65.5,49z M64,51c0.6,0,0.9,0,1.2,0c0-0.3,0-0.8-0.3-0.8
		C65.2,51,64.3,50.7,64,51z M65.5,52.2c0-0.6-1.8-0.3-2-0.3C64,52.2,64.9,51.9,65.5,52.2"/>
	<path id="path12586" class="st0" d="M33.6,47.5c0,0.3-0.6,0.3-0.6,0.8c0.3,0.4,1.5,0,1.5,0.6c-0.3,0.8-1.5,0.6-2,0.8
		c0,0.3,0,0.6,0,0.8c0,0.6,0.8,0.3,0.8,0.3c-0.3,0.9,0.3,1.2,0,2c0.6-0.6-0.3-1.4,0.6-2c0.3,0.4-0.4,0.4-0.4,0.9
		c0.6,0.3,0.9,0.6,0.9,1.4c-0.6,0.3-1.2,0.3-1.8,0c-0.3,0.3,0,0.9,0,0.9c0.3,0.6,1.2,0.3,1.2,0.8c0,0.6-0.6,0.6-0.9,0.6
		c0,0.6,0,0.9,0,1.2c0.6,0,0.6-0.3,0.9-0.3c0,0.6,0,0.8,0.6,1.1c-0.9,0.8-0.3,1.8,0,2.6c-0.9-0.8-1.2-2.3-1.8-3.7
		c-1.1,0.8-1.4,2.5-2.3,3.5c-0.8-0.6,1.2-1.5,0-2c0.3-0.6,0.6-0.6,0.6-1.1c0.4,0,0.4,0.3,0.6,0.3c0.3-0.3,0.6-0.6,0.6-1.2
		c0-0.6-0.8-0.3-1.2-0.3c0-0.3,0-0.3-0.3-0.3c0-0.3,0.3-0.3,0.3-0.6c0.4,0,0.6,0,0.9,0c0.6,0,0.3-0.8,0.3-1.5c-0.6-0.3-1.5,0.6-2,0
		c0-0.3,0-0.6,0-1.1c0.3,0,0.3-0.3,0.8-0.3c0-0.3-0.6-0.6-0.3-0.9c0.6,0.4,0.9,0,1.5,0c0.6-2-1.5-1.1-2-1.7c0-0.9,1.2-0.6,1.5-1.2
		c0-0.3-0.6-0.3-0.9-0.6C31.6,47.2,32.8,47.2,33.6,47.5"/>
	<path id="path12590" class="st0" d="M51.9,71.8c0.4,0.3,0.4,1.2,0.4,2c-0.6-0.3-0.9,0-1.2,0.6c0,0.3,0.6,1.8-0.6,1.8
		c1.4,0.6,0.3-1.5,1.8-1.2c0.3,1.2-0.6,1.8-0.9,2.6c-0.6,0-1.1,0-1.7,0c-1.2-0.8-1.8-3.7-0.9-5.5C49.6,71.8,51,72.1,51.9,71.8z
		 M49.2,74.1c0-0.3,0.9,0,1.2,0C50.4,73.3,48.7,73.6,49.2,74.1z M49.6,75c0.6,0,0.8,0,0.8-0.3C50.2,74.1,49.2,74.1,49.6,75z M51,77
		c0.3-0.6-0.8-0.6-0.8-0.3C50.4,77,50.7,76.7,51,77"/>
	<path id="path12594" class="st0" d="M80.9,72.1c0,2.9-0.3,6.4-3.8,5.5c-0.8-1.1-0.8-3.5-0.8-5.5C77.3,71.5,78.8,72.1,80.9,72.1z
		 M77.3,74.1c-0.3,0.3-0.8,0-0.8,0.6c1.2-0.3,0.6,2.3,1.8,1.2c-1.2,0-0.3-1.2-0.6-2c-0.4-0.3-0.9-0.3-1.2-0.3
		C76.5,74.1,77.3,73.6,77.3,74.1z M78.5,74.1c0.3,0,0.6-0.3,1.1,0C79.7,73.6,78.5,73.6,78.5,74.1z M78.5,74.7c0,0,0,0.3,0.3,0.3
		c0.3,0,0.6,0,0.6-0.6C79.1,74.4,78.8,74.4,78.5,74.7z M77.7,76.7c0.6,0,0.3,0,0.8,0C78.8,76.5,77.3,76.5,77.7,76.7"/>
	<path id="path12598" class="st0" d="M66.1,80.5c0.6,0.8,0.8,2.3,0.3,3.5c-0.8,0.3-2.3,0-3.2,0.3C61.7,82.2,63.2,79.3,66.1,80.5z
		 M66.1,83.4c0.3-0.4,0.6-0.9,0-0.9C66.1,82.5,65.8,83.4,66.1,83.4"/>
	<path id="path12602" class="st0" d="M51.9,81.9c0.6,0.3,0.9,1.1,1.5,1.5c-0.3,0.3-0.8,0.8,0,0.8C53,84.8,52.8,85.1,53,86
		c-1.5,0-0.8-1.5-2-1.5c0.3-0.6,0.6-1.1,0-1.8C51,82.5,51.3,82.2,51.9,81.9"/>
	<path id="path12606" class="st0" d="M21.5,85.4c-2.3-4.9-4.4-10.1-4.6-16.8c-1.2-13.9,3.5-25.8,9.2-33.6c-1.1,0.4-1.7,1.8-2,3
		c-0.9-0.6-1.5-1.8-1.8-3.2c-1.1,0.3-2-0.3-2.9-0.8c-0.8-0.6-1.8-0.8-2.6-0.8c0-1.5,0-2.6-0.3-4.1c1.4-0.6,3.2-1.1,4.9-1.7
		c0,0.6-0.6,0.6-0.6,1.1c0.6,0.8,1.5,0.8,2.6,0.6c0,0.6-0.6,0.6-0.3,1.2c0.3,0.6,0.6,0.3,0.9,0.3c0.3,0,0.6-0.3,0.8,0
		c1.8,0.3,0.6,2.9,1.5,4c2.6-2.6,4.6-5.2,7.5-7.2c2.6-2,5.8-4.4,8.9-5.6c-3.2,2-6.3,3.8-8.9,5.8c-2.6,2-5.3,4.9-7.3,7.5
		c-5.5,7.3-9.3,15.9-9.6,28.4c8.7,1.5,17.7,0.6,26.1,0c2.3,11,0,26.6-10.7,27.5c-8.1,0.6-10.7-6.1-12.7-12.1
		c4.4-3.5,2-12.5-2.3-13.9c-0.6,6.6,0.8,13.6,3.8,18.8c0.8,2,2,4,3.2,5.8c5.8,8.9,14.8,16.5,25.8,19.9c0.8,0.3,2,0.3,2.9,1.2
		C38,106.8,28.1,97.9,21.8,85.7c-0.6,0.4-1.2,0-1.8,0c-0.6,0-0.8-0.3-1.4-0.3c-0.6,0.3-0.4,1.2-0.4,1.8c-1.4,0.6-2.9,0.8-3.5,2
		c-1.8,0-2.9-0.6-4.6-0.9c0-1.7,0.9-2.9,1.2-4.9c0.3,0,0.3,0.6,0.8,0.8c0.8-0.3,1.2-0.6,1.5-1.8c0.6,0,0.3,0.9,0.8,0.9
		c1.5-0.4,1.1-2,2.9-2c1.2-0.3,2.3,0.6,2.9,1.7C20.6,84,20.3,85.4,21.5,85.4z M17.4,30.8c1.5,0.6,3.5,3.5,4.9,1.4
		C21.2,30.8,19.2,28.7,17.4,30.8z M25.5,33.4c0.3-1.2-1.7-1.8-2.9-0.6c0,1.4,0,2.9,0.8,3.7C23.2,35.1,25.5,34.5,25.5,33.4z
		 M18.6,64.6c2.3,2.3,4.9,5.1,4.3,10.1c0.6-0.6,1.2,0,2,0.3c0.8,0.6,1.8,1.2,2.3-0.3c-0.3-0.6-0.8-0.6-0.8-0.8
		c0.8-1.1,1.7,0.3,1.7,1.5c1.5,0.6,2.3-0.6,3.5-0.9c0.6,1.2,0.6,3.2,0.3,4.6c-0.3,0-0.3-0.3-0.3-0.6c0-0.6,0-1.2-0.3-1.8
		c-0.4-1.8,0.3,1.8-0.4,2c-0.3-0.6,0-2-0.6-2.3c0,0.6,0.3,1.5-0.3,1.8c-0.3-0.3,0-1.5-0.6-1.8c0,0.3,0,1.1-0.3,1.5
		c0-0.4,0-0.9-0.3-1.2c-0.4-0.3-0.4,0-0.4,0.3s0,0.6-0.3,0.6c0-0.3,0-0.6-0.3-0.6c0,0.3-0.3,0.6-0.3,1.2c0.6,0.3,2,0.8,1.5,1.7
		c-0.6-0.3-1.2-0.8-1.5-1.1c-0.3,1.4,0.8,1.4,0.8,2.6c-0.8-0.3-0.6-1.2-1.4-1.5c-0.6,0.3-0.6,0.9-1.2,1.2c0.4-0.9,0.9-0.9,0.6-1.8
		c-0.6,0.3-1.5,0.6-2.3,0.8c0,0,0.3,0,0,0.6c-0.6-0.6-0.9,0.3-1.2,0.6c0-0.8-0.8-0.6-0.8-0.8c0.6,0.3,0.3-0.6,0.6-0.6
		c2,0.6,2.3-1.4,3.8-1.7c0-0.6,0-0.9,0-1.5c-0.6-0.3-0.3,0.6-0.9,0.8c-0.3-0.3,0.3-1.1-0.3-1.1c-0.3,0.6,0,0.8-0.3,1.5
		c-0.6,0,0-1.5-0.6-1.8c-0.6,0.3,0.3,2-0.6,2c0-0.9,0.3-2-0.3-2.3c-0.6,0.6,0.3,2.6-0.6,2.9c-0.3-1.2,0-2.3-0.3-3.2
		c-0.6,0-0.3,0.6-0.6,0.8c0.8,0.3,0.3,2.6,0,2.9c0-0.8,0-1.8-0.3-2.3c-0.6,0.9-1.5,1.2-1.8,2c1.5,4.9,3.8,9.9,9,11
		c2.3,0.3,5.5,0,6.9-1.4c-1.7,0.3-2-1.2-3.5-1.5c0,1.5,0.6,1.8,1.2,2.3c-1.2,0.3-1.5-0.6-1.8-1.5c-0.6,0.3-0.8,1.8-1.8,1.2
		c0.6-0.6,1.2-1.2,1.2-2.3c-0.6,0.8-2.6,0.8-2,1.8c-0.9-0.4-0.6,0.8-1.2,0.8c0-0.6,0-0.6-0.3-0.3c-0.3,0-0.3,0-0.3-0.3
		c0-0.6,0.6-0.3,0.3-0.9c1.5,0,2.3-1.4,3.2-2.3c-0.4-0.3-0.4-0.8-0.6-1.1c-0.3,0.3,0,1.1-0.6,0.8c0-0.3-0.3-0.6-0.3-1.1
		c-0.6,0.3,0,1.1-0.8,1.1c0-0.3,0.3-1.1-0.4-1.1c0,0.6,0.4,1.8-0.3,1.8c-0.3-0.6-0.3-1.5-0.6-2c0,0.8,0.3,2.3-0.6,2.3
		c0-0.9,0.3-2-0.6-2.3c0,1.1,0.3,2.6-0.6,2.9c0.4-1.5,0-2.6,0-3.8c0.9-0.6,1.8-0.3,2.6,0.4c1.2,0.3,2,0.6,3.2,0
		c0.3-0.9-0.6-1.2-0.6-1.5c1.7-1.1,1.1,0.8,1.7,1.8c1.2,0.3,1.8,0,2.3-0.3c0.6-0.4,1.2-0.6,2-0.6c0.8,1.2,0,3.2,0.3,4.4
		c-0.8-0.8-0.3-2.3-0.6-3.5c-0.6,0.8,0,2.3-0.3,2.9c-0.6-0.3-0.3-1.5-0.3-2.3c-0.9,0,0,1.8-0.9,2c-0.3-0.3,0.3-1.8-0.3-1.8
		c-0.3,0.3,0,1.1-0.3,1.5c-0.6,0,0-1.5-0.6-1.5c-0.3,0,0,1.1-0.3,1.1c-0.3,0-0.3-0.3-0.3-0.6s0-0.6-0.4-0.6c0,0.6-0.3,1.5-0.6,0.8
		c-0.6,1.5,1.5,1.2,1.5,2.3c0.6,0,0.8,0,1.4,0c-0.3,0.6,0.3,0.6,0.6,0.9c3.2-2.3,5.2-5.2,6.1-9.9c-0.8,0-0.3-2.6-0.6-3.5
		c-0.3,0.8,0,2.3-0.6,2.9c0-0.6-0.3-1.5-0.3-2c-0.3,0,0,1.4-0.3,1.8c-0.3-0.6,0-1.5-0.6-1.8c-0.3,0.3,0.3,1.1-0.3,1.4
		c-0.3-0.3-0.3-0.8-0.6-1.1c0,0.3,0,0.8-0.3,0.8c0-0.3-0.4-0.6-0.6-0.6c0,0.3-0.3,0.6-0.3,1.2c1.8,0.3,1.5,2.3,3.5,2.3
		c-0.4,0,0,0.4,0,0.9c-0.6-0.3-0.6,0-0.6,0.3c0-0.6-0.6-0.6-0.8-0.6c0-0.3,0.6-0.3,0.3-0.6c-0.8-0.6-1.8-0.8-2.3-1.4
		c-0.3,1.4,1.2,2.3,1.5,2.9c-1.2,0.3-0.9-0.8-1.8-1.1c-0.6,0-1.1,1.4-2,1.1c0.9-0.6,1.5-1.8,1.8-2.9c-0.8,0-0.8,0.8-1.5,1.1
		c-0.6-0.3-0.8,0-1.1,0.3c-0.3,0.4-0.6,0.9-0.8,0.6c0-0.6,0.8-0.9,1.4-1.2c0.3-0.3-0.6-0.3,0-0.6c0.6-0.3,0.9-0.8,1.8-0.8
		c0-0.9,0-1.5-0.6-1.8c0.3,0.6,0,0.6-0.3,0.8c-0.4-0.6,0-0.8-0.6-0.8c0,0.6,0,0.8-0.3,1.1c0-0.6,0-1.1-0.6-1.1c0,0.6,0,1.1-0.3,1.5
		c0-0.9,0-1.5-0.6-2c-0.3,0.8,0.3,2-0.3,2.6c0-0.9,0-2-0.6-2.6c-0.3,0.8,0.3,2.6-0.3,3.2c0-1.5-0.3-3.2,0-4.4c0.9-0.3,1.8,0,2.3,0.3
		c0.6,0.4,1.2,0.6,2,0.6c0-0.3,0.3-0.6,0.3-0.9c0-0.6-0.8-0.6-0.8-1.1c0.6,0,0.8-0.3,1.4-0.3c0.3,0.6,0.3,2,0.9,2.3
		c0.8,0,1.1-0.3,1.7-0.6c0.3-0.3,0.9-0.6,1.8-0.6c0,0.3,0,0.3,0,0.3c0,0.9-0.6,2.9,0.3,3.5c0.6-4.6,0.3-9.3-0.3-13.9
		C34.8,64.9,26.7,65.8,18.6,64.6z M16.9,84.6c1.1,0.3,1.8,0.8,3.2,0.6C20,81.7,17.1,80.8,16.9,84.6z M11.6,88c2.3,0,3.5-1.1,5.2-2
		c-0.3-0.6,0.3-0.6,0.3-1.2C14.8,84.6,11.6,85.4,11.6,88"/>
	<path id="path14921" class="st1" d="M41.8,103.1v4.9h18.8v-4.9H41.8z"/>
	<path id="path12610" class="st0" d="M60.6,83.4c0.6,0.3,0.6,2,0,2.3c0.6,0,1.1-0.3,1.4,0c0,1.5-0.3,2.3-0.6,3.5
		c-0.6-1.5-1.4-3.2-2.3-4.6C60.3,84.8,60.6,84.3,60.6,83.4"/>
	<path id="path12614" class="st2" d="M92.4,143c-3.5,0-3.5,0-3.5,0c0,11.3,0,11.3,0,11.3c18.8,0,18.8,0,18.8,0c0-4.6,0-4.6,0-4.6
		c-7.5,0-7.5,0-7.5,0c0-6.3,0-6.3,0-6.3c-3.5,0-3.5,0-3.5,0c0,6.3,0,6.3,0,6.3c-4.4,0-4.4,0-4.4,0C92.4,143,92.4,143,92.4,143z
		 M107.8,125c-6.1,4.4-6.1,4.4-6.1,4.4c-0.8,0.3-1.8,0.8-2,1.1c-0.8-2.6-2.6-4.3-5.5-4.3c-3.5,0-5.5,2.6-5.5,7.2
		c0,2.3,0.3,5.2,0.3,7c18.8,0,18.8,0,18.8,0c0-4.9,0-4.9,0-4.9c-7.5,0-7.5,0-7.5,0c7.5-4.6,7.5-4.6,7.5-4.6
		C107.8,125,107.8,125,107.8,125z M94.7,131.1c1.5,0,2.6,1.2,2.6,3c0,0.6,0,1.1,0,1.4c-4.9,0-4.9,0-4.9,0c0-0.3,0-0.8,0-1.1
		C92.4,132.3,93.3,131.1,94.7,131.1z M107.8,111.5c-3.7,0-3.7,0-3.7,0c0,6.7,0,6.7,0,6.7c-4.1,0-4.1,0-4.1,0c0-6.4,0-6.4,0-6.4
		c-3.7,0-3.7,0-3.7,0c0,6.4,0,6.4,0,6.4c-3.8,0-3.8,0-3.8,0c0-6.7,0-6.7,0-6.7c-3.5,0-3.5,0-3.5,0c0,11.5,0,11.5,0,11.5
		c18.8,0,18.8,0,18.8,0C107.8,111.5,107.8,111.5,107.8,111.5z M107.8,103.1c-18.8,0-18.8,0-18.8,0c0,4.9,0,4.9,0,4.9
		c18.8,0,18.8,0,18.8,0C107.8,103.1,107.8,103.1,107.8,103.1z M102,84.3c-2,0-3.8,1.1-4.4,3.2c-0.8-2-2.3-2.9-4-2.9
		c-3.2,0-4.9,2-4.9,7.3c0,2.3,0.3,5.5,0.3,7.2c18.8,0,18.8,0,18.8,0c0-2.9,0-5.1,0-6.6C107.8,86.3,104.6,84.3,102,84.3z M94.2,89.5
		c1.8,0,2.3,1.4,2.3,3.7c0,0.3,0,0.9,0,1.2c-4.4,0-4.4,0-4.4,0c0-0.6,0-1.2,0-1.8C92.1,90.3,93,89.5,94.2,89.5z M102,89.2
		c1.5,0,2.6,1.1,2.6,3.5c0,0.6-0.3,1.5-0.3,1.8c-4.6,0-4.6,0-4.6,0c-0.3-0.3-0.3-1.2-0.3-1.5C99.4,90.6,100.2,89.2,102,89.2z
		 M100.5,64C89,64,89,64,89,64c0,4.6,0,4.6,0,4.6c11,0,11,0,11,0c2.6,0,4.4,0.8,4.4,3.7c0,2.6-1.5,4.1-4.4,4.1c-11,0-11,0-11,0
		c0,4.6,0,4.6,0,4.6c12.2,0,12.2,0,12.2,0c4.3,0,6.9-2.6,6.9-8.4C108,66.6,104.6,64,100.5,64z M107.8,44.9c-6.1,4.1-6.1,4.1-6.1,4.1
		c-0.8,0.6-1.8,1.1-2,1.4c-0.8-2.6-2.6-4.6-5.5-4.6c-3.5,0-5.5,3-5.5,7.5c0,2.3,0.3,5.2,0.3,6.7c18.8,0,18.8,0,18.8,0
		c0-4.6,0-4.6,0-4.6c-7.5,0-7.5,0-7.5,0c0-0.3,0-0.3,0-0.3c7.5-4.6,7.5-4.6,7.5-4.6C107.8,44.9,107.8,44.9,107.8,44.9z M94.7,50.7
		c1.5,0,2.6,1.2,2.6,3.2c0,0.3,0,0.8,0,1.4c-4.9,0-4.9,0-4.9,0c0-0.3,0-0.8,0-1.4C92.4,52.2,93.3,50.7,94.7,50.7z M106.6,27.3
		c-9,0-9,0-9,0c0,4.6,0,4.6,0,4.6c6.1,0,6.1,0,6.1,0c0,0.6,0.3,1.5,0.3,2.3c0,2.9-2,5.2-5.8,5.2c-3.7,0-5.8-2.6-5.8-5.8
		c0-1.8,0.3-3.5,1.2-5.2c-4.1-0.8-4.1-0.8-4.1-0.8c-0.6,2-0.8,4-0.8,6.1c0,6.6,4.3,10.7,10.1,10.7c6.1,0,9.2-4.4,9.2-9.9
		C108,31.9,107.5,29.6,106.6,27.3"/>
	<path id="path12618" class="st2" d="M76.8,137.5c-11.5,0-11.5,0-11.5,0c0,4.6,0,4.6,0,4.6c11,0,11,0,11,0c2.9,0,4.4,1.1,4.4,4
		c0,2.6-1.2,4.1-4.1,4.1c-11.3,0-11.3,0-11.3,0c0,4.6,0,4.6,0,4.6c12.5,0,12.5,0,12.5,0c4,0,6.9-2.6,6.9-8.4
		C84.6,140.1,81.1,137.5,76.8,137.5z M84.3,114.1c-19.1,0-19.1,0-19.1,0c0,4.4,0,4.4,0,4.4c8.1,0,8.1,0,8.1,0c2,0,3.5,0,4.6,0
		c-1.5,0.6-2.6,1.1-3.8,2c-8.9,5.6-8.9,5.6-8.9,5.6c0,6.3,0,6.3,0,6.3c19.1,0,19.1,0,19.1,0c0-4.6,0-4.6,0-4.6c-9.6,0-9.6,0-9.6,0
		c-1.4,0-2.3,0-3.2,0c0.8-0.3,2.3-1.1,3.5-1.7c9.3-5.8,9.3-5.8,9.3-5.8C84.3,114.1,84.3,114.1,84.3,114.1z M84.3,103.1
		c-19.1,0-19.1,0-19.1,0c0,4.9,0,4.9,0,4.9c19.1,0,19.1,0,19.1,0C84.3,103.1,84.3,103.1,84.3,103.1"/>
	<path id="path12638" class="st3" d="M52.5,108c-0.9,0-0.9,0-0.9,0c-2-2-4-3.5-6.3-4.9c3.7,0,3.7,0,3.7,0
		C50.4,104.6,51.9,106,52.5,108"/>
	<path id="path12642" class="st3" d="M51.9,105.7c-0.6-0.3-1.4-1.5-2-2.3c0,0,0-0.3-0.3-0.3c0.8,0,0.8,0,0.8,0
		C50.7,104.2,51.6,104.8,51.9,105.7"/>
	<path id="path12650" class="st3" d="M53.9,108c-0.6,0-0.6,0-0.6,0c-0.3-1.5-0.8-2.9-1.5-4.1c3.2,0,6.1-0.3,8.7-0.3
		c0,0.9,0,0.9,0,0.9c-1.2,0-2.3,0-3.8,0c-1.4,0-2.6,0-3.7,0C53.3,105.7,53.6,106.8,53.9,108"/>
	<path id="path12654" class="st3" d="M46.1,108c-0.8,0-0.8,0-0.8,0c-1.2-0.6-2.3-1.2-3.5-1.8c0-0.3,0-0.3,0-0.3
		C43.2,106.5,44.7,107.4,46.1,108"/>
	<path id="path12626" class="st3" d="M112.4,107.1c0-1.1,0-1.1,0-1.1c0.8-0.8,1.8-2,2.3-2.9c0.8,0,0.8,0,0.8,0
		C114.7,104.6,113.5,106,112.4,107.1"/>
	<path id="path12630" class="st4" d="M112.4,104.2c0-0.6,0-0.6,0-0.6c0-0.3,0.3-0.3,0.6-0.6c0.3,0,0.3,0,0.3,0
		C113,103.4,112.7,103.9,112.4,104.2"/>
	<path id="path12646" class="st3" d="M57.1,108c-0.6,0-0.6,0-0.6,0c0.3,0,0.3-0.3,0.3-0.6c0-0.4-0.3-0.6-0.8-0.6h-0.3
		c0-0.6-0.3-0.8-0.6-1.1c-0.6,0-0.9,0.6-0.9,1.1c-0.6-0.3-0.3-0.6-0.6-0.6c0-0.6,1.2-0.6,0.6-1.4h0.4c0.3,0,0.6,0,0.8,0.3
		s0.3,0.6,0.8,0.6c0.6,0.6,0.3,1.4,1.2,1.4c0.3,0,0.3,0,0.3,0c0,0.4-0.3,0.4-0.3,0.9H57.1z M60.6,107.1c0,0,0,0-0.3,0
		c0-0.6,0-1.1-0.6-1.4c-0.6,0-0.6,0.6-0.9,1.1c-0.6,0-0.8,0.3-1.1,0.3c0-0.8,0.8-1.1,1.4-1.7c0-0.3-0.3-0.3-0.6-0.6c0,0,0.3,0,0.6,0
		c0,0,0,0,0.3,0h0.4c0.3,0,0.3,0,0.6,0c-0.6,0.6-0.3,0.8,0.3,1.1C60.6,107.1,60.6,107.1,60.6,107.1"/>
</g>
<g>
	<path d="M149.2,110.1c1.7-0.4,4.2-0.6,6.6-0.6c3.7,0,6.1,0.7,7.7,2.2c1.3,1.2,2.1,3,2.1,5.1c0,3.5-2.2,5.9-5,6.8v0.1
		c2.1,0.7,3.3,2.6,3.9,5.4c0.9,3.7,1.5,6.3,2.1,7.3H163c-0.4-0.8-1-3.1-1.8-6.4c-0.8-3.7-2.2-5.1-5.4-5.2h-3.3v11.6h-3.5V110.1z
		 M152.6,122.3h3.5c3.7,0,6-2,6-5.1c0-3.5-2.5-5-6.2-5c-1.7,0-2.9,0.2-3.4,0.3V122.3z"/>
	<path d="M172.5,127.6c0.1,4.7,3.1,6.7,6.6,6.7c2.5,0,4-0.4,5.3-1l0.6,2.5c-1.2,0.6-3.3,1.2-6.4,1.2c-5.9,0-9.4-3.9-9.4-9.7
		s3.4-10.4,9-10.4c6.3,0,7.9,5.5,7.9,9c0,0.7-0.1,1.3-0.1,1.6H172.5z M182.7,125.1c0-2.2-0.9-5.7-4.8-5.7c-3.5,0-5.1,3.3-5.4,5.7
		H182.7z"/>
	<path d="M190,133c1,0.7,2.9,1.4,4.6,1.4c2.5,0,3.7-1.3,3.7-2.9c0-1.7-1-2.6-3.6-3.5c-3.5-1.2-5.1-3.1-5.1-5.4
		c0-3.1,2.5-5.6,6.6-5.6c1.9,0,3.7,0.6,4.7,1.2l-0.9,2.5c-0.8-0.5-2.1-1.1-3.9-1.1c-2.1,0-3.2,1.2-3.2,2.6c0,1.6,1.2,2.3,3.7,3.3
		c3.3,1.3,5,2.9,5,5.8c0,3.4-2.6,5.8-7.2,5.8c-2.1,0-4-0.5-5.4-1.3L190,133z"/>
	<path d="M208.1,127.6c0.1,4.7,3.1,6.7,6.6,6.7c2.5,0,4-0.4,5.3-1l0.6,2.5c-1.2,0.6-3.3,1.2-6.4,1.2c-5.9,0-9.4-3.9-9.4-9.7
		s3.4-10.4,9-10.4c6.3,0,7.9,5.5,7.9,9c0,0.7-0.1,1.3-0.1,1.6H208.1z M218.3,125.1c0-2.2-0.9-5.7-4.8-5.7c-3.5,0-5.1,3.3-5.4,5.7
		H218.3z"/>
	<path d="M236.7,136.5l-0.3-2.4h-0.1c-1.1,1.5-3.1,2.9-5.9,2.9c-3.9,0-5.9-2.7-5.9-5.5c0-4.6,4.1-7.2,11.5-7.1v-0.4
		c0-1.6-0.4-4.4-4.4-4.4c-1.8,0-3.7,0.6-5,1.4l-0.8-2.3c1.6-1,3.9-1.7,6.3-1.7c5.9,0,7.3,4,7.3,7.9v7.2c0,1.7,0.1,3.3,0.3,4.6H236.7
		z M236.2,126.7c-3.8-0.1-8.1,0.6-8.1,4.3c0,2.3,1.5,3.3,3.3,3.3c2.5,0,4.1-1.6,4.6-3.2c0.1-0.4,0.2-0.8,0.2-1.1V126.7z"/>
	<path d="M245.2,123.3c0-2.3,0-4.2-0.2-6h3.1l0.1,3.8h0.2c0.9-2.6,3-4.2,5.3-4.2c0.4,0,0.7,0,1,0.1v3.3c-0.4-0.1-0.7-0.1-1.2-0.1
		c-2.5,0-4.2,1.9-4.7,4.5c-0.1,0.5-0.2,1-0.2,1.6v10.2h-3.5V123.3z"/>
	<path d="M271.4,135.8c-0.9,0.5-2.9,1.1-5.5,1.1c-5.8,0-9.6-3.9-9.6-9.8c0-5.9,4-10.2,10.3-10.2c2.1,0,3.9,0.5,4.8,1l-0.8,2.7
		c-0.8-0.5-2.1-0.9-4-0.9c-4.4,0-6.8,3.3-6.8,7.3c0,4.4,2.9,7.2,6.7,7.2c2,0,3.3-0.5,4.3-1L271.4,135.8z"/>
	<path d="M275.5,108.4h3.5v12h0.1c0.6-1,1.4-1.9,2.5-2.5c1-0.6,2.3-1,3.6-1c2.6,0,6.7,1.6,6.7,8.2v11.4h-3.5v-11
		c0-3.1-1.2-5.7-4.4-5.7c-2.3,0-4,1.6-4.7,3.5c-0.2,0.5-0.2,1-0.2,1.7v11.6h-3.5V108.4z"/>
	<path d="M326.4,135.3c-1.5,0.6-4.6,1.5-8.2,1.5c-4,0-7.4-1-10-3.5c-2.3-2.2-3.7-5.8-3.7-10c0-8,5.5-13.8,14.5-13.8
		c3.1,0,5.5,0.7,6.7,1.2l-0.8,2.8c-1.4-0.6-3.2-1.2-5.9-1.2c-6.5,0-10.8,4-10.8,10.8c0,6.8,4.1,10.8,10.3,10.8
		c2.3,0,3.8-0.3,4.6-0.7v-8h-5.4v-2.8h8.8V135.3z"/>
	<path d="M331.6,123.3c0-2.3,0-4.2-0.2-6h3.1l0.1,3.8h0.2c0.9-2.6,3-4.2,5.3-4.2c0.4,0,0.7,0,1,0.1v3.3c-0.4-0.1-0.7-0.1-1.2-0.1
		c-2.5,0-4.2,1.9-4.7,4.5c-0.1,0.5-0.2,1-0.2,1.6v10.2h-3.5V123.3z"/>
	<path d="M361.6,126.8c0,7.1-4.9,10.2-9.6,10.2c-5.2,0-9.2-3.8-9.2-9.9c0-6.4,4.2-10.2,9.5-10.2
		C357.8,116.9,361.6,120.9,361.6,126.8z M346.3,127c0,4.2,2.4,7.4,5.8,7.4c3.3,0,5.8-3.1,5.8-7.5c0-3.3-1.6-7.4-5.8-7.4
		C348.1,119.5,346.3,123.3,346.3,127z"/>
	<path d="M382,131.3c0,2,0,3.7,0.2,5.2h-3.1l-0.2-3.1h-0.1c-0.9,1.5-2.9,3.6-6.3,3.6c-3,0-6.6-1.7-6.6-8.4v-11.2h3.5V128
		c0,3.7,1.1,6.1,4.3,6.1c2.3,0,4-1.6,4.6-3.2c0.2-0.5,0.3-1.2,0.3-1.8v-11.8h3.5V131.3z"/>
	<path d="M387.8,123.6c0-2.5-0.1-4.4-0.2-6.3h3.1l0.2,3.3h0.1c1.4-2.3,3.7-3.7,6.8-3.7c4.6,0,8.1,3.9,8.1,9.8
		c0,6.9-4.2,10.3-8.7,10.3c-2.5,0-4.8-1.1-5.9-3h-0.1v10.4h-3.5V123.6z M391.3,128.7c0,0.5,0.1,1,0.2,1.4c0.6,2.4,2.7,4.1,5.2,4.1
		c3.7,0,5.8-3,5.8-7.4c0-3.8-2-7.1-5.7-7.1c-2.4,0-4.6,1.7-5.3,4.3c-0.1,0.4-0.2,1-0.2,1.4V128.7z"/>
</g>
</svg>
